<?xml version="1.0" encoding="UTF-8"?>
<!DOCTYPE svg PUBLIC "-//W3C//DTD SVG 1.1//EN" "http://www.w3.org/Graphics/SVG/1.1/DTD/svg11.dtd">
<!-- Creator: CorelDRAW 2020 (64-Bit) -->
<svg xmlns="http://www.w3.org/2000/svg" xml:space="preserve" width="38.3184in" height="39.3701in" version="1.1" style="shape-rendering:geometricPrecision; text-rendering:geometricPrecision; image-rendering:optimizeQuality; fill-rule:evenodd; clip-rule:evenodd"
viewBox="0 0 38318.39 39370.08"
 xmlns:xlink="http://www.w3.org/1999/xlink"
 xmlns:xodm="http://www.corel.com/coreldraw/odm/2003">
 <defs>
  <style type="text/css">
   <![CDATA[
    .fil0 {fill:#282829}
   ]]>
  </style>
 </defs>
 <g id="Layer_x0020_1">
  <metadata id="CorelCorpID_0Corel-Layer"/>
  <g id="_1824760901952">
   <path class="fil0" d="M17174.39 1.63l6324.71 0c950.87,0 1728.85,777.98 1728.85,1728.85l0 6026.28 -3551.43 0c-634.69,0 -1211.28,259.25 -1628.96,676.93 -417.68,417.68 -676.94,994.28 -676.94,1628.96 0,634.69 259.26,1211.28 676.94,1628.96 417.68,417.68 994.28,676.94 1628.96,676.94l3551.43 0 0 16663.07c0,950.87 -777.98,1728.85 -1728.85,1728.85l-6324.71 0c-950.87,0 -1728.85,-777.98 -1728.85,-1728.85l0 -4211.67 1132.98 0 0 1148.64c0,929.66 760.63,1690.28 1690.28,1690.28l4135.87 0c929.65,0 1690.28,-760.63 1690.28,-1690.28l0 -7659.5c0,-929.66 -760.63,-1690.28 -1690.28,-1690.28l-3596.8 0 0 -11887.15c0,-338.32 -138.02,-645.49 -360.36,-867.83 -222.34,-222.34 -529.52,-360.36 -867.83,-360.36l-2134.15 0 0 -1772.98c0,-950.87 777.98,-1728.85 1728.85,-1728.85z"/>
   <rect class="fil0" x="19907.95" y="8294.08" width="18408.8" height="3537.14" rx="1779.7" ry="1768.57"/>
   <path class="fil0" d="M21015.5 22721.69c466.01,250.01 782.96,741.78 782.96,1307.63 0,819.05 -663.97,1483.02 -1483.02,1483.02 -819.05,0 -1483.02,-663.97 -1483.02,-1483.02 0,-533.55 281.81,-1001.22 704.66,-1262.47l0 -2332.24c0,-406.56 332.64,-739.2 739.2,-739.2l0 0c406.57,0 739.2,332.64 739.2,739.2l0 2287.08z"/>
   <path class="fil0" d="M5517.54 4040.79l12062.15 0c379.98,0 690.87,310.89 690.87,690.87l0 18860.09c0,379.98 -310.89,690.87 -690.87,690.87l-6472.83 0 4.17 -9115.73 2.09 0 0 -0.7c0,-566.99 -231.63,-1081.98 -604.73,-1455.02 -371.79,-371.72 -886.79,-602.52 -1455.16,-602.78l0 -2.1 -0.7 0c-565.96,0 -1075.16,230.07 -1446.19,601.1 -370.3,370.3 -602,884.23 -612.31,1451.11l-93.56 5137.29c-11.13,569.2 -53.29,933.35 -117.73,1135.42 -105.64,-99.35 -228.26,-252.37 -360.31,-442.23 -755.94,-1086.85 -1548.95,-3045.7 -1595.75,-3688.89l0 -18 0 -10156.17 0 -2394.26c0,-379.98 310.89,-690.87 690.87,-690.87zm3535.69 10140.15c0,-65.88 985.24,111.96 985.24,985.95 995.84,0 -4933.83,-985.95 -985.24,-985.95zm2520.72 -8008.12c1557.89,0 2961.19,661.05 3945.43,1717.64l-640.5 640.5c-819.99,-892.98 -1997.02,-1452.85 -3304.93,-1452.85 -1317.29,0 -2501.94,567.8 -3322.64,1471.98l-640.55 -640.55c985.08,-1067.73 2395.92,-1736.72 3963.19,-1736.72zm0 4583.03c446.41,0 808.29,361.89 808.29,808.3 0,446.41 -361.89,808.3 -808.29,808.3 -446.41,0 -808.3,-361.89 -808.3,-808.3 0,-446.41 361.89,-808.3 808.3,-808.3zm0 -1883.33c812.43,0 1540.78,359.96 2034.3,929.07l-602.44 602.44c-337.89,-416.52 -853.74,-682.8 -1431.86,-682.8 -587.53,0 -1110.83,274.96 -1448.3,703.21l-602.91 -602.91c493.71,-580.57 1229.38,-949.01 2051.2,-949.01zm0 -1349.85c1185.15,0 2251.15,510.15 2990.4,1322.82l-629.76 629.76c-577.54,-652.18 -1420.99,-1063.46 -2360.64,-1063.46 -949.03,0 -1800.05,419.44 -2377.96,1082.98l-629.78 -629.78c739.88,-823.92 1813.21,-1342.31 3007.75,-1342.31z"/>
   <path class="fil0" d="M1242.64 39371.7l6851.78 -507.54 -64.48 -2436.39c-8.04,-569.73 236.27,-2492.41 907.09,-3681.04 1410.52,-1820.77 1660.39,-4470.55 1633.94,-7009.8l4.83 -10570.05c0.38,-837.81 -685.47,-1523.28 -1523.27,-1523.28l-0 0c-837.8,0 -1508.03,685.61 -1523.28,1523.28l-93.56 5139.39c-94.8,4847.41 -3106.06,-1760.61 -3146.34,-3024.2l0 -9423.17c-2849.07,908.85 -3329.72,6182.43 -3433.83,10388.93 -160.82,5083.62 -1468.36,5568.75 -507.72,10631.26l911.94 5130.7 -17.1 5361.91z"/>
  </g>
 </g>
</svg>
