<?xml version="1.0" encoding="UTF-8"?>
<!DOCTYPE svg PUBLIC "-//W3C//DTD SVG 1.1//EN" "http://www.w3.org/Graphics/SVG/1.1/DTD/svg11.dtd">
<!-- Creator: CorelDRAW 2020 (64-Bit) -->
<svg xmlns="http://www.w3.org/2000/svg" xml:space="preserve" width="39.3701in" height="39.3701in" version="1.1" style="shape-rendering:geometricPrecision; text-rendering:geometricPrecision; image-rendering:optimizeQuality; fill-rule:evenodd; clip-rule:evenodd"
viewBox="0 0 39370.08 39370.08"
 xmlns:xlink="http://www.w3.org/1999/xlink"
 xmlns:xodm="http://www.corel.com/coreldraw/odm/2003">
 <defs>
  <style type="text/css">
   <![CDATA[
    .fil0 {fill:#282829}
   ]]>
  </style>
 </defs>
 <g id="Layer_x0020_1">
  <metadata id="CorelCorpID_0Corel-Layer"/>
  <g id="_2251241353984">
   <path class="fil0" d="M27662 2475.1c5085.37,0 9207.87,4122.5 9207.87,9207.87 0,5085.36 -4122.5,9207.86 -9207.87,9207.86 -5085.36,0 -9207.87,-4122.5 -9207.87,-9207.86 0,-5085.37 4122.5,-9207.87 9207.87,-9207.87zm0 1175.67c4436.06,0 8032.2,3596.14 8032.2,8032.2 0,4436.06 -3596.14,8032.21 -8032.2,8032.21 -4436.06,0 -8032.2,-3596.15 -8032.2,-8032.21 0,-4436.06 3596.15,-8032.2 8032.2,-8032.2z"/>
   <path class="fil0" d="M27662 1.63c6451.43,0 11681.34,5229.92 11681.34,11681.34 0,5826.47 -4265.93,10656.06 -9844.7,11537.19l0 2671.56c658.89,0 1197.98,539.09 1197.98,1197.98l0 10999.12c0,705.59 -577.3,1282.89 -1282.89,1282.89l-3518.37 0c-688.82,0 -1255.27,-550.2 -1281.81,-1232.83l-24590.06 0 0 -30086.31 1152.16 0 0 1830.65 1917.62 0 0 -3662.83 4865.26 0 0 3662.83 1291.87 0 0 -3662.83 4865.26 0 0 3662.83 645.35 0 0 1152.16 -13585.35 0 0 6868.24 1295.07 0 0 -5537.62 4865.26 0 0 5537.62 1914.42 0 0 -5537.62 4865.26 0 0 5537.62 1831.21 0 0 1152.16 -14771.21 0 0 7462.65 1314.39 0 0 -3044.31 1231.37 0 0 -3124.49 12257.5 0 0 1152.15 0 1972.34 6160.87 0 0 3044.31 1199.55 0 0 1152.16 -22163.67 0 0 4999.53 1302 0 0 -3687.38 3633.62 0 0 3687.38 1297.72 0 0 -3687.38 3633.62 0 0 3687.38 1281.76 0 0 -3687.38 3633.62 0 0 3687.38 1297.72 0 0 -3687.38 3633.62 0 0 3687.38 2434.8 0 0 1152.15 -22148.47 0 0 3164.46 23436.83 0 0 -9812.12c0,-705.59 577.29,-1282.89 1282.89,-1282.89l0 -2660.28c-5613.12,-851.53 -9914.71,-5697.6 -9914.71,-11548.47 0,-6451.43 5229.92,-11681.34 11681.34,-11681.34zm684.48 25890.09l0 -2547.89c-226.52,13.19 -454.65,20.48 -684.48,20.48 -206.13,0 -410.97,-5.5 -614.48,-16.05l0 2543.46 1298.96 0zm-2569.76 9877.96l1275.64 0 0 1152.15 -1275.64 0 0 1285.41 3755.64 0 0 -11151.09 -3755.64 0 0 1319.2 1275.64 0 0 1152.16 -1275.64 0 0 6242.17zm-6039.56 -5634.8l-1329.3 0 0 2535.22 1329.3 0 0 -2535.22zm-4931.33 0l-1329.31 0 0 2535.22 1329.31 0 0 -2535.22zm-4915.38 0l-1329.31 0 0 2535.22 1329.31 0 0 -2535.22zm-4931.34 0l-1329.31 0 0 2535.22 1329.31 0 0 -2535.22zm-85.55 -6660.77l2560.94 0 0 -1972.34 -2560.94 0 0 1972.34zm3713.1 0l2526.98 0 0 -1972.34 -2526.98 0 0 1972.34zm3679.14 0l2560.94 0 0 -1972.34 -2560.94 0 0 1972.34zm2481.72 1152.15l0 1892.15 2526.98 0 0 -1892.15 -2526.98 0zm-1152.15 1892.15l0 -1892.15 -2560.94 0 0 1892.15 2560.94 0zm-3713.1 0l0 -1892.15 -2526.98 0 0 1892.15 2526.98 0zm11105.34 -1892.15l-2560.94 0 0 1892.15 2560.94 0 0 -1892.15zm-17345.42 1892.15l2560.94 0 0 -1892.15 -2560.94 0 0 1892.15zm-19.31 -8614.81l2560.94 0 0 -4385.46 -2560.94 0 0 4385.46zm6779.67 0l2560.94 0 0 -4385.46 -2560.94 0 0 4385.46zm0 -8020.39l2560.94 0 0 -2510.67 -2560.94 0 0 2510.67zm-6157.13 0l2560.94 0 0 -2510.67 -2560.94 0 0 2510.67zm23416.57 -8704.41c5801.28,0 10504.15,4702.87 10504.15,10504.15 0,5801.29 -4702.87,10504.15 -10504.15,10504.15 -5801.27,0 -10504.15,-4702.86 -10504.15,-10504.15 0,-5801.28 4702.88,-10504.15 10504.15,-10504.15z"/>
   <path class="fil0" d="M22771.33 6812.41l9793.33 0 0 9793.33 -9793.33 0 0 -9793.33zm5495.65 1180.94l0 1207.65 -1198.02 0 0 -1207.65 -3116.69 0 0 7431.41 7431.41 0 0 -7431.41 -3116.7 0z"/>
   <rect class="fil0" transform="matrix(4.0975E-14 -1.50281 1.43269 3.68573E-14 27750.9 14111.2)" width="766.67" height="1650.65"/>
  </g>
 </g>
</svg>
