<?xml version="1.0" encoding="UTF-8"?>
<!DOCTYPE svg PUBLIC "-//W3C//DTD SVG 1.1//EN" "http://www.w3.org/Graphics/SVG/1.1/DTD/svg11.dtd">
<!-- Creator: CorelDRAW 2020 (64-Bit) -->
<svg xmlns="http://www.w3.org/2000/svg" xml:space="preserve" width="39.3701in" height="21.4018in" version="1.1" style="shape-rendering:geometricPrecision; text-rendering:geometricPrecision; image-rendering:optimizeQuality; fill-rule:evenodd; clip-rule:evenodd"
viewBox="0 0 39370.08 21401.81"
 xmlns:xlink="http://www.w3.org/1999/xlink"
 xmlns:xodm="http://www.corel.com/coreldraw/odm/2003">
 <defs>
  <style type="text/css">
   <![CDATA[
    .fil2 {fill:#0A2872;fill-rule:nonzero}
    .fil0 {fill:#0A2872;fill-rule:nonzero}
    .fil1 {fill:#FFB10C;fill-rule:nonzero}
   ]]>
  </style>
 </defs>
 <g id="Layer_x0020_1">
  <metadata id="CorelCorpID_0Corel-Layer"/>
  <g id="_2637362989840">
   <path class="fil0" d="M12658.31 8355.52c-518.89,-951.5 -1517.04,-1675.72 -2731.12,-1948.64 1003.98,-582.15 1663.49,-1564.09 1663.49,-2677.41 0,-1758.96 -1646.08,-3190.17 -3696.43,-3234.64l0 -1.09 -4877.52 0 -196.85 0 -2821.52 0 0 12901.91 2449.69 0 568.68 0 4993.58 0c144.46,13.39 292.56,20.5 444.41,20.5 1917.35,0 3502.99,-867.76 4203.58,-2112.69l0 -2947.95zm-9641.57 -6163.94l0 0 1439.52 0 2159.83 0c1015.46,0 1838.64,826.23 1838.64,1845.47 0,1019.24 -823.19,1845.48 -1838.64,1845.48l-1652.24 0c1.93,1.82 3.93,3.59 5.86,5.41l-1952.96 0 0 -3696.36zm4677.96 9470.64l0 0 -2558.74 0 -2119.22 0 0 -4016.24 2543.72 0 2134.24 0c1194.38,0 2162.6,899.06 2162.6,2008.11 0,1109.11 -968.22,2008.13 -2162.6,2008.13z"/>
   <path class="fil0" d="M24112.54 6889.34c0,-1194.28 337.18,-2317.41 930.11,-3296.38 -1285.58,-1852.58 -3601.49,-3088.96 -6245.06,-3088.96l-3029.31 0 -1038.93 0 -2071.03 0 0 12901.9 2071.03 0 1038.93 0 3029.31 0c2673.14,0 5011.07,-1264.27 6287.61,-3151.46 -619.13,-995.02 -972.66,-2142.74 -972.66,-3365.1zm-5701.46 4786.72l0 0 -2642.81 0 0 -9474.23 2642.81 0c2318.35,0 4197.76,2120.89 4197.76,4737.1 0,2616.25 -1879.41,4737.13 -4197.76,4737.13z"/>
   <path class="fil1" d="M39368.45 6885.24c0,3801.7 -3415.14,6883.6 -7627.95,6883.6 -4212.81,0 -7627.96,-3081.91 -7627.96,-6883.6 0,-3801.71 3415.15,-6883.62 7627.96,-6883.62 4212.81,0 7627.95,3081.91 7627.95,6883.62zm-7591.34 -5315.67l0 0c-2436.18,0 -4411.06,2376.04 -4411.06,5306.95 0,2930.97 1974.88,5306.98 4411.06,5306.98 2436.19,0 4411.07,-2376.02 4411.07,-5306.98 0,-2930.91 -1974.88,-5306.95 -4411.07,-5306.95z"/>
   <path class="fil2" d="M32405.35 16972.44c0,-22.38 16.65,-38.8 38.38,-38.8l154.1 0c54.34,0 96.5,16.11 124.43,43.34 22.93,24.16 35.8,56.03 35.8,94.17l0 1.39c0,69.7 -39.7,111.3 -97.88,129.52l82.62 104.98c7.26,9.41 12.49,17.81 12.49,29.72 0,20.61 -18.07,35.02 -36.65,35.02 -17.16,0 -28.23,-8.04 -36.98,-19.59l-104.84 -134.75 -95.61 0 0 116.55c0,21.35 -16.7,37.79 -37.48,37.79 -21.72,0 -38.38,-16.44 -38.38,-37.79l0 -361.55zm187.11 177.07l0 0c54.15,0 88.35,-28.68 88.35,-73.14l0 -1.02c0,-46.19 -32.99,-71.71 -89.02,-71.71l-110.59 0 0 145.87 111.26 0z"/>
   <path class="fil2" d="M32889.25 17152.63c0,183.44 -147.5,332.53 -329.75,332.53 -182.11,0 -330.02,-149.09 -330.02,-332.53 0,-183.67 147.91,-332.41 330.02,-332.41 182.25,0 329.75,148.73 329.75,332.41zm-329.75 -394.68l0 0c-216.48,0 -391.61,176.41 -391.61,394.68 0,218.46 175.13,394.8 391.61,394.8 216.26,0 391.58,-176.34 391.58,-394.8 0,-218.27 -175.32,-394.68 -391.58,-394.68z"/>
   <path class="fil2" d="M78.43 17381.04c-14.08,-33.12 -23.46,-75.76 -23.46,-113.59 0,-160.89 136.14,-283.9 295.73,-283.9 140.82,0 248.8,89.89 286.36,212.94l755.76 2276.06 741.7 -2266.6c46.93,-137.25 145.52,-231.87 291.04,-231.87l42.24 0c145.52,0 248.8,94.62 291.04,231.87l741.7 2266.6 755.77 -2280.81c42.26,-118.3 140.83,-208.19 281.65,-208.19 154.93,0 286.36,123.01 286.36,279.17 0,37.85 -14.08,85.2 -28.16,118.33l-971.72 2744.54c-51.64,146.72 -159.6,241.31 -300.43,241.31l-56.33 0c-140.83,0 -244.11,-89.89 -295.74,-241.31l-732.3 -2162.52 -732.3 2162.52c-51.63,151.42 -159.6,241.31 -300.44,241.31l-56.33 0c-140.81,0 -244.09,-89.89 -300.43,-241.31l-971.72 -2744.54z"/>
   <path class="fil2" d="M6211.35 20376.4c-718.22,0 -1272.15,-525.26 -1272.15,-1296.59l0 -9.46c0,-714.5 502.29,-1301.3 1211.12,-1301.3 788.63,0 1178.25,653.03 1178.25,1230.34 0,160.89 -122.05,274.44 -267.57,274.44l-1553.78 0c61.02,406.96 347.37,634.09 713.52,634.09 239.41,0 427.18,-85.17 586.79,-217.68 42.24,-33.12 79.8,-52.05 145.52,-52.05 126.73,0 225.31,99.35 225.31,231.85 0,70.98 -32.86,132.52 -75.1,175.11 -225.33,203.48 -506.99,331.24 -891.9,331.24zm563.31 -1481.16l0 0c-37.56,-369.08 -253.5,-657.74 -629.02,-657.74 -347.39,0 -591.48,269.74 -643.11,657.74l1272.14 0z"/>
   <path class="fil2" d="M9645.08 18313.21l-98.57 0c-131.44,0 -239.42,-104.08 -239.42,-236.6 0,-132.5 107.98,-241.32 239.42,-241.32l98.57 0 0 -184.54c0,-274.44 70.42,-482.65 201.86,-615.15 131.44,-132.52 314.51,-198.77 558.61,-198.77 112.65,0 206.54,9.46 286.35,23.66 103.27,14.2 197.15,108.86 197.15,236.6 0,132.52 -107.96,241.32 -239.4,236.59 -32.86,-4.73 -79.8,-9.46 -117.35,-9.46 -215.94,0 -328.6,118.33 -328.6,378.56l0 137.23 441.25 0c136.13,0 239.41,104.1 239.41,236.61 0,132.52 -107.97,236.6 -239.41,236.6l-431.87 0 0 1746.14c0,156.16 -126.75,283.9 -286.35,283.9 -154.9,0 -281.66,-127.74 -281.66,-283.9l0 -1746.14zm1628.91 -1164.02l0 0c0,-170.38 140.83,-279.24 323.91,-279.24 183.06,0 323.9,108.86 323.9,279.24l0 28.37c0,170.36 -140.84,283.9 -323.9,283.9 -183.08,0 -323.91,-113.54 -323.91,-283.9l0 -28.37zm42.26 932.17l0 0c0,-160.91 122.04,-288.66 281.65,-288.66 159.59,0 286.34,127.74 286.34,288.66l0 1977.99c0,160.89 -126.76,283.9 -286.34,283.9 -154.91,0 -281.65,-123 -281.65,-283.9l0 -1977.99z"/>
   <path class="fil2" d="M12611.14 18081.36c0,-160.91 122.06,-288.66 281.66,-288.66 159.6,0 286.34,127.74 286.34,288.66l0 123.06c159.61,-231.89 389.62,-435.37 774.56,-435.37 558.61,0 882.52,378.54 882.52,955.83l0 1334.47c0,160.89 -122.05,283.9 -281.65,283.9 -159.6,0 -286.35,-123 -286.35,-283.9l0 -1159.36c0,-388.03 -192.47,-610.43 -530.44,-610.43 -328.61,0 -558.63,231.87 -558.63,619.9l0 1149.9c0,160.89 -126.74,283.9 -286.34,283.9 -154.91,0 -281.66,-123 -281.66,-283.9l0 -1977.99z"/>
   <path class="fil2" d="M18233.61 20059.35c0,160.89 -126.72,283.9 -281.62,283.9 -159.62,0 -286.34,-123 -286.34,-283.9l0 -156.18c-183.08,260.24 -441.27,468.53 -844.96,468.53 -582.12,0 -1150.07,-468.53 -1150.07,-1296.62l0 -9.46c0,-828.12 558.59,-1296.57 1150.07,-1296.57 408.38,0 666.58,203.48 844.96,440.08l0 -1083.67c0,-160.85 126.72,-283.91 281.68,-283.91 159.57,0 286.29,123.06 286.29,283.91l0 2933.89zm-1990.31 -993.74l0 0 0 9.46c0,482.65 328.57,799.72 713.5,799.72 380.23,0 718.24,-321.81 718.24,-799.72l0 -9.46c0,-482.65 -338.01,-799.73 -718.24,-799.73 -389.61,0 -713.5,302.91 -713.5,799.73z"/>
   <path class="fil2" d="M20809.13 20036.22l-666.58 -1902.23c-14.11,-37.88 -28.16,-99.42 -28.16,-146.72 0,-137.25 107.96,-265 276.94,-265 140.83,0 234.71,94.64 276.97,227.14l478.79 1514.22 483.52 -1514.22c42.24,-132.5 145.49,-227.14 291.05,-227.14l32.84 0c145.54,0 248.81,94.64 291.05,227.14l488.21 1514.22 483.5 -1518.95c37.57,-123.06 126.74,-222.41 276.96,-222.41 154.91,0 267.55,123.01 267.55,265 0,42.57 -14.05,99.38 -23.44,127.77l-675.98 1921.18c-61.02,175.11 -178.4,255.53 -314.52,255.53l-18.76 0c-140.85,0 -258.2,-80.43 -309.81,-246.07l-483.52 -1485.82 -488.21 1485.82c-51.63,165.65 -169,246.07 -305.13,246.07l-18.78 0c-140.83,0 -258.18,-80.43 -314.5,-255.53z"/>
   <path class="fil2" d="M24282.24 19529.93l0 -9.46c0,-539.48 417.8,-804.45 1023.31,-804.45 277,0 474.16,42.59 666.61,104.08l0 -61.5c0,-354.93 -215.93,-544.19 -614.93,-544.19 -215.95,0 -394.33,37.83 -549.26,99.37 -32.84,9.46 -61,14.2 -89.18,14.2 -131.43,0 -239.41,-104.13 -239.41,-236.58 0,-104.13 70.44,-194.02 154.91,-227.19 234.73,-89.89 474.13,-146.65 798.04,-146.65 370.85,0 647.8,99.35 821.49,279.15 183.06,179.82 267.58,444.82 267.58,771.33l0 1230.34c0,156.16 -122.07,274.43 -276.94,274.43 -164.33,0 -276.97,-113.54 -276.97,-241.31l0 -94.64c-168.98,203.48 -427.21,364.39 -807.41,364.39 -464.74,0 -877.83,-269.76 -877.83,-771.33zm1699.3 -179.81l0 0 0 -170.39c-145.52,-56.76 -337.97,-99.39 -563.31,-99.39 -366.13,0 -582.09,156.18 -582.09,416.46l0 9.46c0,241.33 211.28,378.52 483.52,378.52 375.54,0 661.88,-217.67 661.88,-534.67z"/>
   <path class="fil0" d="M27393.97 21332.49c-84.52,-28.4 -178.4,-99.4 -178.4,-236.61 0,-141.98 107.99,-236.63 230.05,-236.63 46.92,0 75.07,9.46 103.25,18.93 65.7,18.95 117.38,33.17 197.17,33.17 175.58,-3.3 349.51,-449.59 422.49,-648.01l18.76 -52.03 -920.08 -2072.63c-18.76,-42.59 -32.82,-99.4 -32.82,-137.24 0,-160.91 122.04,-279.19 281.66,-279.19 145.49,0 225.32,85.19 276.94,217.7l666.59 1660.91 619.62 -1660.91c46.96,-118.35 126.77,-217.7 272.26,-217.7 150.22,0 272.29,118.28 272.29,269.73 0,47.3 -14.11,108.86 -23.5,137.24l-905.98 2190.93c-211.24,511.05 -506.96,1083.28 -905.97,1083.28 -159.61,0 -276.96,-23.66 -394.33,-70.95z"/>
   <path class="fil2" d="M30218.48 19998.38c-61.04,-33.12 -107.94,-104.13 -107.94,-198.77 0,-127.77 98.57,-231.85 229.98,-231.85 46.94,0 89.2,14.19 122.06,33.12 239.4,160.89 488.19,241.31 713.53,241.31 244.13,0 384.93,-104.08 384.93,-269.7l0 -9.44c0,-194.04 -262.89,-260.26 -553.94,-350.19 -366.14,-104.06 -774.52,-255.53 -774.52,-733.5l0 -9.46c0,-473.18 389.62,-761.79 882.51,-761.79 262.87,0 539.86,75.68 779.23,203.45 79.81,42.59 136.14,118.28 136.14,217.68 0,132.47 -103.26,231.87 -234.74,231.87 -46.92,0 -75.07,-9.46 -112.63,-28.39 -201.87,-104.13 -408.42,-170.36 -582.14,-170.36 -220.58,0 -347.33,104.06 -347.33,246.04l0 9.49c0,184.53 267.6,260.24 558.62,354.91 361.44,113.52 769.84,279.17 769.84,728.74l0 9.46c0,525.22 -403.72,785.46 -920.08,785.46 -314.5,0 -657.19,-99.35 -943.53,-298.07z"/>
  </g>
 </g>
</svg>
