<?xml version="1.0" encoding="UTF-8"?>
<!DOCTYPE svg PUBLIC "-//W3C//DTD SVG 1.1//EN" "http://www.w3.org/Graphics/SVG/1.1/DTD/svg11.dtd">
<!-- Creator: CorelDRAW 2020 (64-Bit) -->
<svg xmlns="http://www.w3.org/2000/svg" xml:space="preserve" width="39.3701in" height="16.328in" version="1.1" style="shape-rendering:geometricPrecision; text-rendering:geometricPrecision; image-rendering:optimizeQuality; fill-rule:evenodd; clip-rule:evenodd"
viewBox="0 0 39370.08 16327.99"
 xmlns:xlink="http://www.w3.org/1999/xlink"
 xmlns:xodm="http://www.corel.com/coreldraw/odm/2003">
 <defs>
  <style type="text/css">
   <![CDATA[
    .fil1 {fill:#20776C}
    .fil0 {fill:#25AD8C}
    .fil2 {fill:#3D495E}
    .fil4 {fill:#92C256}
    .fil3 {fill:#C5D76A}
   ]]>
  </style>
 </defs>
 <g id="Layer_x0020_1">
  <metadata id="CorelCorpID_0Corel-Layer"/>
  <g id="_2377376849488">
   <path class="fil0" d="M5266.21 5207.89l9.65 5184.97c856.2,0 1712.62,-1.91 2568.79,0.05 573.68,1.31 1087.5,-141.48 1498.41,-445.8 62.98,-46.64 116.79,-84.76 175.81,-136.65 364.77,-320.56 472.5,-448.64 710.15,-921.59 133.6,-265.88 244.32,-689.43 255.29,-1063.99 24.94,-851.52 -1.14,-1748.29 -1.14,-2604.98 0,-866.13 11.84,-1740.2 1.39,-2605.22 -4.26,-352.13 -111.5,-803.73 -232.24,-1052.32 -90.51,-186.33 -227.76,-454.99 -367.93,-604.17 -548.83,-584.02 -1066.18,-949.59 -2004.95,-946.07 -869.06,3.25 -1738.76,0.1 -2607.88,0.1l-5.33 5195.67z"/>
   <polygon class="fil1" points="67.8,5204.63 124.69,5209.19 5266.21,5207.89 5271.55,12.22 67.8,12.22 "/>
   <path class="fil2" d="M26175.65 6816.92c724.42,0 1467.44,-16.56 2189.29,-2.07 664.77,13.35 723.66,1043.61 -106.22,1043.61l-1978.92 0c-146.43,0 -69.43,-54.05 -69.43,-138.87l0 -798.52c0,-132.74 10.66,-12.63 -34.72,-104.16zm-1041.54 -555.48l0 3818.96c0,397.95 386.36,312.46 798.51,312.46 313.36,0 278.53,-375.56 277.79,-694.31 -0.59,-254.15 51.38,-757.89 -34.76,-937.42 381.74,0 765.26,3.6 1146.78,-1.09 315.2,-3.87 270.84,-1.44 410.64,179.57l823.47 912.43c107.04,138.59 181.25,185.85 281.81,308.38 258.08,314.43 304.52,232.45 1017.39,232.45 162.07,0 243.03,-80.94 243.03,-243.02 0,-172.75 -447.33,-604.51 -581.83,-737.44 -126.2,-124.73 -565.07,-576.86 -598.59,-720.71 289.13,-6.44 561.5,-245.93 737.83,-442.58 580.3,-647.21 417.67,-2369.56 -1223.88,-2369.56l-2985.74 0c-213.11,0 -312.46,165.24 -312.46,381.9z"/>
   <path class="fil2" d="M16107.46 3588.16l-1805.32 0 0 -2673.28 1597.01 0c1167.44,0 1586.41,999.82 1289.65,1879.85 -148.66,440.84 -571.39,793.43 -1081.34,793.43zm-2846.87 -3298.2l0 3957.84c0,167.93 109.81,277.74 277.74,277.74l2534.41 0c1983.37,0 2688.75,-1859.09 2103.55,-3249.23 -221.66,-526.53 -565.3,-833.36 -1084.24,-1068.26 -232.79,-105.36 -593.38,-195.83 -915.14,-195.83l-2638.57 0c-167.93,0 -277.74,109.81 -277.74,277.74z"/>
   <path class="fil2" d="M15899.15 9490.2l-1597.01 0 0 -2673.28c615.08,0 1858.25,-83.13 2280.93,114.61 814.35,380.98 906.42,1592.15 332.89,2186.74 -229.67,238.11 -562.5,371.92 -1016.8,371.92zm-2638.56 -3332.91l0 4027.27c0,83.59 124.71,208.3 208.31,208.3l2777.43 0c297.75,0 621.11,-102.78 848.55,-193 1197.7,-475.07 1530.52,-1924.53 1081.67,-3056.49 -311.04,-784.4 -1211.26,-1263.83 -2069.08,-1263.83l-2569.13 0c-167.93,0 -277.74,109.81 -277.74,277.75z"/>
   <path class="fil3" d="M5249.76 10392.86c-98.75,-222.92 -4929.99,-4893.34 -5125.07,-5183.67l-56.89 -4.56 0 5188.22 5181.96 0z"/>
   <path class="fil2" d="M31140.31 6192l0 3923.12c0,167.93 109.81,277.74 277.74,277.74l4061.99 0c256.24,0 208.31,-458.96 208.31,-624.92 0,-247.59 -201.69,-312.46 -451.33,-312.46l-3055.18 0 0 -867.94 2291.39 0c343.74,0 277.74,-358.2 277.74,-659.64 0,-167.93 -109.81,-277.74 -277.74,-277.74l-2291.39 0 0 -833.23 3159.33 0c417.65,0 347.18,-257.8 347.18,-659.63 0,-206.94 -140.12,-277.75 -347.18,-277.75l-3888.4 0c-171.59,0 -312.46,140.87 -312.46,312.46z"/>
   <path class="fil2" d="M19440.39 289.96l0 3957.84c0,167.93 109.81,277.74 277.74,277.74l3992.56 0c392.99,0 402.26,-937.38 -34.72,-937.38l-3194.05 0 0 -867.94 2187.23 0c468.79,0 381.9,-335.48 381.9,-659.64 0,-167.93 -109.81,-277.74 -277.75,-277.74l-2291.38 0 0 -833.23 3055.18 0c510.99,0 451.33,-247.42 451.33,-590.2 0,-207.06 -70.81,-347.18 -277.74,-347.18l-3992.56 0c-167.93,0 -277.74,109.81 -277.74,277.74z"/>
   <path class="fil4" d="M5249.76 10392.86l26.1 0 -9.65 -5184.97 -5141.52 1.3c195.07,290.33 5026.32,4960.75 5125.07,5183.67z"/>
   <path class="fil2" d="M23155.2 7997.33l0 243.02c0,1393.54 -2367.15,1791.67 -2998.68,498.99 -286.28,-585.98 -154.7,-1117.26 298.64,-1567.3 520.57,-516.76 1673.98,-610.63 2344.96,69.38 144.11,146.05 355.07,483.86 355.07,755.9zm-4235.58 69.43c0,2263.85 2782.23,3144.65 4528.5,1785.79 752.25,-585.38 1055.72,-1729.22 587.02,-2665.71 -391.89,-783.01 -1274.87,-1376.74 -2233.93,-1376.74 -528,0 -919.61,-11.52 -1412.3,219.44 -514.16,241.02 -668.58,380.54 -991.3,744.59 -85.75,96.74 -171.61,246.65 -234,356.2 -110.15,193.41 -243.98,633.87 -243.98,936.42z"/>
   <path class="fil2" d="M36695.17 1123.19c39.88,171.18 293.2,621.66 381.9,798.5 132.07,263.3 244.8,539.44 381.89,798.52l-1562.3 0c98.16,-185.52 685.56,-1467.09 798.51,-1597.03zm-2430.26 3402.35c671.57,0 716.01,68.7 914.4,-335.44 92.23,-187.86 173.61,-357.89 266.01,-532.5l2499.69 0c32.78,140.71 162.96,394.18 231.25,532.53 199.35,403.85 240.35,335.41 914.43,335.41 621.17,0 -30.94,-944.12 -254.14,-1342.87 -203.63,-363.79 -337.98,-730.71 -551.07,-1080.67l-838.09 -1626.87c-280.22,-560.53 -151.04,-462.91 -1099.4,-462.91 -251.94,0 -337.18,256.99 -428.2,439.75l-914.09 1793.91c-102.59,207.18 -194.56,353.91 -301.03,566.92l-614.01 1191.4c-45.58,90.5 -116.38,203.67 -86.23,328.31 30.69,126.8 120.35,193.04 260.48,193.04z"/>
   <path class="fil2" d="M29126.67 289.96c0,821.51 -59.37,659.64 2048.35,659.64l0 3194.05c0,467.27 356.55,381.89 763.79,381.89 328.94,0 313.83,-329.19 312.57,-659.53 -2.04,-532.5 53.48,-2732.39 -34.83,-2916.41 393.48,0 786.94,0 1180.41,0 877.88,0.01 902.67,30.3 902.67,-590.2 0,-207.06 -70.81,-347.18 -277.74,-347.18l-4617.48 0c-167.93,0 -277.74,109.81 -277.74,277.74z"/>
   <path class="fil2" d="M25099.4 394.12l0 3749.53c0,216.65 99.34,381.89 312.46,381.89l3888.4 0c433.4,0 433.4,-937.38 0,-937.38l-3124.61 0c0,-450.1 62.91,-3243.61 -58,-3448.52 -113.59,-192.52 -381.4,-127.43 -775.24,-127.43 -147.81,0 -243.02,214.83 -243.02,381.9z"/>
   <path class="fil0" d="M2498.06 13968.8l0 -138.87 -416.61 0 0 1840.05 416.61 0 0 -1076.26c0,-458.27 763.8,-583.83 763.8,69.44l0 1006.81 416.61 0 0 -1110.96c0,-437.71 729.08,-483.54 729.08,0l0 1110.96 416.61 0c0,-590.27 98.08,-1347.2 -182.54,-1657.51 -52.42,-57.95 -141.53,-116.4 -204.35,-142.83 -469.61,-197.55 -705.14,51.14 -932.39,203.32 -273.78,-408.85 -687.97,-272.87 -1006.82,-104.16z"/>
   <path class="fil0" d="M30133.5 15288.08c-637.53,0 -520.77,-283.5 -520.77,-798.51 0,-303.73 972.1,-519.28 972.1,277.74 0,268.36 -201.41,520.77 -451.33,520.77zm-520.77 -1353.99c-36.2,-135.54 -8.78,-104.16 -416.62,-104.16l0 2499.69 416.62 0 0 -763.8c1083.77,573.46 1824.54,-775.55 1155.98,-1468.44 -322.11,-333.86 -751.49,-377.33 -1155.98,-163.29z"/>
   <path class="fil0" d="M33952.46 15669.98l347.18 0c22.8,-97.88 290.35,-797.34 381.89,-902.67 66.18,284.08 281,618.59 347.18,902.67l347.18 0c13.46,-161.78 542.08,-1678.92 555.48,-1840.05l-416.61 0c-79.59,165.87 -121.97,378.63 -186.63,577.17 -34.55,106.14 -59.1,203.73 -86.59,295.29l-71.67 206.09c-32.32,70.1 -11.48,30.41 -36.99,67.15 -37.17,-159.51 -154.35,-403.3 -223.17,-575.35 -76.59,-191.52 -146.65,-400.47 -228.17,-570.34 -99.44,72.85 -319.95,710.72 -381.78,868.05 -46.22,117.6 -58.48,185.04 -138.98,277.64l-347.18 -1145.69 -416.61 0c13.77,165.49 215.02,722.04 273.64,906.77 98.41,310.03 209.28,621.76 281.85,933.28z"/>
   <path class="fil0" d="M25967.34 15669.98l347.18 0 347.18 -902.67c92.24,106.13 358.11,800.59 381.89,902.67l347.18 0c73.14,-313.95 194.6,-598.64 277.74,-902.67 43.45,-158.89 91,-290.07 143.54,-446.67 36.09,-107.59 123.78,-365.38 134.2,-490.72l-416.61 0 -347.18 1145.69c-158.7,-182.59 -358.75,-1026.99 -520.76,-1145.69 -23.91,102.59 -392.64,1077.26 -486.05,1145.69l-347.18 -1145.69 -416.61 0 416.61 1354c41.07,150.15 126.31,335.19 138.87,486.04z"/>
   <path class="fil0" d="M102.52 13691.06c0,1016 1145.69,696.04 1145.69,1319.28 0,169.04 -212.43,277.74 -381.9,277.74 -280.82,0 -398.99,-207.67 -555.48,-312.46l-312.46 243.02c141.63,607.97 1701.17,773.8 1701.17,-277.74 0,-717.06 -950.25,-729.79 -1132.07,-1057.77 -147.33,-265.76 46.15,-400.37 368.28,-400.37 187.44,0 268.98,132.69 381.89,208.3l285.11 -305.23c-77.8,-112.42 -170.73,-176.58 -295.71,-239.65 -573.97,-289.61 -1204.52,63.25 -1204.52,544.88z"/>
   <path class="fil0" d="M5622.67 14802.03c0,-882.41 972.1,-586.12 972.1,-312.46l0 520.77c0,323.05 -972.1,489.32 -972.1,-208.31zm-451.33 -69.44c0,687.94 660.75,1236.8 1423.43,833.23l0 104.15 416.61 0 0 -1840.05 -416.61 0c-15.48,181.65 33.13,62.76 -69.44,104.16 -406.35,-353.22 -1353.99,11.8 -1353.99,798.5z"/>
   <path class="fil0" d="M16281.06 15669.98l416.61 0 0 -1110.96c0,-418.63 833.23,-557.96 833.23,138.87l0 972.09 416.61 0c0,-684.02 197,-1874.77 -763.8,-1874.77 -202.52,0 -350.75,102 -486.05,173.59l0 -902.66 -416.61 0 0 2603.84z"/>
   <path class="fil0" d="M36972.91 14211.83l138.87 0c191.09,0 332.11,166.04 347.18,347.18l-867.95 0c16.34,-196.33 186.17,-347.18 381.9,-347.18zm-867.95 520.76c0,717.42 695.44,1178.44 1400.57,879.81 175.64,-74.39 170.45,-133 300.61,-220.17 -76.36,-114.02 -164.24,-236.46 -277.75,-312.46 -106.03,71.01 -444.11,397.47 -809.09,80.02 -116.57,-101.39 -125.41,-126.92 -163.01,-288.32l1388.72 0c0,-310.22 -81.24,-563.17 -221.83,-750.27 -302.21,-402.18 -927.87,-432.07 -1315.74,-58.23 -169.72,163.59 -302.48,431.81 -302.48,669.62z"/>
   <path class="fil0" d="M19127.93 14211.83l138.87 0c203.23,0 342.58,141 347.18,347.18l-867.95 0c16.33,-196.33 186.17,-347.18 381.9,-347.18zm104.15 1492.86c256.14,0 592.7,-126.32 729.07,-312.46 -39.24,-146.98 -166.93,-198.82 -243.02,-312.46 -147.05,98.47 -273.55,208.31 -520.77,208.31 -259.68,0 -435.67,-200.37 -486.05,-416.61l1388.72 0c0,-427.52 -139.2,-798.19 -483.82,-974.35 -602.74,-308.11 -1322.85,131.17 -1333.43,840.26 -7.96,533.84 371.42,967.31 949.29,967.31z"/>
   <path class="fil0" d="M24266.17 14211.83l138.87 0c203.23,0 342.58,141 347.18,347.18l-867.95 0c15.35,-184.42 185.69,-347.18 381.9,-347.18zm-833.23 416.61c0,341.29 -9.55,552.95 285.48,825.49 466.71,431.14 1187.84,226.71 1380.98,-61.7 -39.25,-146.98 -166.94,-198.82 -243.03,-312.46 -137.78,92.26 -259.27,208.31 -486.05,208.31 -291.27,0 -465.65,-180.03 -520.76,-416.61l1388.71 0c0,-1147.79 -1011.73,-1273.64 -1502.66,-843.02 -131.22,115.11 -302.68,367.36 -302.68,599.98z"/>
   <path class="fil0" d="M32355.43 15288.08c-204.31,0 -290.69,9.65 -428.01,-127.48 -501.1,-500.45 196.2,-1310.65 717.13,-786.56 328.49,330.49 66.65,914.04 -289.13,914.04zm-1041.54 -555.49c0,1265.05 1909.48,1311.16 1909.48,0 0,-997.93 -1406.52,-1292.39 -1811.29,-387.84 -32.44,72.51 -98.2,277.39 -98.2,387.84z"/>
   <path class="fil0" d="M21835.91 13968.8l0 -138.87 -416.61 0 0 1840.05 416.61 0 0 -1145.69c0,-227.65 494.27,-493.37 744.24,-154.05 144.03,195.5 88.99,971.96 88.99,1299.73l416.61 0c0,-568.23 89.78,-1285.93 -201.19,-1638.86 -98.6,-119.59 -358.81,-235.91 -562.61,-235.91 -202.52,0 -350.76,102 -486.05,173.59z"/>
   <path class="fil0" d="M12253.78 14315.98c0,252.78 156.67,425.43 312.46,520.77 252.67,154.62 364.3,51.47 520.76,347.18l-84.31 89.27c-251.22,171.84 -451.42,-98.98 -540.61,-158.71 -91.33,48.32 -220.41,130.06 -277.74,208.31 141.76,530.9 1319.28,508.44 1319.28,-104.16 0,-728.46 -604.74,-540.79 -794.89,-807.52 -123.09,-172.68 186.27,-398.99 412.99,-60.42 104.25,-69.8 208.21,-138.5 312.46,-208.31 -69.69,-104.06 -114.37,-186.54 -235.54,-250.51 -252.41,-133.24 -565.51,-119.88 -777.61,70.59 -77.74,69.8 -167.25,214.78 -167.25,353.51z"/>
   <path class="fil0" d="M9129.18 13482.76l0 347.17 -347.18 0c17.22,73.92 29.29,138.19 52.03,225.71 44.95,172.99 1.46,156.19 295.15,156.19 0,458.82 -151.28,1458.15 486.05,1458.15l451.33 0 0 -381.89c-277.41,0 -220.11,19.15 -451.33,-34.72 -114.62,-238.86 -69.44,-697.24 -69.44,-1041.53l486.05 0c12.46,-149.78 65.85,-220.75 69.43,-381.9l-555.48 0 0 -520.76c-168.85,39.33 -247.78,134.24 -416.61,173.59z"/>
   <path class="fil0" d="M14892.34 13552.19l0 277.74 -347.18 0c11.07,133.06 58.36,248.84 69.44,381.9l277.74 0c0,1354.11 -114.54,1458.15 937.38,1458.15l0 -381.89c-619.17,0 -520.77,67.33 -520.77,-1076.25 572,0 454.22,52.75 555.49,-381.9l-555.49 0 0 -520.76c-110.42,25.72 -416.61,133.99 -416.61,243.02z"/>
   <path class="fil0" d="M7948.76 13968.8l0 -138.87 -416.61 0 0 1840.05 416.61 0 0 -1145.69c0,-326.07 372.83,-277.74 590.2,-277.74l0 -416.62c-264.89,-61.71 -406.11,15.6 -590.2,138.87z"/>
   <path class="fil0" d="M38778.24 13968.8l0 -138.87 -416.61 0 0 1840.05 416.61 0 0 -1180.41c0,-272.95 458.96,-243.02 590.21,-243.02l0 -416.62c-276.18,-64.34 -387.15,31.43 -590.21,138.87z"/>
   <polygon class="fil0" points="11385.83,15669.98 11802.45,15669.98 11802.45,13829.93 11385.83,13829.93 "/>
   <path class="fil0" d="M11316.4 13274.45c0,295.66 131.72,243.02 416.61,243.02 314.54,0 64.89,-711.39 -304.24,-409.4 -31.79,26.01 -112.37,131.89 -112.37,166.38z"/>
  </g>
 </g>
</svg>
