<?xml version="1.0" encoding="UTF-8"?>
<!DOCTYPE svg PUBLIC "-//W3C//DTD SVG 1.1//EN" "http://www.w3.org/Graphics/SVG/1.1/DTD/svg11.dtd">
<!-- Creator: CorelDRAW 2020 (64-Bit) -->
<svg xmlns="http://www.w3.org/2000/svg" xml:space="preserve" width="39.3701in" height="39.3701in" version="1.1" style="shape-rendering:geometricPrecision; text-rendering:geometricPrecision; image-rendering:optimizeQuality; fill-rule:evenodd; clip-rule:evenodd"
viewBox="0 0 39370.08 39370.08"
 xmlns:xlink="http://www.w3.org/1999/xlink"
 xmlns:xodm="http://www.corel.com/coreldraw/odm/2003">
 <defs>
  <style type="text/css">
   <![CDATA[
    .str0 {stroke:#373435;stroke-width:7.87;stroke-miterlimit:2.61313}
    .fil0 {fill:black}
   ]]>
  </style>
 </defs>
 <g id="Layer_x0020_1">
  <metadata id="CorelCorpID_0Corel-Layer"/>
  <g id="_2020901952512">
   <path class="fil0 str0" d="M2272.64 1.63l12427.47 0c1250.85,0 2274.27,1023.42 2274.27,2274.27l0 16955.41 -5750.82 0c-779.87,-523.61 -1718.36,-829.22 -2728.3,-829.22 -2706.62,0 -4900.77,2194.16 -4900.77,4900.78 0,2706.62 2194.15,4900.78 4900.77,4900.78 1066.73,0 2053.7,-341.01 2858.28,-919.7l5620.83 0 0 9813.5c0,1250.85 -1023.42,2274.27 -2274.27,2274.27l-12427.47 0c-1250.85,0 -2274.27,-1023.42 -2274.27,-2274.27l0 -34821.54c0,-1250.85 1023.41,-2274.27 2274.27,-2274.27zm4454.61 30861.2l3535.08 0c255.71,0 464.92,209.21 464.92,464.91l0 4456.15c0,255.7 -209.21,464.91 -464.92,464.91l-3535.08 0c-255.71,0 -464.92,-209.21 -464.92,-464.91l0 -4456.15c0,-255.7 209.21,-464.91 464.92,-464.91zm-1806.44 -27907.65c614.96,0 1113.49,498.52 1113.49,1113.49 0,614.96 -498.52,1113.49 -1113.49,1113.49 -614.96,0 -1113.49,-498.53 -1113.49,-1113.49 0,-614.96 498.53,-1113.49 1113.49,-1113.49zm3560.19 10711.6c614.96,0 1113.49,498.53 1113.49,1113.49 0,614.96 -498.53,1113.49 -1113.49,1113.49 -614.96,0 -1113.49,-498.52 -1113.49,-1113.49 0,-614.96 498.52,-1113.49 1113.49,-1113.49zm3587.72 -3553.7c614.97,0 1113.49,498.53 1113.49,1113.49 0,614.96 -498.52,1113.49 -1113.49,1113.49 -614.96,0 -1113.49,-498.52 -1113.49,-1113.49 0,-614.96 498.52,-1113.49 1113.49,-1113.49zm-3587.72 0c614.96,0 1113.49,498.53 1113.49,1113.49 0,614.96 -498.53,1113.49 -1113.49,1113.49 -614.96,0 -1113.49,-498.52 -1113.49,-1113.49 0,-614.96 498.52,-1113.49 1113.49,-1113.49zm-3560.19 0c614.96,0 1113.49,498.53 1113.49,1113.49 0,614.96 -498.52,1113.49 -1113.49,1113.49 -614.96,0 -1113.49,-498.52 -1113.49,-1113.49 0,-614.96 498.53,-1113.49 1113.49,-1113.49zm7147.92 -3604.19c614.97,0 1113.49,498.52 1113.49,1113.49 0,614.96 -498.52,1113.49 -1113.49,1113.49 -614.96,0 -1113.49,-498.53 -1113.49,-1113.49 0,-614.96 498.52,-1113.49 1113.49,-1113.49zm-3587.72 0c614.96,0 1113.49,498.52 1113.49,1113.49 0,614.96 -498.53,1113.49 -1113.49,1113.49 -614.96,0 -1113.49,-498.53 -1113.49,-1113.49 0,-614.96 498.52,-1113.49 1113.49,-1113.49zm-3560.19 0c614.96,0 1113.49,498.52 1113.49,1113.49 0,614.96 -498.52,1113.49 -1113.49,1113.49 -614.96,0 -1113.49,-498.53 -1113.49,-1113.49 0,-614.96 498.53,-1113.49 1113.49,-1113.49zm7147.92 -3553.7c614.97,0 1113.49,498.52 1113.49,1113.49 0,614.96 -498.52,1113.49 -1113.49,1113.49 -614.96,0 -1113.49,-498.53 -1113.49,-1113.49 0,-614.96 498.52,-1113.49 1113.49,-1113.49zm-3587.72 0c614.96,0 1113.49,498.52 1113.49,1113.49 0,614.96 -498.53,1113.49 -1113.49,1113.49 -614.96,0 -1113.49,-498.53 -1113.49,-1113.49 0,-614.96 498.52,-1113.49 1113.49,-1113.49z"/>
   <path class="fil0 str0" d="M36977.26 19705.12c1315.16,0 2391.19,1076.04 2391.19,2391.2l0 2305.33c0,1315.16 -1076.03,2391.19 -2391.19,2391.19 -9513.08,0 -19026.16,0 -28539.24,0 -1946.85,0 -3539.71,-1592.87 -3539.71,-3539.71l0 -4.15c0,-1949.13 1594.73,-3543.86 3543.86,-3543.86 9511.7,0 19023.39,0 28535.09,0z"/>
  </g>
 </g>
</svg>
