<?xml version="1.0" encoding="UTF-8"?>
<!DOCTYPE svg PUBLIC "-//W3C//DTD SVG 1.1//EN" "http://www.w3.org/Graphics/SVG/1.1/DTD/svg11.dtd">
<!-- Creator: CorelDRAW 2020 (64-Bit) -->
<svg xmlns="http://www.w3.org/2000/svg" xml:space="preserve" width="39.3701in" height="39.3701in" version="1.1" style="shape-rendering:geometricPrecision; text-rendering:geometricPrecision; image-rendering:optimizeQuality; fill-rule:evenodd; clip-rule:evenodd"
viewBox="0 0 39370.08 39370.08"
 xmlns:xlink="http://www.w3.org/1999/xlink"
 xmlns:xodm="http://www.corel.com/coreldraw/odm/2003">
 <defs>
  <style type="text/css">
   <![CDATA[
    .fil0 {fill:#023867}
    .fil1 {fill:#023867;fill-rule:nonzero}
   ]]>
  </style>
 </defs>
 <g id="Layer_x0020_1">
  <metadata id="CorelCorpID_0Corel-Layer"/>
  <path class="fil0" d="M-1.63 19686.67l19685.04 -19412.21 19685.04 19412.21 -25.82 25.46 0 -50.93 25.82 25.46 -19685.04 19412.21 -19685.04 -19412.21zm12151.71 -8720.52l15066.67 0 0 9600.01 4440.49 0 -11999.65 11833.33 -11999.65 -11833.33 4492.14 0 0 -9600.01z"/>
  <path class="fil1" d="M20122.02 24197.24l0 854.13 -869.11 0 0 -816.04c-822.44,-66.73 -1964.75,-374.54 -2675,-838 -125.63,-74.65 -130.42,-449.29 -14.39,-636.44 190.42,-225.96 380.83,-451.93 571.25,-677.89 140.77,-142.94 327.37,-127.56 466.05,-3.83 312.17,261.3 1258.98,559.37 1660.41,587.76l33.33 -2226.59c-934.39,-359.72 -1879.25,-765.76 -2219.96,-1184.72 -340.7,-418.97 -512.08,-931.06 -512.08,-1534.13 0,-647.51 221.85,-1200.31 665.09,-1656.86 442.19,-455.46 1336.57,-838.23 2066.95,-912.3l-25 -830.36 869.11 0 25 804.96c842.59,40.2 2004.3,421.53 2401.78,718.98 121.24,128.73 100.8,353.28 1.2,511.18l-538.43 719.55c-142.27,114.66 -401.06,54.9 -562.31,-33.9 -395.47,-217.78 -839.35,-295.15 -1343.91,-351.76l16.67 2273.8c873.19,325.87 1882.87,567.08 2262.33,986.05 379.46,418.97 485.87,1110.16 485.87,1704.77 0,687.71 -212.18,1240 -634.49,1658.97 -422.31,418.97 -1186.57,941.69 -2130.37,882.68zm-831.62 -5479.63l-37.5 -2055.41c-579.92,37.02 -894.89,458.33 -894.89,953.48 0,427.44 239.96,924.6 932.38,1101.93zm810.78 1940.71l29.17 1983.21c571.24,-90.99 951.53,-428.91 948.53,-928.29 -4.16,-693.78 -510.89,-911.73 -977.7,-1054.92z"/>
 </g>
</svg>
