<?xml version="1.0" encoding="UTF-8"?>
<!DOCTYPE svg PUBLIC "-//W3C//DTD SVG 1.1//EN" "http://www.w3.org/Graphics/SVG/1.1/DTD/svg11.dtd">
<!-- Creator: CorelDRAW 2020 (64-Bit) -->
<svg xmlns="http://www.w3.org/2000/svg" xml:space="preserve" width="39.3701in" height="39.3701in" version="1.1" style="shape-rendering:geometricPrecision; text-rendering:geometricPrecision; image-rendering:optimizeQuality; fill-rule:evenodd; clip-rule:evenodd"
viewBox="0 0 39370.08 39370.08"
 xmlns:xlink="http://www.w3.org/1999/xlink"
 xmlns:xodm="http://www.corel.com/coreldraw/odm/2003">
 <defs>
  <style type="text/css">
   <![CDATA[
    .fil0 {fill:#282829}
   ]]>
  </style>
 </defs>
 <g id="Layer_x0020_1">
  <metadata id="CorelCorpID_0Corel-Layer"/>
  <g id="_2021005192800">
   <path class="fil0" d="M5525.81 38183.25l689.87 0 0 -30187.48c0,-315.81 258.39,-574.2 574.2,-574.2l22202.15 0c315.81,0 574.21,258.39 574.21,574.2l0 30187.48 689.87 0c326.82,0 594.22,267.4 594.22,594.22l0 0c0,326.83 -267.41,594.23 -594.22,594.23l-1264.07 0 -1878.39 0 -18445.39 0 -1878.38 0 -1264.07 0c-326.82,0 -594.23,-267.4 -594.23,-594.23l0 0c0,-326.83 267.41,-594.22 594.23,-594.22zm1869.42 0l716.63 0 0 -28393.74c0,-306.05 250.38,-556.42 556.41,-556.42l18445.39 0c306.04,0 556.42,250.37 556.42,556.42l0 28393.74 716.62 0 0 -29573.23 -20991.46 0 0 29573.23zm1842.76 0l8012.02 0 0 -27781.74 -8012.02 0 0 27781.74zm9293.94 0l8012.01 0 0 -27781.74 -8012.01 0 0 27781.74z"/>
   <path class="fil0" d="M17888.8 2413.91l0 0c301.12,0 547.48,246.37 547.48,547.48l0 2011.92 3706.69 0c-280.66,-2099.16 -2078.22,-3718.31 -4254.18,-3718.31 -2175.96,0 -3973.52,1619.16 -4254.18,3718.31l3706.69 0 0 -2011.92c0,-301.12 246.37,-547.48 547.49,-547.48zm5545.87 3133.59c0,315.81 -258.4,574.19 -574.19,574.19l-9943.37 0c-315.81,0 -574.19,-258.39 -574.19,-574.19 0,-3062.9 2482.97,-5545.87 5545.87,-5545.87 3062.9,0 5545.87,2482.97 5545.87,5545.87z"/>
   <path class="fil0" d="M33034.35 19923.92l0.01 0.01 1246.38 1246.37c205.99,206 206,543.09 0,749.08l-0 0c-206,206 -543.09,206 -749.09,0l-871.83 -871.84 -871.85 871.84c-206,206 -543.08,206 -749.08,0l-0.01 -0.01c-206,-206 -206,-543.09 0,-749.08l1246.38 -1246.39 0 -0c3.22,-3.22 6.47,-6.39 9.75,-9.5l0 -0c3.28,-3.12 6.59,-6.19 9.94,-9.2l0 -0.01c3.34,-3.02 6.72,-5.98 10.12,-8.9l0 -0c3.4,-2.91 6.83,-5.78 10.29,-8.6l0 -0c3.46,-2.81 6.95,-5.57 10.46,-8.29l0 -0c3.52,-2.72 7.05,-5.38 10.62,-7.99l0 -0c3.57,-2.62 7.16,-5.18 10.78,-7.69l0 -0c3.62,-2.51 7.26,-4.98 10.93,-7.39l0 -0c3.67,-2.41 7.35,-4.78 11.07,-7.09l0 -0c3.72,-2.31 7.45,-4.57 11.21,-6.78l0 -0c3.76,-2.21 7.54,-4.37 11.34,-6.49l0 -0c3.8,-2.11 7.63,-4.17 11.47,-6.18l0 -0c3.85,-2.01 7.71,-3.97 11.59,-5.88l0 -0c3.88,-1.91 7.78,-3.77 11.7,-5.58l0 -0c3.92,-1.81 7.86,-3.57 11.81,-5.28l0 -0c3.95,-1.71 7.93,-3.37 11.91,-4.98l0 -0c3.99,-1.61 7.99,-3.16 12.01,-4.67l0 -0c8.04,-3.02 16.13,-5.83 24.28,-8.44l0 -0c4.07,-1.31 8.16,-2.56 12.26,-3.77l0 -0c4.1,-1.21 8.21,-2.36 12.33,-3.46l0 -0c16.48,-4.43 33.15,-8.04 49.93,-10.86l0 -0c4.19,-0.7 8.39,-1.36 12.6,-1.96l0 -0c4.21,-0.6 8.42,-1.15 12.64,-1.65l0 -0.01c8.43,-1 16.89,-1.81 25.35,-2.41l0 -0c4.24,-0.3 8.47,-0.55 12.71,-0.75l0 -0c4.24,-0.2 8.48,-0.35 12.72,-0.44l0 -0c4.24,-0.1 8.48,-0.15 12.73,-0.15 4.24,0 8.48,0.05 12.72,0.15l0 0c4.24,0.1 8.48,0.24 12.72,0.44l0 0c4.24,0.2 8.47,0.45 12.71,0.75l0 0c4.23,0.3 8.47,0.65 12.69,1.05l0 0.01c4.23,0.4 8.44,0.85 12.67,1.35l0 0.01c4.22,0.5 8.43,1.05 12.63,1.65l0 0c4.2,0.61 8.4,1.26 12.59,1.96l0.01 0c4.19,0.7 8.38,1.46 12.56,2.26l0 0c4.18,0.8 8.35,1.66 12.51,2.56l0 0c4.17,0.91 8.31,1.85 12.46,2.86l0 0c4.15,1.01 8.27,2.06 12.39,3.17l0 0c4.12,1.11 8.22,2.26 12.33,3.46l0 0c4.1,1.21 8.18,2.46 12.26,3.77l0 0c4.07,1.3 8.13,2.66 12.18,4.07l0 0c4.04,1.41 8.08,2.87 12.09,4.37l0 0c4.02,1.51 8.02,3.06 12.01,4.67l0 0c3.99,1.61 7.96,3.27 11.91,4.98l0 0c3.96,1.71 7.89,3.46 11.81,5.28l0 0c3.92,1.81 7.82,3.67 11.7,5.58l0 0c3.88,1.91 7.74,3.87 11.58,5.88l0 0c3.85,2.01 7.67,4.07 11.46,6.18l0 0c3.8,2.12 7.58,4.28 11.34,6.49l0 0c3.76,2.21 7.5,4.47 11.21,6.78l0 0c3.72,2.31 7.4,4.68 11.07,7.09l0 0c3.67,2.41 7.31,4.87 10.92,7.39l0 0c3.62,2.52 7.21,5.07 10.78,7.69l0 0c3.57,2.61 7.11,5.28 10.62,7.99l0 0c3.51,2.72 7,5.48 10.45,8.29l0 0c3.46,2.82 6.89,5.68 10.3,8.6l0 0c3.4,2.92 6.78,5.88 10.12,8.9l0 0.01c3.34,3.02 6.65,6.07 9.93,9.2l0 0c3.28,3.11 6.53,6.28 9.75,9.5z"/>
   <path class="fil0" d="M33034.34 26819.07l0.01 -0.01 1246.38 -1246.38c205.99,-205.99 206,-543.08 0,-749.08l-0 -0c-206,-206 -543.09,-206 -749.09,0l-871.83 871.84 -871.85 -871.84c-206,-206 -543.08,-206 -749.08,-0l-0.01 0.01c-206,206 -206,543.09 0,749.08l1246.38 1246.39 0 0c3.22,3.22 6.47,6.38 9.75,9.5l0 0c3.28,3.12 6.59,6.18 9.94,9.2l0 0c3.34,3.02 6.72,5.98 10.12,8.9l0 0c3.4,2.91 6.83,5.78 10.29,8.59l0 0.01c3.46,2.81 6.95,5.57 10.46,8.29l0 0c3.52,2.72 7.05,5.37 10.62,7.99l0 0c3.57,2.61 7.16,5.18 10.78,7.69l0 0c3.62,2.51 7.26,4.98 10.93,7.39l0 0c3.67,2.41 7.36,4.77 11.07,7.09l0 0c3.71,2.31 7.45,4.57 11.21,6.78l0 0c3.76,2.21 7.54,4.37 11.34,6.49l0 0c3.8,2.11 7.63,4.17 11.47,6.18l0 0c3.85,2.01 7.7,3.97 11.59,5.88l0 0c3.88,1.91 7.78,3.78 11.7,5.58l0 0c3.92,1.81 7.86,3.57 11.81,5.28l0 0c3.95,1.71 7.93,3.36 11.91,4.98l0 0c3.99,1.61 7.99,3.16 12.01,4.67l0 0.01c8.04,3.01 16.13,5.83 24.28,8.44l0 0c4.08,1.31 8.16,2.56 12.26,3.77l0 0c4.1,1.21 8.21,2.36 12.33,3.46l0 0c16.48,4.43 33.15,8.04 49.93,10.86l0 0c4.19,0.7 8.39,1.36 12.6,1.96l0 0c4.21,0.6 8.42,1.15 12.64,1.65l0 0c8.43,1.01 16.89,1.81 25.35,2.41l0 0.01c4.24,0.3 8.47,0.55 12.71,0.75l0 0c4.24,0.2 8.48,0.34 12.72,0.44l0 0c4.24,0.1 8.48,0.15 12.73,0.15 4.24,0 8.48,-0.05 12.72,-0.15l0 -0c4.24,-0.1 8.48,-0.24 12.72,-0.44l0 -0c4.24,-0.2 8.47,-0.45 12.71,-0.75l0 -0.01c4.23,-0.3 8.46,-0.65 12.69,-1.05l0 -0c4.23,-0.4 8.44,-0.85 12.67,-1.35l0 -0c4.22,-0.5 8.43,-1.05 12.63,-1.65l0 -0c4.2,-0.6 8.4,-1.26 12.59,-1.96l0 -0c4.19,-0.7 8.38,-1.46 12.56,-2.26l0 -0c4.18,-0.8 8.35,-1.66 12.51,-2.56l0 -0c4.17,-0.91 8.31,-1.85 12.46,-2.86l0 -0c4.15,-1.01 8.27,-2.06 12.39,-3.17l0 -0c4.12,-1.11 8.22,-2.26 12.33,-3.46l0 -0c4.1,-1.21 8.18,-2.46 12.26,-3.77l0 -0c4.07,-1.31 8.13,-2.66 12.18,-4.07l0 -0c4.04,-1.41 8.08,-2.87 12.09,-4.37l0 -0.01c4.02,-1.51 8.02,-3.06 12.01,-4.67l0 -0c3.99,-1.61 7.96,-3.27 11.91,-4.98l0 -0c3.95,-1.71 7.89,-3.47 11.81,-5.28l0 -0c3.92,-1.81 7.82,-3.67 11.7,-5.58l0 -0c3.88,-1.91 7.74,-3.87 11.58,-5.88l0 -0c3.84,-2.01 7.66,-4.07 11.46,-6.18l0 -0c3.8,-2.12 7.58,-4.28 11.34,-6.49l0 -0c3.76,-2.21 7.5,-4.47 11.21,-6.78l0 -0c3.71,-2.32 7.4,-4.68 11.07,-7.09l0 -0c3.67,-2.41 7.3,-4.87 10.92,-7.39l0 -0c3.62,-2.52 7.21,-5.08 10.78,-7.69l0 -0c3.57,-2.62 7.1,-5.28 10.62,-7.99l0 -0c3.51,-2.72 7,-5.48 10.45,-8.29l0 -0.01c3.46,-2.81 6.89,-5.68 10.29,-8.59l0 -0c3.41,-2.92 6.78,-5.89 10.12,-8.9l0 -0c3.34,-3.02 6.65,-6.07 9.93,-9.2l0 -0c3.28,-3.12 6.53,-6.28 9.75,-9.5z"/>
  </g>
 </g>
</svg>
