<?xml version="1.0" encoding="UTF-8"?>
<!DOCTYPE svg PUBLIC "-//W3C//DTD SVG 1.1//EN" "http://www.w3.org/Graphics/SVG/1.1/DTD/svg11.dtd">
<!-- Creator: CorelDRAW 2020 (64-Bit) -->
<svg xmlns="http://www.w3.org/2000/svg" xml:space="preserve" width="39.3701in" height="39.3701in" version="1.1" style="shape-rendering:geometricPrecision; text-rendering:geometricPrecision; image-rendering:optimizeQuality; fill-rule:evenodd; clip-rule:evenodd"
viewBox="0 0 39370.08 39370.08"
 xmlns:xlink="http://www.w3.org/1999/xlink"
 xmlns:xodm="http://www.corel.com/coreldraw/odm/2003">
 <defs>
  <style type="text/css">
   <![CDATA[
    .str0 {stroke:#373435;stroke-width:7.87;stroke-miterlimit:2.61313}
    .fil0 {fill:none}
    .fil1 {fill:black}
   ]]>
  </style>
 </defs>
 <g id="Layer_x0020_1">
  <metadata id="CorelCorpID_0Corel-Layer"/>
  <line class="fil0 str0" x1="121378.99" y1="17676.63" x2="121378.99" y2= "20168.56" />
  <g id="_2256270960448">
   <g>
    <path class="fil1" d="M22867.94 6991.49c-0.89,0 -1.78,-0.04 -2.67,-0.04l-0.66 -0.01 3.33 0.04zm-3.33 28138.26c-276.14,0 -550.55,-7.43 -823.13,-21.68l-1189.24 3140.31 -2482.61 -437.76 -43.42 -3354.37c-354.15,-107.9 -702.86,-228.22 -1045.79,-360.21l-2099.45 2616.63 -2225.83 -1183.5 996.15 -3206.48c-301.7,-211.38 -595.5,-433.26 -880.99,-664.98l-2808.48 1841.9 -1751.17 -1813.39 1938.41 -2741.94c-221.7,-293.39 -433.16,-594.96 -634.02,-904.04l-3238.72 883.48 -1105.09 -2265.78 2688.12 -2006.71c-119.76,-347.19 -227.39,-700 -322.78,-1057.84l-3351.33 -160.49 -350.84 -2496.37 3181.03 -1079.3c-1.65,-93.3 -3.54,-186.54 -3.54,-280.22 0,-276.14 7.43,-550.54 21.68,-823.13l-3140.3 -1189.24 437.75 -2482.61 3354.36 -43.42c107.89,-354.17 228.22,-702.87 360.21,-1045.8l-2616.63 -2099.45 1183.5 -2225.82 3206.47 996.15c211.37,-301.72 433.26,-595.5 664.98,-880.99l-1841.9 -2808.48 1813.4 -1751.17 2741.94 1938.4c293.38,-221.73 594.96,-433.17 904.04,-634.02l-883.48 -3238.71 2265.78 -1105.09 2006.7 2688.11c347.17,-119.81 700.02,-227.41 1057.85,-322.78l160.49 -3351.33 2496.37 -350.85 1079.3 3181.03c93.3,-1.66 186.53,-3.54 280.22,-3.54l0 2967.17c-6950.81,0 -12585.57,5634.75 -12585.57,12585.57 0,6950.81 5634.76,12585.57 12585.57,12585.57l0 2967.17z"/>
    <path id="1" class="fil0 str0" d="M22867.94 6991.49c-0.89,0 -1.78,-0.04 -2.67,-0.04l-0.66 -0.01m0 28138.3c-276.14,0 -550.55,-7.43 -823.13,-21.68l-1189.24 3140.31 -2482.61 -437.76 -43.42 -3354.37c-354.15,-107.9 -702.86,-228.22 -1045.79,-360.21l-2099.45 2616.63 -2225.83 -1183.5 996.15 -3206.48c-301.7,-211.38 -595.5,-433.26 -880.99,-664.98l-2808.48 1841.9 -1751.17 -1813.39 1938.41 -2741.94c-221.7,-293.39 -433.16,-594.96 -634.02,-904.04l-3238.72 883.48 -1105.09 -2265.78 2688.12 -2006.71c-119.76,-347.19 -227.39,-700 -322.78,-1057.84l-3351.33 -160.49 -350.84 -2496.37 3181.03 -1079.3c-1.65,-93.3 -3.54,-186.54 -3.54,-280.22 0,-276.14 7.43,-550.54 21.68,-823.13l-3140.3 -1189.24 437.75 -2482.61 3354.36 -43.42c107.89,-354.17 228.22,-702.87 360.21,-1045.8l-2616.63 -2099.45 1183.5 -2225.82 3206.47 996.15c211.37,-301.72 433.26,-595.5 664.98,-880.99l-1841.9 -2808.48 1813.4 -1751.17 2741.94 1938.4c293.38,-221.73 594.96,-433.17 904.04,-634.02l-883.48 -3238.71 2265.78 -1105.09 2006.7 2688.11c347.17,-119.81 700.02,-227.41 1057.85,-322.78l160.49 -3351.33 2496.37 -350.85 1079.3 3181.03c93.3,-1.66 186.53,-3.54 280.22,-3.54l0 2967.17c-6950.81,0 -12585.57,5634.75 -12585.57,12585.57 0,6950.81 5634.76,12585.57 12585.57,12585.57l0 2967.17z"/>
   </g>
   <path class="fil1 str0" d="M22113.67 27841.76l2074.78 0 0 373.04 2319.67 0 101.17 0 0 101.16 0 3022.78 3681.74 0 101.16 0 0 101.16 0 929.4 185.46 0 0 531.11 -185.46 0 -101.16 0 -196.01 0 0 -531.11 196.01 0 0 -929.4 -3681.74 0 -101.17 0 0 -101.16 0 -3022.78 -2319.67 0 0 373.04 -2074.78 0 0 594.16 0 0.01 -287.61 0 -286.37 1399.82 -460.15 -56.97 64.34 -1447.17c-266.29,-42.57 -529.18,-95.82 -787.92,-159.95l-508.29 1355.17 -445.58 -128.28 289.61 -1418.04c-255.74,-83.85 -506.62,-178.74 -752.43,-283.42l-714.48 1259.85 -420.03 -196.42 508.46 -1356.95c-238.79,-122.77 -472.03,-255.02 -698.83,-396.8l-903.38 1133.36 -384.15 -259.72 714.94 -1261.59c-216.26,-158.27 -425.4,-325.85 -627.3,-501.62l-1070.9 979.31 -338.79 -316.63 904.29 -1135.26c-188.74,-189.74 -369.94,-387.14 -542.47,-592.2l-1210.37 799.36 -285.11 -365.75 1069.88 -979.03c-156.74,-216.59 -304.32,-440.35 -442.7,-670.39l-1320.15 599.97 -224.39 -405.85 1209.47 -799.32c-120.71,-238.2 -232.21,-482 -333.22,-731.33l-1396.57 385.69 -158.16 -435.97 1319.08 -599.99c-81.52,-253.6 -152.28,-512.17 -212.59,-774.87l-1441.33 162.59 -88.03 -455.35 1398.8 -386.79c-40.45,-262.48 -70.31,-528.57 -89.1,-797.93l-1450.83 -65.02 -15.73 -463.52 1443.08 -163.26c0.48,-270.01 12.12,-537.55 34.79,-802.13l-1421.81 -291.04 56.95 -460.28 1449.04 64.48c42.47,-266.15 95.41,-528.94 159.56,-787.5l-1356.73 -509.17 128.23 -445.69 1419.5 290.09c83.7,-255.68 178.54,-506.39 282.86,-752.23l-1260.89 -715.47 196.35 -420.14 1357.81 509.07c122.57,-238.82 254.53,-472.12 396.22,-698.86l-1133.82 -904.24 259.65 -384.23 1261.8 715.44c158.1,-216.39 325.61,-425.51 501.07,-627.62l-979.2 -1071.32 316.54 -338.88 1134.84 904.44c189.62,-188.96 386.81,-370.4 591.84,-543l-798.84 -1210.22 365.64 -285.18 978.17 1069.51c216.55,-156.98 440.39,-304.59 670.31,-443.28l-599.31 -1319.35 405.75 -224.45 798.28 1208.51c238.22,-120.99 482.03,-232.74 731.48,-333.8l-385.11 -1395.15 435.85 -158.19 599.01 1317.59c253.73,-81.71 512.47,-152.47 775.26,-213.01l-162.32 -1439.48 455.23 -88.05 386.09 1396.91c262.55,-40.77 354.61,-56.55 624.1,-75.48l64.87 -1448.81 235.97 -10.92 0 541.52 2074.78 0 0 373.04 2319.63 0 0 -2939.53 0 -101.16 101.17 0 3536.4 0 0 -969.54 -190.73 0 0 -531.11 190.73 0 101.17 0 190.73 0 0 531.11 -190.73 0 0 969.54 0 101.16 -101.17 0 -3536.4 0 0 2939.53 0 101.16 -101.17 0 -2319.63 0 0 373.04 -2074.78 0 0 1452.1 2074.78 0 0 373.04 4194.09 0 0 -214.97 482.63 0 0 214.97 0 101.16 0 214.97 -482.63 0 0 -214.97 -4194.09 0 0 373.04 -2074.78 0 0 2052.75 2074.78 0 0 373.04 633.61 0 101.16 0 0 101.17 0 1391.49 7320.36 0 0 -214.98 482.63 0 0 214.98 0 101.16 0 214.97 -482.63 0 0 -214.97 -7320.36 0 -101.16 0 0 -101.16 0 -1391.49 -633.61 0 0 373.04 -2074.78 0 0 3498.29 2074.78 0 0 373.04 11800.25 0 0 -214.98 482.63 0 0 214.98 0 101.16 0 214.97 -482.63 0 0 -214.97 -11800.25 0 0 373.04 -2074.78 0 0 1947.61 2074.78 0 0 373.04 6194.19 0 0 -214.97 482.63 0 0 214.97 0 101.16 0 214.97 -482.63 0 0 -214.97 -6194.19 0 0 373.04 -2074.78 0 0 3022.69 2074.78 0 0 373.04 4044.48 0 0 -214.97 482.63 0 0 214.97 0 101.17 0 214.97 -482.63 0 0 -214.97 -4044.48 0 0 373.04 -2074.78 0 0 1411.59zm-344.61 -3413.17c-1969.06,-325.56 -3531.3,-1856.41 -3903.11,-3809.42l-3146.7 0c390.43,3721.08 3336.07,6680.53 7049.81,7091.18l0 -3281.76zm-3882.56 -5706.22c405.81,-1904.38 1947.76,-3388.03 3882.56,-3707.93l0 -3172.66c-3643.35,402.86 -6547.33,3258.97 -7024.78,6880.58l3142.22 0zm3882.56 -1315.36c-965.65,326.53 -1660.8,1239.31 -1660.8,2314.51 0,1075.19 695.16,1987.98 1660.8,2314.5l0 -4629.01z"/>
  </g>
 </g>
</svg>
