<?xml version="1.0" encoding="UTF-8"?>
<!DOCTYPE svg PUBLIC "-//W3C//DTD SVG 1.1//EN" "http://www.w3.org/Graphics/SVG/1.1/DTD/svg11.dtd">
<!-- Creator: CorelDRAW 2020 (64-Bit) -->
<svg xmlns="http://www.w3.org/2000/svg" xml:space="preserve" width="39.3701in" height="21.9322in" version="1.1" style="shape-rendering:geometricPrecision; text-rendering:geometricPrecision; image-rendering:optimizeQuality; fill-rule:evenodd; clip-rule:evenodd"
viewBox="0 0 39370.08 21932.2"
 xmlns:xlink="http://www.w3.org/1999/xlink"
 xmlns:xodm="http://www.corel.com/coreldraw/odm/2003">
 <defs>
  <style type="text/css">
   <![CDATA[
    .fil0 {fill:#EC1B23}
   ]]>
  </style>
 </defs>
 <g id="Layer_x0020_1">
  <metadata id="CorelCorpID_0Corel-Layer"/>
  <g id="_2342027162928">
   <path id="path5197" class="fil0" d="M16223.58 12021.01l-3874.25 0c45.78,953.46 581.58,1395.39 1383.01,1395.39 595.32,0 1002.9,-335.2 1108.22,-672.71l1268.52 0c-325.13,1153.58 -1268.52,1687.54 -2431.72,1687.54 -1648.63,0 -2674.44,-1134.33 -2674.44,-2754.59 0,-1569.39 1085.35,-2764.67 2674.44,-2764.67 1786.03,0 2646.96,1498.9 2546.21,3109.04zm-2582.85 -2120.75c-806,0 -1218.15,536.22 -1282.26,1222.26l2514.18 0c-96.19,-732.26 -403.02,-1222.26 -1231.92,-1222.26zm19357.64 2120.75l-3874.28 0c41.21,953.46 581.62,1395.39 1378.44,1395.39 599.92,0 1007.47,-335.2 1112.83,-672.71l1268.52 0c-325.17,1153.58 -1268.52,1687.54 -2431.72,1687.54 -1653.2,0 -2674.44,-1134.33 -2674.44,-2754.59 0,-1569.39 1085.35,-2764.67 2674.44,-2764.67 1786,0 2646.97,1498.9 2546.22,3109.04zm-2587.42 -2120.75c-801.43,0 -1213.58,536.22 -1282.3,1222.26l2518.74 0c-96.15,-732.26 -402.98,-1222.26 -1236.45,-1222.26zm-26185.69 4389l1437.96 0 0 -3119.12 3104.93 0 0 3119.12 1437.96 0 0 -7244.34 -1437.96 0 0 2966.14 -3104.93 0 0 -2966.14 -1437.96 0 0 7244.34zm12790.58 0l1355.54 0 0 -2831.99c0,-1063.35 375.51,-1498.86 1154.04,-1498.86 668.6,0 970.86,425.43 970.86,1285.92l0 3044.93 1350.97 0 0 -3220.33c0,-1295.99 -384.68,-2156.97 -1918.82,-2156.97 -604.52,0 -1236.48,283.96 -1598.26,871.05l-32.07 0 0 -729.06 -1282.26 0 0 5235.3zm5985.44 0l1350.94 0 0 -2835.19 1996.67 2835.19 1680.7 0 -2198.18 -2937.76 1946.3 -2297.54 -1611.99 0 -1813.5 2257.24 0 -4266.28 -1350.94 0 0 7244.34zm10789.35 0l1350.94 0 0 -7244.34 -1350.94 0 0 7244.34z"/>
   <path id="path5197_0" class="fil0" d="M19681.11 1.63c10867.19,0 19687.34,4913.83 19687.34,10966.56 0,6053.67 -8820.15,10965.65 -19687.34,10965.65 -10862.59,0 -19682.74,-4911.98 -19682.74,-10965.65 0,-6052.73 8820.15,-10966.56 19682.74,-10966.56zm0 989.17c-10313.05,0 -18689,4478.77 -18689,9977.39 0,5500.92 8375.96,9969.16 18689,9969.16 10313.08,0 18689,-4468.24 18689,-9969.16 0,-5498.62 -8375.92,-9977.39 -18689,-9977.39z"/>
  </g>
 </g>
</svg>
