<?xml version="1.0" encoding="UTF-8"?>
<!DOCTYPE svg PUBLIC "-//W3C//DTD SVG 1.1//EN" "http://www.w3.org/Graphics/SVG/1.1/DTD/svg11.dtd">
<!-- Creator: CorelDRAW 2020 (64-Bit) -->
<svg xmlns="http://www.w3.org/2000/svg" xml:space="preserve" width="39.3701in" height="11.3041in" version="1.1" style="shape-rendering:geometricPrecision; text-rendering:geometricPrecision; image-rendering:optimizeQuality; fill-rule:evenodd; clip-rule:evenodd"
viewBox="0 0 39370.08 11304.13"
 xmlns:xlink="http://www.w3.org/1999/xlink"
 xmlns:xodm="http://www.corel.com/coreldraw/odm/2003">
 <defs>
  <style type="text/css">
   <![CDATA[
    .fil0 {fill:#252525;fill-rule:nonzero}
    .fil1 {fill:#DE0031;fill-rule:nonzero}
   ]]>
  </style>
 </defs>
 <g id="Layer_x0020_1">
  <metadata id="CorelCorpID_0Corel-Layer"/>
  <g id="_2341330576096">
   <path class="fil0" d="M23989.46 211.11c865.26,-277.13 1815.59,-280.44 2681.17,-2.99 333.3,107.67 674.54,233.93 934.06,479.17 359.18,318.64 549.26,791.47 575.52,1265.66 -494.79,-0.35 -988.87,0.32 -1483.31,-0.35 -6.98,-281.09 -101.69,-567.19 -305.72,-766.91 -260.83,-270.45 -654.93,-342.24 -1015.11,-354.87 -438.27,-2 -915.77,106.67 -1223.12,442.29 -226.63,231.57 -323.98,550.93 -394.1,859.28 -100.34,447.24 -105.32,914.77 -14.28,1363.69 37.55,173.45 72.11,350.89 153.17,510.39 145.9,299.38 416.02,534.3 730.35,642.3 473.83,166.8 1011.8,170.78 1478.33,-22.6 412.04,-181.43 631.01,-643.62 617.06,-1079.25 497.43,-0.32 994.5,-0.32 1491.93,0 -19.26,478.49 -169.78,969.94 -517.04,1313.18 -251.19,271.8 -602.75,411.68 -947.98,520.67 -815.11,261.86 -1701.3,289.77 -2531.99,86.07 -569.54,-123.94 -1117.48,-408.37 -1488.3,-866.58 -341.24,-407.06 -474.5,-943.03 -521.67,-1461.71 -45.2,-694.48 49.51,-1439.11 469.52,-2014.95 314.65,-445.28 790.8,-761.26 1311.5,-912.46zm0 0z"/>
   <path class="fil0" d="M9308.25 134.69c471.16,1 942.68,-0.32 1413.87,0.68 -0.35,1778.35 -0.68,3556.07 0.32,5334.11 -471.51,1.32 -943.03,-0.32 -1414.19,1 -1,-1778.71 -1.32,-3557.42 0,-5335.78zm0 0z"/>
   <path class="fil0" d="M28931.81 135.37c471.83,-0.35 943.35,-0.68 1415.19,0 -0.32,711.39 -0.32,1422.17 -0.32,2133.55 950.33,0 1900.63,0.35 2851.31,-0.32 5.98,-711.42 -18.29,-1422.17 0.65,-2133.59 470.84,-0.32 942.03,0 1413.19,0 -0.32,1778.71 0.68,3557.1 -0.64,5335.46 -471.19,-1.31 -942.35,0.32 -1414.19,-1 1,-782.54 1.32,-1565.04 -0.35,-2347.9 -949.65,12.96 -1899.63,-1 -2849.31,0.67 -1,782.51 -1,1564.69 -0.32,2347.22 -471.19,1.32 -942.68,0 -1413.87,0.68 -1,-1778.04 16.3,-3556.43 -1.32,-5334.78zm0 0z"/>
   <path class="fil0" d="M35727.31 134.37c470.84,1.64 942,0 1412.87,1 0,1778.35 0,3556.39 0,5334.78 -471.19,0 -942.35,-0.35 -1413.87,0 -0.32,-1778.39 -1.32,-3557.1 1,-5335.78zm0 0z"/>
   <path class="fil0" d="M2519.72 135.37c471.52,-0.68 942.68,-0.35 1414.52,-0.35 0,711.42 0,1422.52 0,2133.91 948.01,0 1896.67,0.35 2845,-0.32 -0.32,-711.07 0,-1422.17 0,-2133.59 471.52,-0.32 942.68,0 1414.19,0 5.66,1778.04 5.3,3556.75 1,5335.14 -471.52,0 -943,-0.35 -1415.19,0 -1,-782.86 1.32,-1565.72 -0.67,-2348.57 -947.98,13.28 -1896.32,-1.67 -2844.33,1 0,782.19 -0.65,1564.37 0.35,2346.58 -471.84,1.99 -943.03,0 -1414.55,1 -0.32,-1778.04 0.35,-3556.43 -0.32,-5334.78zm0 0z"/>
   <path class="fil0" d="M11226.52 1042.48c1,-302.7 -0.35,-605.1 1,-907.47 1907.95,0 3816.59,0.35 5725.22,-0.32 1.64,302.69 0,605.42 0.64,908.11 -718.72,0 -1437.44,-0.32 -2156.15,0 -1,1476.02 -0.35,2951.68 -0.68,4427.35 -470.84,-0.35 -942.03,0 -1412.87,-0.35 -0.32,-1475.67 0.35,-2950.97 -0.32,-4426.99 -719.07,-0.32 -1437.79,0.35 -2156.83,-0.32zm0 0z"/>
   <g>
    <path class="fil0" d="M15725.94 5469.8c829.03,-1778.36 1660.08,-3556.07 2489.78,-5334.78 578.51,0 1156.67,0 1735.18,0 830.7,1778.04 1660.75,3556.43 2490.1,5334.78 -524.98,0.35 -1049.99,0.35 -1575.01,0 -153.52,-382.46 -308.35,-764.56 -462.19,-1146.7 -880.21,-0.32 -1760.77,-0.65 -2641.3,0 -151.88,382.46 -302.73,765.24 -458.56,1146.38 -526.33,1.32 -1052.02,0 -1578,0.32l0 0zm3357.03 -4422.33c-325.3,805.78 -652.26,1610.89 -975.57,2416.7 651.27,0.32 1302.86,0.32 1954.48,0 -325.65,-805.46 -652.26,-1610.92 -978.91,-2416.7z"/>
   </g>
   <path class="fil0" d="M20738.39 7005.93c353.23,-42.54 707.11,-85.71 1060.67,-130.56 5.63,526.98 1.64,1054.3 1.64,1581.67 154.87,-245.92 402.74,-442.29 694.15,-487.46 230.94,-34.24 495.08,-15.94 678.85,144.55 157.83,142.2 208.65,364.17 213,568.87 1,548.9 0.32,1097.83 0.64,1646.45 -212.32,-0.32 -424.32,-0.32 -636.64,0 -0.68,-512.38 -0.32,-1024.76 -0.32,-1537.14 -1.35,-101.02 -8.33,-208.69 -65.81,-294.4 -92.69,-134.9 -287.43,-144.87 -428.98,-94.04 -277.1,116.29 -445.25,419.01 -453.54,712.74 -1.35,404.07 0,808.45 -0.35,1212.52 -212.32,0.32 -424.32,0 -636.32,0.32 -0.64,-909.47 0.68,-1819.26 -0.64,-2728.69 -6.65,-114.33 5.98,-252.22 -87.42,-336.29 -95.68,-75.1 -225.28,-66.78 -339.25,-75.43 -0.67,-61.15 -0.32,-122.62 0.32,-183.09zm0 0z"/>
   <path class="fil0" d="M-0.63 7074.74c436.6,-40.54 873.91,-79.41 1310.86,-121.3 0.32,1125.13 -0.35,2250.22 0.32,3375.32 -255.85,1.35 -511.7,0 -767.23,0.68 -0.35,-920.11 0,-1840.19 0,-2760.26 0,-83.75 -10.64,-190.39 -99.02,-226.95 -141.56,-55.85 -296.75,-59.83 -445.93,-78.77 0,-63.46 0,-125.93 1,-188.72zm0 0z"/>
   <path class="fil0" d="M11225.17 7009.6c204.35,-87.39 490.13,6.65 552.6,233.25 61.47,214.35 -139.89,416.38 -346.26,425.99 -194.7,27.26 -413.68,-111.3 -428.63,-316 -20.61,-150.85 86.71,-289.74 222.29,-343.24zm0 0z"/>
   <path class="fil0" d="M27854.56 7009.92c490.45,0 981.55,0 1472,0 551.6,837.35 1101.18,1675.7 1654.77,2511.06 0.68,-836.68 0,-1673.71 0.32,-2511.06 228.94,0 457.56,-0.32 686.5,0.35 0,1106.16 0.32,2212.65 -0.32,3319.16 -281.8,-0.68 -564.24,0.67 -846,-0.68 -577.84,-876.9 -1156.35,-1752.77 -1737.5,-2627.67 0,875.9 -0.32,1751.45 0.32,2627.35 -228.62,2 -457.21,0 -685.15,1 -1.35,-907.47 1.32,-1815.27 -1.35,-2722.71 -7.3,-104.36 3.67,-239.58 -98.67,-302.72 -139.24,-65.14 -296.07,-71.12 -444.61,-100.34 -0.64,-64.81 -1,-129.28 -0.32,-193.74zm0 0z"/>
   <path class="fil0" d="M19107.57 7290.37c212,-0.32 424.32,-0.32 636.32,0 -0.32,239.91 -0.32,479.49 0,719.75 238.59,3.63 477.81,-6.66 716.72,4.98 -3.31,93.01 -3.67,186.73 -2.99,280.77 -237.91,0.32 -476.15,-0.68 -714.06,0.32 1,476.18 -2.35,952.68 1.64,1428.82 2.99,115.64 10.64,267.49 136.89,317 164.83,57.81 345.58,41.19 514.05,9.29 0,95.71 0,191.74 0,288.42 -256.17,47.52 -519.68,56.84 -777.87,21.93 -137.89,-20.26 -279.77,-68.45 -374.49,-175.76 -101.33,-114.3 -133.91,-272.8 -135.9,-421.65 -0.32,-489.45 0,-978.91 0,-1468.36 -142.2,-0.32 -284.43,0.32 -426.63,-0.32 -0.67,-95.04 -0.67,-190.07 -0.35,-284.79 141.91,-1 284.43,-0.32 426.67,-0.64 0.32,-239.91 0.32,-479.84 0,-719.75zm0 0z"/>
   <path class="fil0" d="M38013.42 7290.72c213.99,-1 427.98,-0.68 641.94,-0.35 0,239.91 -0.32,479.84 0.35,719.75 237.24,0.64 475.15,-0.68 712.74,0.64 0,94.72 0,189.75 -0.32,285.11 -237.59,0 -474.86,0 -712.42,-0.32 -0.68,488.11 -1,976.56 0,1464.35 0,105.32 21.6,239.58 134.22,281.8 163.84,58.48 344.27,41.86 512.73,9.97 -0.67,95.68 -0.67,192.03 -0.67,288.42 -308.71,51.82 -634,70.44 -937.69,-17.62 -225.31,-64.81 -345.26,-301.38 -346.26,-524.02 -9.29,-500.42 -1.32,-1001.48 -3.98,-1502.25 -142.2,-0.64 -284.43,0 -426.63,-0.64 -0.68,-95.04 -0.68,-190.07 -0.35,-284.79 142.23,-1 284.11,-0.32 426.34,-0.32 0.65,-240.23 1.32,-479.81 0,-719.72zm0 0z"/>
   <path class="fil0" d="M1971.79 8115.76c358.54,-55.81 716.73,-113.62 1075.59,-168.47 1,170.14 0.35,339.6 0,509.39 161.17,-234.6 399.08,-431.62 684.83,-483.8 224.95,-38.87 478.17,-20.93 665.25,123.26 165.8,128.96 229.58,347.26 231.58,550.28 1,561.22 0.35,1121.79 0.35,1683 -213.99,-0.32 -427.66,-0.32 -640.98,0 -2.31,-501.42 1.99,-1003.15 -2.31,-1504.57 -9.65,-139.24 -13.63,-308.71 -134.58,-402.07 -143.55,-89.06 -333.27,-42.54 -460.87,55.17 -204.7,157.82 -350.56,410.01 -343.27,673.19 1,392.43 0.35,785.53 0.35,1178.28 -213.67,-0.32 -427.31,-0.32 -640.98,0 -0.67,-559.9 -0.32,-1120.47 0,-1680.69 -2.31,-97.03 -3.98,-212.99 -85.07,-280.12 -100.34,-75.07 -232.93,-60.8 -350.21,-73.75 0,-60.15 0,-119.63 0.32,-179.11zm0 0z"/>
   <path class="fil0" d="M5982.43 7986.16c329.96,-65.1 669.56,-19.93 992.54,60.15 0.32,159.5 0,319 0,478.81 -227.94,-142.2 -480.17,-288.42 -759.61,-263.15 -106.32,9.61 -240.23,50.51 -266.14,170.11 -24.6,110.66 53.82,206.37 138.53,265.5 281.12,195.06 633.68,280.8 874.91,533.66 226.95,225.28 239.91,631.65 18.94,865.26 -140.88,152.84 -345.55,225.95 -545.59,260.51 -357.22,54.81 -722.74,15.59 -1071.63,-70.44 -0.32,-165.48 0,-330.63 -0.32,-496.43 253.54,163.81 543.63,317.65 855.61,284.76 131.27,-10.64 290.41,-64.46 328.32,-206.34 36.56,-118.96 -44.88,-229.94 -136.89,-295.07 -290.77,-209.33 -668.24,-291.09 -913.78,-564.56 -190.43,-207.98 -178.79,-553.56 0,-764.89 121.94,-143.91 303.69,-221.65 485.11,-257.88zm0 0z"/>
   <g>
    <path class="fil0" d="M7466.39 8115.76c357.22,-56.13 714.09,-114.97 1071.63,-168.11 0.32,109.63 0.32,219.3 0.32,328.93 149.21,-152.17 335.61,-280.77 550.25,-312.66 317.68,-40.86 671.56,60.8 870.92,323.66 212,274.11 253.86,638.31 237.24,974.25 -14.95,308.35 -88.03,637.31 -310.99,864.26 -232.28,235.24 -590.79,288.74 -904.8,239.9 -175.8,-24.91 -335.3,-117.96 -452.26,-249.87 0.67,396.41 0.35,792.83 0.35,1189.56 -213.67,0 -427.67,0.32 -641.66,-0.32 1,-897.83 0.35,-1795.65 0.35,-2693.48 -1.67,-88.74 -9.65,-195.06 -88.06,-251.22 -97.7,-65.78 -221.32,-54.49 -332.95,-65.46 -0.35,-60.12 -0.35,-119.95 -0.35,-179.43l0 0zm1386.64 225.95c-121.3,53.85 -202.39,170.46 -246.56,292.08 -82.76,222.96 -79.41,464.19 -77.1,698.79 4.31,175.44 24.59,361.17 124.94,511.06 145.54,229.26 532.98,258.52 692.13,29.58 130.59,-188.43 150.88,-427.66 158.85,-650.3 1.99,-250.52 5.63,-523.67 -136.25,-741.64 -107.32,-166.8 -339.93,-214.31 -516.01,-139.56z"/>
   </g>
   <path class="fil0" d="M10643.67 8114.76c352.56,-54.5 704.44,-113.62 1057.33,-167.47 1,794.18 0,1588.32 0.35,2381.82 -213.67,-1 -427.98,3.31 -641.98,-1.99 3.31,-559.9 0.67,-1119.47 1.67,-1679.37 -3.67,-94.36 -3.98,-204.35 -75.1,-275.78 -94.04,-78.41 -224.95,-67.13 -338.93,-74.43 -3.67,-61.15 -4.67,-121.94 -3.35,-182.77zm0 0z"/>
   <path class="fil0" d="M12305.1 8115.76c357.19,-55.81 714.41,-114.3 1071.95,-168.11 -0.68,155.48 1.99,310.99 -1.99,466.85 84.71,-161.49 199.01,-319.67 368.83,-398.76 192.03,-95.04 413.68,-57.13 617.38,-30.22 0.32,186.08 -0.35,371.81 0.32,557.9 -198.04,-68.45 -417.66,-107.67 -618.06,-24.59 -243.89,84.07 -371.14,351.21 -366.48,596.77 0.32,404.39 -0.35,808.45 0.32,1212.83 -213.67,1.67 -427.31,0.32 -640.66,0.68 0,-559.9 0,-1120.15 0,-1680.37 -2.99,-99.02 -5.31,-217.98 -89.7,-285.75 -98.7,-68.8 -226.27,-57.17 -340.24,-66.81 -1.35,-60.47 -1.67,-120.59 -1.67,-180.43zm0 0z"/>
   <g>
    <path class="fil0" d="M15057.06 8139.36c276.78,-172.78 616.38,-198.69 934.7,-177.44 257.17,19.93 530.64,105.68 696.79,315.65 154.52,192.07 192.39,448.27 189.4,688.5 -518.36,0.35 -1036.72,-0.32 -1555.07,0.35 13.95,346.55 136.9,723.03 438.63,922.39 316.33,204.35 726.34,160.5 1066.26,42.89 0,102.66 0,205.67 0,308.67 -421.97,144.23 -887.83,194.38 -1322.47,77.1 -286.75,-76.42 -550.61,-256.2 -700.78,-515.37 -183.09,-315.01 -209.33,-700.13 -143.23,-1052.02 46.2,-244.89 181.78,-478.14 395.77,-610.72l0 0zm591.46 95.36c-194.41,54.85 -302.72,255.21 -325.33,444.93 305.04,1.35 610.76,0 916.12,0.68 -13.95,-128.28 -38.9,-267.49 -136.26,-360.54 -118.28,-115.29 -303.05,-123.94 -454.54,-85.07z"/>
   </g>
   <g>
    <path class="fil0" d="M24457.98 8119.74c298.71,-168.79 658.92,-185.41 993.19,-147.54 263.5,31.57 535.62,155.19 670.2,395.42 103.69,180.1 130.27,393.1 123.94,598.44 -517.68,0.35 -1034.72,-0.32 -1552.41,0.35 13.95,348.89 138.57,727.69 444.25,926.38 317.32,199.36 725.37,156.51 1064.3,37.55 -0.68,102.69 -0.68,205.34 -0.32,308.7 -399.76,137.54 -837.03,189.05 -1253.06,97.03 -295.07,-65.46 -577.83,-228.94 -744.31,-486.82 -205.34,-310.35 -236.59,-704.09 -180.1,-1063.3 43.21,-269.45 191.74,-529.96 434.31,-666.22l0 0zm496.08 141.56c-158.15,77.77 -234.92,251.22 -261.51,417.34 304.72,3.34 609.41,1 914.45,1.35 -8.97,-149.21 -51.83,-317.35 -186.41,-401.43 -137.57,-84.72 -321.98,-85.04 -466.53,-17.26z"/>
   </g>
   <g>
    <path class="fil0" d="M32674.97 8150.32c260.83,-172.77 585.81,-205.02 891.17,-192.39 263.82,12.96 548.26,83.72 731.03,288.42 176.76,192.71 222.29,466.85 214.99,719.71 -517.72,0 -1035.72,0 -1553.76,0.35 9.97,341.92 130.59,711.07 422.33,914.09 316.68,216.31 738.01,174.13 1081.92,49.83 -0.67,104.33 -0.35,208.33 -0.67,313.02 -411.36,138.24 -861.95,187.72 -1286.59,83.4 -287.74,-69.12 -558.57,-238.91 -717.08,-492.77 -195.02,-309.35 -225.95,-694.8 -168.46,-1048.35 40.89,-250.55 169.81,-493.76 385.13,-635.32l0 0zm422.33 203.03c-81.73,90.05 -119.63,208.33 -140.56,325.65 305.37,2.31 611.08,1 916.76,1 -10.29,-158.18 -61.79,-335.94 -211.32,-415.38 -180.75,-88.38 -427.31,-67.45 -564.88,88.74z"/>
   </g>
   <path class="fil0" d="M34572.64 8010.11c328.28,1.64 656.25,-2.99 984.21,2.31 176.76,239.58 358.54,474.5 538.61,711.42 205.7,-238.59 414.03,-474.83 616.38,-716.41 227.3,-3.99 454.89,-1.32 682.52,-1.32 -219.65,253.19 -437.95,508.04 -657.25,761.9 -202.03,0.35 -404.06,-0.32 -605.74,0.35 397.73,522.67 797.13,1043.37 1194.54,1566.04 -253.54,-1.67 -506.72,0 -759.93,-1 -208.66,-278.45 -417.34,-557.58 -626.03,-835.68 -97,112.62 -193.03,225.6 -290.41,337.93 -226.27,-0.35 -451.9,0.32 -677.85,-0.68 216.98,-252.54 435.31,-503.41 651.94,-755.59 -185.41,-237.94 -351.88,-491.8 -553.24,-716.76 -125.93,-141.2 -323.98,-154.16 -499.74,-169.79 0.65,-61.15 1.32,-121.94 2,-182.74zm0 0z"/>
   <path class="fil1" d="M38142.98 6347.69c227.94,-9.65 456.56,-2.67 684.51,-3.99 -270.13,317.32 -545.94,629.67 -815.75,947.02 -226.95,3.98 -453.9,1.64 -680.85,1.64 268.17,-317.32 544.63,-626.99 812.08,-944.67zm0 0z"/>
  </g>
 </g>
</svg>
