<?xml version="1.0" encoding="UTF-8"?>
<!DOCTYPE svg PUBLIC "-//W3C//DTD SVG 1.1//EN" "http://www.w3.org/Graphics/SVG/1.1/DTD/svg11.dtd">
<!-- Creator: CorelDRAW 2020 (64-Bit) -->
<svg xmlns="http://www.w3.org/2000/svg" xml:space="preserve" width="39.3701in" height="22.6046in" version="1.1" style="shape-rendering:geometricPrecision; text-rendering:geometricPrecision; image-rendering:optimizeQuality; fill-rule:evenodd; clip-rule:evenodd"
viewBox="0 0 39370.08 22604.56"
 xmlns:xlink="http://www.w3.org/1999/xlink"
 xmlns:xodm="http://www.corel.com/coreldraw/odm/2003">
 <defs>
  <style type="text/css">
   <![CDATA[
    .fil0 {fill:red;fill-rule:nonzero}
   ]]>
  </style>
 </defs>
 <g id="Layer_x0020_1">
  <metadata id="CorelCorpID_0Corel-Layer"/>
  <path class="fil0" d="M-1.63 22606.2l0 -22604.58 2624 0 0 9313.34 10219.78 0 0 -9313.34 2624 0 0 22604.58 -2624 0 0 -10639.31 -10219.78 0 0 10639.31 -2624 0zm20500.67 0l0 -22604.58 5154.62 0c1312,0 2314.41,79.44 3010.69,215.73 970.22,189.93 1787.44,535.08 2444.46,1052.36 659.58,519.29 1187.71,1247.04 1588.21,2178.37 400.5,931.33 598.46,1957.39 598.46,3078.14 0,1915.28 -536.69,4030.99 -1606.62,5359.11 -1070.69,1329.06 -3006.11,1994.21 -5805.02,1994.21l-2760.79 0 0 8726.65 -2624 0zm2624 -11378.59l2797.63 0c1694.08,0 2892.17,-356.66 3604.54,-1078.67 710.1,-719.7 1063.41,-2223.1 1063.41,-3533.28 0,-941.85 -207.15,-1752.17 -626.07,-2425.67 -418.92,-673.51 -969.9,-1125.41 -1652.67,-1336.5 -440.52,-136.19 -1256.77,-199.94 -2439.85,-199.94l-2746.98 0 0 8574.06zm13621.41 11378.59l0 -22604.58 2624 0 0 22604.58 -2624 0z"/>
 </g>
</svg>
