<?xml version="1.0" encoding="UTF-8"?>
<!DOCTYPE svg PUBLIC "-//W3C//DTD SVG 1.1//EN" "http://www.w3.org/Graphics/SVG/1.1/DTD/svg11.dtd">
<!-- Creator: CorelDRAW 2020 (64-Bit) -->
<svg xmlns="http://www.w3.org/2000/svg" xml:space="preserve" width="39.3701in" height="39.3701in" version="1.1" style="shape-rendering:geometricPrecision; text-rendering:geometricPrecision; image-rendering:optimizeQuality; fill-rule:evenodd; clip-rule:evenodd"
viewBox="0 0 39370.08 39370.08"
 xmlns:xlink="http://www.w3.org/1999/xlink"
 xmlns:xodm="http://www.corel.com/coreldraw/odm/2003">
 <defs>
  <style type="text/css">
   <![CDATA[
    .fil2 {fill:black}
    .fil5 {fill:blue}
    .fil4 {fill:#0303FC}
    .fil3 {fill:red}
    .fil0 {fill:white}
    .fil1 {fill:black;fill-rule:nonzero}
   ]]>
  </style>
 </defs>
 <g id="Layer_x0020_1">
  <metadata id="CorelCorpID_0Corel-Layer"/>
  <g id="_2342163973552">
   <path class="fil0" d="M19375.71 274.85c-3115.64,0 -5714.66,794.48 -7892.81,1817.19 -4432.5,2081.33 -7606.46,5354.39 -9601.37,9818.47 -929.09,2079.89 -1732.88,5030.32 -1627.36,8082.56 210.74,6093.72 2629.24,10453.64 5831.39,13588.3 3197.76,3130.18 7646.54,5533.09 13886.76,5533.09 2737.3,-13.55 5444.28,-626.36 7920.87,-1789.79 4380.15,-2066.11 7651.76,-5392.64 9601.44,-9818.32 1001.43,-2273.29 1627.36,-4901.09 1627.36,-8082.64 0,-3002.7 -772.66,-5716.25 -1790.22,-7919.77 -2019.56,-4372.95 -5370.71,-7604.64 -9819.42,-9601.74 -2090.72,-938.48 -5091.61,-1769.7 -8082.64,-1627.36 -17.88,0.91 -36.06,0 -54.01,0z"/>
   <path class="fil1" d="M19375.71 521.71c-1538,0 -2946.93,195.7 -4239.14,517.37 -1295.28,322.43 -2474.47,770.95 -3549.52,1275.72 -2188.54,1027.66 -4066.1,2349.22 -5642.46,3964.59 -1576.75,1615.78 -2852.95,3526.28 -3838.37,5731.4 -496.91,1112.41 -957.47,2476.79 -1258.59,3972.36 -254.58,1264.43 -395.24,2622.83 -347.55,4002.2 104.15,3011.63 753.33,5593.67 1771.74,7809.29 1017.39,2213.41 2404.87,4063.06 3986.36,5611.21 1579.19,1545.82 3466.24,2911.61 5727.24,3890.22 2261.41,978.78 4901.07,1571.51 7986.91,1571.51l0 0.96c1348.96,-6.74 2691.28,-161.23 4002.3,-457.46 1312.01,-296.46 2591.47,-734.74 3813.64,-1308.8l-0.18 -0.37c2167.95,-1022.62 4060.2,-2356.92 5650.24,-3982.87 1583.91,-1619.7 2869.54,-3530.3 3830.67,-5712.02 494.51,-1122.57 896.11,-2331.66 1173.79,-3651.54 277.94,-1321.13 432.36,-2756.67 432.36,-4331.77 0,-1385.88 -166.14,-2707.31 -445.39,-3942.69 -318.97,-1411.13 -785.88,-2713.59 -1321.69,-3873.9 -992.36,-2148.75 -2309.59,-4017.74 -3923.25,-5595.62 -1630.83,-1594.68 -3564.85,-2893.46 -5772.74,-3884.61 -1123.11,-504.14 -2511.7,-976.85 -4019.31,-1280.39 -1261.82,-254.05 -2607.33,-389.62 -3950.5,-325.8l0 0.04c-15.99,0.81 -34.22,0.5 -52.41,0.2 -22.65,-0.38 45.39,0.76 -14.14,0.76zm-4356.79 39.06c1330.74,-331.26 2779.15,-532.8 4356.79,-532.8 47.56,0 -12.82,0.59 21.85,1.17 5.87,0.09 11.78,0.19 19.63,-0.2l0.96 0c1384.75,-65.89 2771.26,73.7 4071.04,335.4 1547.79,311.63 2972.18,796.39 4123.46,1313.18 2261.97,1015.43 4243.81,2346.45 5915.46,3981.04 1657.58,1620.83 3009.8,3538.81 4027.4,5742.2 548.5,1187.77 1026.89,2522.98 1354.48,3972.26 287.71,1272.82 458.88,2630.88 458.88,4050.7 0,1606.44 -158.55,3075.58 -443.93,4432.06 -285.64,1357.73 -697.74,2599.2 -1204.65,3749.91 -984.73,2235.29 -2303.36,4194.28 -3929.02,5856.67 -1632.15,1669.01 -3572.2,3037.56 -5792.96,4085.09l-0.96 0c-1255.36,589.73 -2568.73,1039.75 -3914.72,1343.89 -1344.42,303.78 -2722.64,462.19 -4109.34,469.04l-0.96 0.96c-3154.38,0 -5859.23,-608.73 -8181.7,-1613.94 -2322.88,-1005.39 -4259.11,-2406.15 -5877.67,-3990.5 -1620.65,-1586.5 -3043.51,-3484.15 -4088.59,-5757.8 -1044.06,-2271.43 -1709.51,-4916.22 -1816.1,-7998.3 -49.03,-1418.14 95.54,-2814.48 357.2,-4114.06 309.14,-1535.39 781.67,-2935.44 1291.38,-4076.51 1009.48,-2258.96 2317.73,-4217.03 3934.8,-5874.12 1617.47,-1657.5 3543.16,-3013.14 5787.11,-4066.81 1103.09,-517.94 2312.5,-978.03 3640.17,-1308.51z"/>
   <path class="fil2" d="M34021.8 27641.58c-1907.87,3447.13 -4953.74,6156.14 -8869.01,7512.99 -2079.9,720.62 -4381.44,1145.74 -7160.44,867.88 -2179.58,-225.32 -4297.1,-892.76 -6212,-1953.5 -3524.02,-1924.98 -6054.02,-4911.92 -7512.99,-8841.96 -741.61,-1997.94 -1124.6,-4508.1 -867.96,-7160.37 210.74,-2186.04 866.85,-4312.02 1926.89,-6237.02 1869.64,-3423.48 4950.13,-6119.38 8841.77,-7513.2 1771.6,-627.01 3644.84,-948.66 5526.17,-948.66 544.17,0 1094.41,28.32 1634.53,80.92 4748.31,488.29 8252.85,2716.36 10740.52,5614.36 2390.71,2785.14 4447.57,6904.71 3905.73,12259.4 -246.22,2428.52 -938.66,4486.07 -1953.2,6319.17zm-21209.84 -22186.27c-3566.21,1697.74 -6190.07,4455.3 -7729.94,8109.61 -827.1,1956.51 -1255.12,4059.77 -1255.12,6184.33 0,160.74 3.88,329.24 7.75,488.05 73.47,2204.34 602.57,4380 1546.28,6374.02 813.67,1720.5 1948.26,3279.16 3335.81,4583.01 2644.55,2499.79 6364,4525.37 11418.49,4366.82 4891.7,-153.62 8337.01,-2234.65 10957.54,-4855.04 1351.35,-1359.99 2432.08,-2975.63 3172.58,-4745.9 799.25,-1884.61 1275.19,-4042.15 1247.62,-6672.15 -25.22,-2417.37 -685.55,-4620.81 -1545.93,-6373.85 -1737.13,-3539.54 -4357.05,-6149.24 -8082.64,-7756.91 -1797.58,-776.52 -4223.36,-1364.57 -6671.56,-1248.07 -2518.42,119.99 -4599.46,688.43 -6400.89,1546.08z"/>
   <path class="fil3" d="M19646.9 3963.54c2483.2,4532.41 4895.87,9135.58 7323.01,13723.97 1251.78,-2292.15 2431.61,-4656.57 3634.38,-6997.58 1595.09,2840.67 2996.03,5861.08 4583.77,8814.85 104.46,194.3 298.39,450.11 298.39,569.5 0,214 -485.49,976.73 -596.61,1193.46 -1384.43,2696.21 -2889.22,5440.67 -4258.12,8136.65 -1259.66,-2419.87 -2531.67,-4827.46 -3770.13,-7268.69 -2472.82,4398.48 -4740.35,9001.95 -7214.69,13398.62 -2347.37,-4487.65 -4738.15,-8931.96 -7106.2,-13398.62 -1284.13,2404.54 -2549.86,4827.44 -3797.17,7268.69 -1653.19,-3083.98 -3237.07,-6237.42 -4882.23,-9330.1 1627.13,-3119.28 3233.2,-6259.54 4854.96,-9384.34 1231.41,2312.6 2435.7,4652.25 3634.38,6997.58 2452.62,-4554.15 4884.7,-9128.81 7296.26,-13723.97zm5695.57 16816.05c110.37,-219.67 379.81,-585.71 379.81,-732.36 0,-107.87 -228.92,-497.83 -352.55,-732.28 -1925.82,-3652.26 -3805.81,-7401.86 -5722.84,-10957.54 -1996.95,3907.01 -4034.96,7772.06 -6021.22,11689.83 2011.65,3873.52 4012,7759.56 6048.27,11608.54 1840.97,-3609.54 3840.95,-7240.89 5668.53,-10876.19zm-20965.7 -678.12c1455.71,2802.79 2872.86,5643.83 4366.75,8408.37 1459.8,-2798.32 2886.11,-5630.57 4366.75,-8407.99 -1456.85,-2855.81 -2905.36,-5719.66 -4393.56,-8543.58 -1447.91,2846.27 -2934.07,5654.59 -4339.93,8543.2zm26227.52 -8543.28c-1436.47,2848.85 -2900.28,5670.35 -4339.47,8516.39 1467.6,2808.92 2872.4,5680.19 4393.56,8435.18 1422.98,-2844.38 2925.89,-5608.83 4339.63,-8462.23 -1479.19,-2815.58 -2882.78,-5706.17 -4393.71,-8489.34z"/>
   <path class="fil3" d="M10153.93 17009.46c-37.04,63.63 -50.67,291.26 0,352.62 -222.25,42.65 -685.7,2.2 -813.64,216.95 -129.69,217.7 -81.43,843.41 -81.43,1247.69l0 2603.72c0,436.71 -55.53,998.33 54.31,1247.7 103.02,233.85 514.65,248.85 813.64,244.07 17.42,109.23 -35.23,288.39 27.11,352.55 -895.07,63.33 -1907.64,9.24 -2847.86,27.11l0 -406.7c180.82,57.42 664.19,28.41 786.52,-135.67 142.64,-191.35 81.35,-843.49 81.35,-1247.62l0 -2658.03c0,-405.95 60.6,-1044.68 -54.24,-1247.62 -121.58,-215.36 -505.72,-233.01 -813.64,-216.95 17.5,-118.17 -35.38,-306.64 27.12,-379.81l2820.74 0z"/>
   <path class="fil3" d="M17015.99 17009.46l4854.96 0c50.98,500.56 67.65,1035.29 81.28,1573.2l-406.86 0c-83.33,-315.81 -70.98,-569.87 -216.95,-759.48 -382.77,-497.61 -1592.21,-120.44 -2359.64,-244.14 -62.95,669.41 -9.32,1455.33 -27.2,2169.89 930.83,-36.59 2201.93,267.02 2034.3,-867.96l406.78 0 0 2332.6 -379.74 0c-58.18,-230.96 -79.01,-499.96 -162.64,-705.24 -341.41,-339.44 -1319.13,-177.86 -1871.5,-216.95 -31.74,719.63 -74.85,1683.64 27.19,2359.64 521.02,102.87 1681.67,174.76 2169.74,-27.19 492.38,-203.54 624.79,-680.7 895,-1057.71l406.79 0c-184.98,592.37 -387.24,1167.63 -596.54,1735.76 -1609.33,18.03 -3290.93,-36.13 -4854.96,27.2 -62.65,-82.11 -9.54,-279.75 -27.12,-406.86 355.05,20.76 647.14,-21.89 813.56,-189.83 94.01,-736 54.31,-1573.88 54.31,-2413.96 0,-967.95 57.42,-2027.09 -81.43,-2793.55 -171.12,-136.96 -561.69,-135.06 -786.44,-135.59 17.42,-118.17 -35.45,-306.64 27.12,-379.81z"/>
   <path class="fil3" d="M28136.25 17009.46l4854.96 0c24.09,527.53 51.19,1051.93 81.28,1573.2l-406.79 0c-130.44,-349.06 -83.33,-685.47 -352.55,-867.96 -482,-326.33 -1504.26,18.56 -2224.13,-108.47 -63.25,660.02 -9.09,1437.45 -27.12,2142.69 942.57,-24.85 2188.22,253.39 2034.22,-867.96l379.66 0 0 2332.6 -379.66 0c-55.98,-272.25 -38.79,-489.58 -135.59,-651 -273.31,-455.26 -1223.08,-155.14 -1871.5,-244.15 -21.52,386.98 -33.81,777.87 -33.81,1166.3 0,388.43 12.29,779.31 34.42,1165.28 477.23,116.28 1181.72,119.08 1708.71,81.36 773.19,-55.45 1082.56,-618.73 1355.94,-1166.57l433.36 1.02c-194,592.53 -414.28,1158.99 -596.61,1762.96l-4881.85 0 0 -406.86c337.47,21.06 625.17,-7.57 786.68,-162.72 61.75,-863.51 99.31,-1735.74 99.31,-2603.8 0,-868.06 -37.56,-1740.28 -100.16,-2604.17 -150.9,-156.5 -474.05,-140.74 -786.67,-135.59 18.27,-126.43 -34.83,-324.13 27.89,-406.17z"/>
   <path class="fil4" d="M15795.42 36158.12c-119.31,612.91 -321.72,1142.78 -406.86,1790.07 27.12,81.35 194.22,22.72 189.91,135.67 -183.17,81.51 -591.31,-51.51 -759.41,-162.79 -16.67,-106.96 148.85,-32.12 216.95,-54.31 175.51,-439.36 275.51,-953.93 379.74,-1464.72 -44.69,-113.63 -198.54,41.13 -244.15,-81.2 129,-133.32 378.68,-145.74 623.81,-162.71z"/>
   <path class="fil4" d="M19131.57 763.06c437.92,547.45 476.7,1494.11 1057.79,1898.62 -170.21,81.2 -671.69,95.98 -813.64,27.12 -31.81,-140.14 188.54,-28.41 189.38,-135.59 3.48,-193.47 -113.63,-266.04 -135.59,-433.98l-678.05 0c-96.13,102.8 -122.04,275.74 -189.91,406.86 11.74,123.85 219.68,51.36 244.07,162.72 -111.58,106.05 -521.93,56.13 -677.97,27.12 -25.15,-133.55 151.5,-65.45 189.83,-135.59 281.41,-577.45 502.69,-1215.05 759.33,-1817.27l54.77 0zm-325.73 1193.38c175.21,14.7 365.27,-77.42 515.11,0 -55.47,-221.06 -147.46,-432.48 -271.21,-623.82 -84.29,204.69 -173.6,404.6 -243.74,623.82l-0.15 0z"/>
   <path class="fil4" d="M20948.84 871.61c553.74,42.8 1083.62,109.61 1600.16,189.83 -42.11,147.79 25.07,404.81 -81.51,488.22 -148.62,-71.51 -63.56,-238.01 -189.83,-325.73 -89.16,-61.81 -204.15,-20.15 -352.55,-54.24 -125.3,453.29 -141.96,1015.06 -216.95,1518.89 -9.39,154.07 244.6,44.69 244.07,189.83 -184.15,72.72 -701.61,16.82 -867.81,-108.55 -10.53,-109.91 169,-29.77 243.99,-54.16 130.9,-465.8 158.24,-1035.14 216.95,-1573.12 -255.74,-189 -572.68,68.56 -569.5,216.95 -196.87,-53.93 22.2,-318.15 -27.03,-487.91z"/>
   <path class="fil4" d="M17477.01 925.78c40.22,166.65 -111.35,141.81 -162.71,217.03 -190.89,595.7 -261.04,1312.01 -461.1,1898.55 -579.5,-451.17 -713.05,-1348.37 -1383.21,-1708.72 -5.91,-111.66 237.02,-83.33 379.74,-108.48 164.23,-28.93 329.52,-107.34 433.9,-54.24 20.22,146.8 -167.64,85.44 -189.83,189.83 196.95,409.06 466.63,744.78 705.17,1112.02 114.61,-408.09 206.54,-827.04 270.89,-1247.3 -28.33,-98.48 -208.24,-44.92 -244.07,-135.59 137.11,-134.7 449.2,-93.87 651.23,-163.11z"/>
   <path class="fil4" d="M24176.36 1441.11c31.28,-2.33 63.04,-3.67 94.51,-3.67 153.31,0 305.43,28.93 448,85.16 725.85,383.3 596.61,1865.67 -433.98,1925.67 -1215.86,70.76 -1382.44,-1884.67 -108.53,-2007.16zm-244.22 1790.15c964.01,387.77 1307.92,-1866.81 244.22,-1600.24 -448.6,112.41 -834.25,1362.76 -244.22,1600.24z"/>
   <path class="fil4" d="M14574.91 1956.44c-140.29,72.42 -131.2,-153.85 -244.15,-189.83 -304.67,-15.15 -431.78,147.11 -705.09,162.71 66.61,222.71 138.9,439.71 216.87,651.01 191.88,-61.36 400.19,-106.05 542.53,-217.03 30.83,-129.31 -71.96,-230.89 27.04,-271.26 153.09,147.64 247.86,490.33 244.22,705.24 -144.69,9.02 -107.11,-164.23 -217.1,-189.91 -230.74,-4.77 -356.03,96.13 -542.38,135.59 67.52,239.04 150.19,475.79 244.09,705.32 439.36,-58.18 740.17,-254.3 840.84,-650.93 121.89,76.96 21.51,376.26 54.24,542.45 -226.8,75.75 -481.4,163.4 -732.36,244.07 -239.45,77.04 -495.94,228.69 -705.17,162.79 -66.59,-93.17 179.6,-60.6 189.91,-162.79 -124.2,-528.76 -297.23,-1048.93 -514.87,-1546.25 -107.94,-33.86 -190.97,95.83 -244.07,27.04 15.61,-169.61 378.15,-224.91 596.76,-298.31 261.19,-87.72 571.47,-166.65 759.41,-271.26 116.09,82.97 190.93,350.68 189.27,461.35z"/>
   <path class="fil4" d="M26373.22 2064.92c354.14,224.07 1254.52,321.41 1247.7,895.07 -3.26,271.64 -232.86,511.62 -651,488.22 87.87,255.58 75.37,583.96 189.83,813.72 68.18,136.35 209.6,172.94 217.03,298.31 -116.96,84.99 -386.71,-134.15 -542.38,-189.83 -22.65,-200.3 -58.91,-401.36 -108.35,-596.92 -40.15,-182.64 -27.95,-436.78 -216.95,-488.14 -111.99,197.62 -203.37,407.15 -271.5,623.77 -25.68,135.29 249.98,110.22 162.71,217.1 -195.67,39.46 -586.09,-189.38 -786.6,-325.73 15.15,-166.65 127.11,27.72 271.34,-27.2 255.13,-440.87 446.32,-945.83 650.93,-1437.53 3.36,-151.83 -267.52,-97.82 -162.76,-270.84zm197.44 1107.07l170.61 71.39c720.23,249.78 832.23,-747.59 93.12,-744.48l-263.73 673.09z"/>
   <path class="fil4" d="M11374.43 2715.93c-7.95,145.74 -188.01,119.31 -216.95,244.07 197.48,478.84 434.94,941.75 704.77,1383.07 377.01,-120.3 727.89,-266.65 705.24,-786.6 178.77,74.31 122.72,383.52 162.72,596.69 -478.22,163.78 -895.83,532.61 -1355.94,623.89 -86.66,-127.8 181.43,-97.87 162.79,-244.15 -210.6,-485.06 -456.03,-957.78 -732.14,-1409.6 -126.73,-29.39 -176.5,108.17 -271.27,27.12 171.73,-234.83 520.72,-293.08 759.56,-461.1 43.66,-8.16 46.61,25.09 81.23,26.61z"/>
   <path class="fil4" d="M9638.6 4234.73c-160.75,34.02 -174.23,-136.35 -325.73,-135.59 -205.82,0.91 -361.41,308.46 -569.65,352.62 81.51,225.97 263.54,351.26 352.62,569.57 165.67,-105.52 343.23,-199.22 461.1,-352.62 32.95,-137.56 -116.81,-188.77 -54.31,-271.19 210.81,23.56 405.19,419.44 461.17,596.69 -113.63,87.41 -126.05,-114.54 -244.07,-108.48 -236.8,16.36 -326.33,179.98 -488.29,271.19 110.58,220.98 257.72,423.12 434,596.66 330.28,-175.81 608.28,-336.41 623.81,-867.95 133.55,92.41 110.59,341.41 189.83,488.14 -381.27,335.31 -800.1,627.34 -1246.74,867.85 -139.16,-114.16 114.76,-105.52 108.55,-244.07 -259.99,-472.72 -570.47,-920.04 -922.48,-1328.67 -111.81,-7.12 -168.24,137.48 -244.14,81.36 37.12,-194.23 341.63,-347.62 542.53,-488.14 212.11,-148.4 445.65,-282.93 623.81,-433.98 137.09,83.37 313.74,258.89 297.98,406.61z"/>
   <path class="fil4" d="M30061.92 4939.9c-36.82,161.66 -55.58,328.33 -55.58,494.46 0,25.01 0.54,50.57 1.36,75.31 164.02,-24.07 316.37,-100.2 433.96,-217.13 26.36,-111.05 -67.19,-173.77 0,-244.07 145.06,30.3 465.19,255.43 515.11,379.74 -24.85,140.9 -126.89,-33.56 -217.03,0 -265.13,69.61 -466.55,202.48 -732.36,271.19 38.48,178.47 78.33,356.03 217.1,433.98 155.82,55.3 228.77,-113.09 298.23,-54.24 30.9,234.83 -298.69,300.81 -488.14,244.07 -216.87,-64.92 -349.05,-345.24 -365.26,-567.2 -1097.94,204.53 -1150.44,-1324.91 39.76,-1060.17 144.61,-190.89 84.84,-358.22 271.26,-488.21 734.72,-512.02 1227.1,1013.76 81.59,732.26zm488.74 -519.35c-396.23,-341.64 -517.6,77.64 -487.3,365.64 143.8,163.02 650.13,67.15 487.3,-365.64zm-904.17 557.91c-835.35,-277.76 -757.37,789.91 8.57,612.44 -96.55,-289.39 -27.42,-486.67 -8.57,-612.44z"/>
   <path class="fil5" d="M33940.37 7272.5c-86.43,130.82 -247.18,330.8 -352.54,352.62 -120.15,-95.3 60.6,-159.84 54.31,-298.39 -75.76,-258.61 -299.44,-369.59 -461.17,-542.45 -165.06,133.24 -297.85,298.91 -461.02,433.98 91.22,157.56 222.18,288.52 379.71,379.68 163.93,51.89 177.1,-149 298.31,-54.31 -57.57,172.79 -355.12,472.61 -542.46,515.11 -80.75,-107.34 103.7,-136.88 81.36,-271.19 -32.57,-56.13 -252.78,-429.66 -352.55,-433.98 -177.1,-7.57 -328,420.72 -515.11,515.11 114.46,202.11 302.09,330.88 461.17,488.22 233.46,48.25 420.57,-117.11 515.11,27.12 -153.17,98.61 -317.37,180.4 -488.15,244.01 -341.71,-355.05 -821.9,-714.33 -1030.67,-1111.95 105.3,-78.78 138.78,101.74 244.07,108.48 426.93,-332.63 796.75,-722.13 1166.57,-1112.02 9.01,-141.28 -208.85,-168.62 -81.36,-271.34 377.52,220.02 695.37,732.86 1084.43,1031.32z"/>
   <path class="fil4" d="M6166.93 6621.57c59.69,93.4 -127.87,132.11 -135.67,244.15 298.08,443.22 726.6,756.15 1112.1,1111.95 172.56,-137.79 467.92,-328.76 488.22,-596.69 10.91,-145.37 -111.28,-223.47 -54.31,-379.67 156.5,1.67 204.53,334.9 325.73,461.02 -202.26,326.33 -543.97,575.71 -813.72,867.88 -74.16,80.44 -128.78,269.22 -271.19,217.1 -90.9,-111.05 112.79,-108.17 81.36,-244.14 -312.63,-428.67 -730.24,-752.43 -1112.03,-1112.02 -163.32,-43.63 -162.41,183.7 -298.38,81.36 66.36,-243.01 434.66,-413.83 569.65,-678.05 56.44,-11.52 71.51,18.56 108.25,27.12z"/>
   <path class="fil4" d="M33913.33 10283.07c-241.27,208.01 19.47,673.28 -27.12,813.72 -371.71,-279.52 -296.72,-833.79 -325.73,-1274.74 -25.91,-396.94 -11.37,-747.74 189.83,-976.43 469.66,-533.81 1621.76,-474.88 1762.88,352.63 146.12,854.7 -811.83,1528.13 -1599.86,1084.83zm-189.91 -569.5c20.91,242.4 280.28,442.46 461.1,461.02 473.22,48.56 1146.34,-533.44 1112.1,-976.35 -26.51,-342.78 -292.55,-470.49 -596.76,-433.98 -422.31,50.52 -1016.43,483.52 -976.43,949.31z"/>
   <path class="fil4" d="M3291.87 10256.03c31.59,-4.47 48.33,5.91 54.31,27.04 133.47,22.72 -56.51,124.76 0,244.14 440.04,355.58 1171.72,564.12 1546,895.07 -510.33,240.13 -1227.17,273.46 -1817.27,433.9 329.22,213.31 711.68,373.22 1057.79,569.57 131.28,12.8 129.91,-248.61 244.07,-162.71 31.21,115.52 -193.62,581.54 -325.73,623.81 -147.64,-31.44 50.3,-110.14 0,-216.95 -85.98,-160.75 -371.86,-273.77 -623.81,-406.86 -226.19,-119.39 -525.64,-336.34 -705.17,-325.73 -166.65,10.07 -194.07,174.22 -352.62,216.95 -38.48,-187.94 163.78,-357.02 217.02,-542.46 566.93,-93.02 1084.53,-235.28 1654.41,-325.73 -279.9,-226.34 -654.87,-357.77 -976.43,-542.53 -150.52,-1.59 -120.67,245.36 -271.19,162.79 25.15,-185.73 212.78,-435.41 298.61,-650.31z"/>
   <path class="fil4" d="M36571.28 11422.3c-136.35,95.22 -137.11,-142.11 -244.07,-162.79 -309.37,233.24 -1181.72,309.82 -1329.05,705.17 -115.52,310.58 132.33,666.61 406.93,705.24 453.37,63.7 949.62,-448.75 1328.98,-542.46 46.59,-129.38 -108.63,-196.95 -27.04,-271.26 171.04,7.57 309.67,497.91 352.47,650.93 -127.64,79.01 -136.35,-162.19 -271.19,-162.72 -509.2,88.78 -800.69,574.95 -1383.21,515.11 -477.23,-48.93 -885.68,-791.14 -542.46,-1247.7 305.13,-405.72 1023.32,-375.04 1328.98,-732.28 8.41,-82.49 -101.89,-185.06 -54.31,-217.02 25.86,-18.46 56.91,-28.41 88.7,-28.41 6.63,0 13.28,0.44 19.85,1.3 86.67,266.48 284.07,565.93 325.43,786.89z"/>
   <path class="fil4" d="M2451.11 13185.25c856.67,-133.4 1654.78,847.65 1003.55,1600.24 -855.3,988.33 -2430.24,-450.41 -1546,-1356.24 125.06,-128.09 252.63,-198.93 542.45,-244zm-596.69 949.31c107.34,588.51 1833.17,1033.78 1627.36,-27.19 -79.46,-409.06 -727.21,-639.57 -1139.15,-596.69 -326.11,33.93 -568.13,185.81 -488.22,623.89z"/>
   <path class="fil4" d="M37330.69 13185.25c93.25,245.89 321.26,631.01 271.19,840.84 -141.66,15.15 -72.04,-181.05 -189.38,-189.91 -543.74,125.3 -978.63,359.44 -1491.76,515.11 -84.09,101.36 57.87,236.19 0,298.39 -127.04,36.06 -189,-205.44 -244.07,-352.62 -57.57,-154.15 -151.5,-379.59 -81.35,-461.1 98.48,-64.46 71.81,188.09 189.38,189.91 505.61,-146.47 1008.57,-332.09 1492.07,-543.15 15.98,-115.44 -19.54,-179.38 -27.19,-271.19 38.39,3.2 76.57,5.63 81.12,-26.26z"/>
   <path class="fil4" d="M37981.76 15138.04l81.13 0c170.52,569.72 412.46,1619.18 -352.55,1600.24 -361.71,-8.94 -578.43,-360.5 -542.45,-759.41 -259.37,39.01 -526.85,69.92 -705.24,189.83 -34.47,114 70.82,226.8 -27.04,244.07 -138.48,-37.88 -128.78,-266.04 -162.79,-406.78 -37.87,-157.71 -107.34,-320.43 -81.36,-433.98 156.73,-88.93 83.86,201.27 216.95,216.95 522.68,-119.39 1062.26,-221.57 1546.08,-379.67 27.88,-126.27 -58.85,-243.84 27.27,-271.26zm27.04 623.81c-241.26,48.03 -460.8,117.87 -705.09,162.79 -94.84,716.46 1060.97,421.63 705.09,-162.79z"/>
   <path class="fil4" d="M1203.42 15761.84l81.43 0c41.97,39.47 23.94,138.85 27.04,217.03 406.71,235.28 1029.76,254.15 1546.08,379.74 140.14,-4.54 72.19,-217.18 189.91,-244.15 78.86,214.83 -37.88,678.96 -162.79,867.96 -143.09,-12.27 43.94,-186.95 -54.24,-244.14 -468.3,-164.53 -1008.56,-257.56 -1573.12,-325.73 -120.75,15.15 -18.33,252.86 -189.83,217.02 -24.16,-252.86 114.92,-569.88 135.53,-867.73z"/>
   <path class="fil4" d="M38361.43 17416.32c138.25,96.81 71.96,398.15 108.48,596.77 -431.78,264.59 -894.92,497.3 -1301.86,786.52 466.1,175.74 938.41,345.27 1437.45,488.21 -2.12,192.48 82.8,441.02 27.12,596.69 -130.97,13.41 -91.5,-143.48 -135.59,-217.03 -545.64,-0.01 -1093.33,56.19 -1627.74,162.46 -65,34.31 15.15,213.84 -54.17,243.99 -163.47,-75 -139.61,-650.63 -135.59,-867.88 152.18,-16.59 70.3,200.96 162.79,244.15 442.77,-9.31 830.31,-73.78 1247.62,-108.48 -465.57,-221.57 -1060.52,-313.38 -1491.84,-569.57 392.77,-321.56 890.15,-538.36 1328.98,-813.72 -364.51,-30.3 -851.06,53.02 -1220.35,108.47 -76.36,32.27 39.69,256.8 -81.36,244.15 -128.32,-20.45 -118.85,-547.23 -108.63,-705.17 168.02,-32.43 78.33,192.86 162.79,244.07 542.07,-54.54 1140.35,-53.02 1600.16,-189.83 56.81,-51.78 -9.78,-226.83 81.73,-243.8z"/>
   <path class="fil4" d="M905.11 17741.83c166.13,-2.8 477.23,-7.57 488.22,54.24 -49.24,145.44 -218.69,79.09 -298.31,189.83 -69.76,97.04 -43.71,204.98 -54.31,379.74 505.02,89.72 1021.19,135.67 1535.22,135.67 11.76,0 26.72,0 38.47,0 107.49,-9.92 -21.36,-256.34 135.59,-216.95 68.18,161.81 26.51,675.02 -81.43,840.84 -109.54,1.21 -22.72,-194 -81.28,-244.07 -484.81,-84.92 -1045.37,-93.7 -1546.08,-162.72 -47.68,74.81 -72.85,161.79 -72.85,250.38 0,43.69 6.14,87.21 18.12,129.19 58.1,162.71 247.03,102.34 271.27,244.14 -70.68,107.19 -350.05,-23.33 -488.22,-27.12 29.16,-540.46 91.2,-1048 135.59,-1573.18z"/>
   <path class="fil4" d="M2559.58 19993.07l54.31 0c107.87,172.56 114.99,589.8 81.36,813.56 -141.05,23.48 -66.74,-168.32 -162.79,-189.38 -172.41,35.45 -278.39,137.41 -433.98,189.38 22.72,221.19 27.88,460.34 54.24,678.13 139.39,50.45 254.22,125.44 434.05,135.59 104.31,-13.18 15.15,-219.68 135.59,-217.02 96.66,120.59 104.23,473.89 54.16,651 -132.64,-2.95 -99.23,-171.88 -189.76,-217.03 -600.93,-221.8 -1256.18,-389.28 -1817.27,-650.93 82.26,-149.38 284.67,-223.31 433.9,-298.31 440.72,-221.49 1054.15,-409.74 1355.94,-813.79l0.23 -81.2zm-1220.8 1220.5c210.74,69.46 416.63,143.55 623.81,216.87 2.5,-201.34 3.56,-401.48 -54.24,-542.38 -168.62,129.46 -392.46,203.85 -569.57,325.5z"/>
   <path class="fil4" d="M36571.28 20806.64l81.35 0c142.11,8.33 -37.27,169.46 54.39,217.1 432.54,181.8 1040.74,188.62 1600.24,243.99 86.58,-30.83 25.68,-209.3 135.52,-216.95 93.25,419.89 -96.51,1023.55 -135.52,1491.76 -152.11,-28.86 -381.48,19.69 -461.17,-81.43 21.81,-149.91 288.76,-54.77 325.73,-189.91 31.81,-203.09 63.25,-406.86 81.28,-623.73 -160.06,-84.01 -429.13,-59.01 -623.73,-108.48 -77.57,130.52 -79.39,336.49 -81.36,542.46 -0.53,128.09 296.11,69.61 216.95,189.38 -122.26,72.8 -555.86,-1.52 -705.24,-81.36 -39.31,-129.76 113.63,-67.34 189.83,-81.36 164.23,-79.92 148.24,-339.97 162.79,-569.5 -201.11,-70.07 -461.1,-81.28 -705.09,-108.55 -43.63,200.74 -135.44,413.75 -108.63,596.84 36.29,245.89 308.54,274.9 298.46,461.02 -92.8,78.1 -335.88,-148.24 -488.29,-189.83 24.47,-526.54 133.93,-968.02 162.48,-1491.46z"/>
   <path class="fil4" d="M3047.87 22813.81c-104.39,319.52 -325.73,568.13 -515.11,813.72 -187.18,241.87 -408.6,459.06 -569.57,732.36 332.09,-56.96 865.07,-147.56 1193.38,-298.61 38.33,-103.55 -70.82,-197.33 0,-244.07 198.24,91.43 206.35,516.77 217.03,705.24 -166.65,22.2 -80.6,-208.77 -217.03,-217.02 -482.76,95.9 -944.69,212.63 -1410.33,325.73 -147.19,55.91 -61.28,348.45 -135.67,406.7 -91.81,-11.13 -208.46,-395.04 -189.38,-515.11 32.12,-207.71 348.46,-461.48 515.11,-678.05 202.03,-263.08 370.04,-512.23 515.11,-678.05 -321.26,22.72 -758.12,163.78 -1112.02,243.99 -71.58,82.34 32.65,217.63 -27.19,271.34 -199.3,-92.49 -204.53,-515.11 -216.87,-705.17 156.65,-30.3 88.7,164.38 162.72,216.87 647.21,-75.9 1177.7,-268.84 1789.84,-379.89z"/>
   <path class="fil4" d="M36245.85 23193.55l81.35 0c57.12,60.6 -28.56,130.82 0,244.15 401.48,213.01 963.78,265.89 1410.41,433.9 186.27,-21.44 210.36,-205.44 325.73,-298.38 160.59,66.43 -71.96,357.02 -54.24,542.53 -516.11,243.41 -1040.46,478.47 -1573.04,705.17 353.98,123.7 717.74,225.13 1085.39,298.27 123.93,-2.65 93.85,-159.07 162.72,-216.87 155.89,130.37 -37.04,563.51 -135.59,705.09 -145.59,-14.62 35.91,-194.98 -54.24,-244.07 -515.11,-235.59 -1180.2,-320.66 -1735.83,-515.11 59.09,-172.79 266.04,-181.81 406.86,-244.3 392.16,-174.23 855.98,-424.21 1301.78,-596.54 -359.14,-138.17 -770.77,-223.7 -1166.57,-325.73 -129.38,6.21 -43.41,227.78 -189.83,217.02 -97.14,-163.74 103.07,-490.3 135.11,-705.13z"/>
   <path class="fil4" d="M3508.9 25173.46l54.24 0c550.18,536.17 -273.16,1011.35 -325.73,1491.76 231.8,38.33 457.54,-154.61 678.05,-217.02 41.28,-147.04 -106.05,-249.3 0,-298.39 199.83,142.87 297.93,600.33 352.55,813.72 -128.78,94.99 -110.9,-149.15 -216.95,-162.79 -514.45,138.32 -1015.84,330.87 -1491.82,569.34 -35.68,119.69 90.14,233.31 -27.12,271.34 -221.72,-452.16 -665.62,-1169.14 -271.26,-1518.89 103.26,-72.29 226.56,-111.32 352.71,-111.32 64.42,0 128.69,10.19 189.9,30.12 28.93,11.06 173.84,115.64 216.95,217.02 84.35,-2.94 622.8,-781.44 488.49,-1084.9zm-1057.79 1844.24c221.27,-76.96 437.77,-159.07 651.01,-244.15 -17.27,-700.7 -1134.6,-330.28 -651.01,244.15z"/>
   <path class="fil4" d="M35432.21 26014.3l81.28 0c72.57,75.75 -25.3,133.85 -27.04,216.87 377.85,336.26 963.78,464.58 1437.45,705.24 70.9,-115.06 160.74,-224 135.59,-379.74 -24.16,-149.76 -190.13,-157.86 -162.64,-271.19 103.02,-106.05 311.34,136.35 461.1,162.72 -194.38,501.7 -436.93,955.3 -623.89,1464.57 -140.37,-68.18 -445.34,-114.69 -461.09,-217.03 235.36,-43.94 496.02,-107.57 515.11,-433.98 -453.98,-224 -928.71,-427.39 -1410.33,-623.73 -133.55,-24.01 -127.64,232.71 -217.02,162.72 -74.85,-213.02 214.14,-525.49 271.49,-786.45z"/>
   <path class="fil4" d="M34021.8 27641.58l81.36 0c130.52,95.6 110.3,341.79 325.73,352.55 -31.51,-156.35 152.19,-367.46 352.55,-217.02 154,687.21 -868.94,375.5 -759.63,-135.52z"/>
   <path class="fil4" d="M5407.45 29079.41c-98.48,-28.33 -93.93,-159.07 -189.83,-189.83 -496.62,253.69 -999.91,500.34 -1410.41,840.84 -3.03,100.75 126.05,159.07 54.31,244.3 -218.09,-133.47 -308.91,-409.06 -433.98,-623.88 -138.78,-217.41 -267.24,-446.24 -379.65,-678.28 135.9,-54.24 295.89,-227.79 406.78,-217.03 90.9,139.54 -122.34,176.04 -135.59,298.46 48.1,259.3 230.51,384.21 298.31,623.88 229,-78.56 396.33,-218.69 596.69,-325.73 -93.02,-178.09 -165.14,-377.09 -325.73,-488.06 -98.02,-23.86 -181.05,106.05 -244.15,27.04 -37.35,-110.98 162.34,-180.21 271.27,-244.07 108.93,-63.85 252.93,-178.31 352.55,-135.59 -231.19,229.98 -67.57,545.41 108.47,732.21 216.2,-101.04 425.24,-219.99 623.67,-352.48 -136.95,-376.63 -294.29,-685.32 -813.72,-705.09 91.43,-143.93 369.21,-101.05 542.46,-162.79 102.42,223.39 274.6,448.3 406.86,678.05 126.92,219.38 309.63,457.69 271.68,678.06z"/>
   <path class="fil4" d="M33642.14 29431.65c15.15,123.7 -102.34,114.61 -81.36,244.07 373.61,358.53 827.58,636.99 1274.66,922.19 169.15,27.12 136.35,-208.32 271.27,-135.67 18.03,116.28 -120.45,298.46 -216.87,433.98 -83.33,117.49 -207.86,337.62 -298.39,271.19 -115.06,-4.02 59.46,-121.2 54.24,-189.83 -333.91,-416.63 -872.88,-628.05 -1274.81,-976.35 -151.5,-7.04 -130.06,159.07 -271.19,162.79 -51.06,-216.19 323.91,-487.99 433.9,-759.63 48.71,-3.33 57.19,33.34 108.55,27.28z"/>
   <path class="fil4" d="M6004.14 29838.51c43.86,-7.57 46.74,25.6 81.43,27.04 108.1,244.91 504.43,459.13 433.98,705.32 -90.44,-36.13 -116.5,-136.73 -217.03,-162.94 -449.35,283.08 -802.96,661.69 -1247.62,949.46 48.4,150.44 163.32,234.45 271.26,325.35 178.77,57.11 275.58,-150.22 352.55,-26.97 -17.04,123.7 -262.78,239.68 -406.86,325.73 -320.43,-411.68 -645.88,-818.48 -976.36,-1220.42 110.97,-118.86 274.3,-317.4 406.78,-325.73 40.37,139.69 -101.51,212.1 -81.36,379.66 16.13,134.31 154.23,174.23 189.83,298.39 440.43,-301.85 858.17,-639.71 1247.1,-1003.76 14.84,-142.13 -175.07,-176.14 -53.72,-271.13z"/>
   <path class="fil4" d="M32638.51 30597.92c43.86,-7.57 46.74,25.6 81.43,27.12 81.36,101.2 -96.43,124.38 -81.43,244.07 303.91,410.42 723.95,704.48 1084.91,1057.86 186.2,17.2 285.35,-176.19 406.93,-135.67 21.21,188.24 -260.96,296.49 -352.62,461.18 -557.3,-39.32 -1122.33,-71.13 -1681.67,-108.63 245.55,278.34 518.98,534.15 813.54,759.66 164.38,37.88 124.31,-128.78 271.19,-108.48 -10.6,219.68 -343.23,484.43 -488.14,569.5 -119.76,-93.4 65.3,-132.11 81.43,-243.99 -373.22,-494.88 -924.16,-811.37 -1302.01,-1301.78 610.18,-57.87 1288.38,49.09 1898.63,81.21 -278.51,-299.57 -578.64,-582.84 -894.51,-841.38 -135.06,-15.15 -155.52,190.59 -271.27,108.48 15.14,-213.03 337.09,-347.04 433.59,-569.14z"/>
   <path class="fil4" d="M7495.9 31438.76c-35.68,615.17 -111.96,1189.97 -135.59,1817.11 259.07,-174.83 573.43,-529.5 813.64,-813.56 43.71,-163.32 -183.62,-162.49 -81.35,-298.46 217.18,119.46 477.23,333.84 515.11,542.61 -82.57,62.87 -116.96,-104 -216.95,-108.63 -130.9,228.47 -1050.06,762.51 -1084.91,1112.02 -17.5,175.74 195.67,241.11 108.55,379.74 -156.05,-11.06 -300.73,-256.8 -434.05,-379.74 41.59,-555.1 96.81,-1096.5 135.67,-1654.4 -257.56,167.48 -554.12,530.71 -786.6,813.56 -10.91,123.1 183.09,143.1 108.47,244.15 -200.66,-29.46 -476.17,-351.41 -542.45,-515.11 111.05,-91.28 108.09,112.72 244.07,81.51 471.63,-360.27 850.83,-812.81 1247.7,-1247.77 48.86,-3.64 57.12,33.03 108.7,26.97z"/>
   <path class="fil4" d="M31038.35 34693.4c-83.33,49.54 54.54,152.11 -27.12,189.98 -176.87,-35.83 -430.64,-360.43 -488.29,-515.48 164.15,-36.59 227.26,113.02 379.82,135.67 344.74,51.36 678.65,-170.59 705.01,-515.11 40.22,-522.23 -534.8,-1116.72 -1030.22,-1030.21 -336.56,58.25 -524.05,400.04 -515.11,840.83 -291.26,-81.66 -35.07,-680.39 81.28,-813.56 356.56,-407.46 1003.02,-403.3 1383.37,-54.17 598.74,549.2 414.2,1646.76 -488.75,1762.05z"/>
   <path class="fil4" d="M10045.46 33689.85c-79.77,106.66 -148.55,-25.45 -244.15,-54.16 -396.63,353.76 -669.49,831.22 -976.35,1274.74 -16.89,159.08 200.66,143.93 108.48,298.39 -253.38,-143.63 -491.65,-316.8 -705.45,-514.89 31.51,-183.32 124.91,30.3 244.14,0 400.57,-340.88 646.31,-836.36 976.43,-1247.54 21.44,-149.15 -210.67,-155.21 -135.59,-271.19 252.98,55.99 543.64,304.38 732.49,514.67z"/>
   <path class="fil4" d="M29383.87 33662.73c232.48,-52.19 278.54,305.43 81.35,352.63 -188.62,45.07 -400.72,-280.81 -81.35,-352.63z"/>
   <path class="fil4" d="M27403.89 35371.59c289.9,-77.26 520.26,61.51 569.57,271.04 202.48,859.47 -1093.31,650.4 -867.88,-27.04 34.01,-102.27 119.46,-196.65 298.31,-244z"/>
   <path class="fil4" d="M12079.6 35452.8c272.7,-84.92 535.11,16.59 596.77,244.14 198.01,731.15 -1124.15,815.31 -867.96,0 43.9,-121.52 145.77,-213.19 271.21,-244.13l-0.02 -0.01z"/>
   <path class="fil4" d="M24013.57 38137.95c29.31,-151.5 211.35,-150.44 298.31,-244.07 151.5,-163.09 197.86,-402.77 216.95,-705.17 -109.46,32.57 -228.47,181.28 -406.78,189.98 -548.97,26.67 -816.44,-834.32 -406.86,-1193.53 475.72,-417.24 1109.75,108.32 1139.22,786.52 27.8,643.13 -289.22,1064.07 -840.84,1166.26zm189.83 -1003.55c542.91,15.98 182.64,-1048.62 -271.27,-867.88 -361.63,144.15 -26.51,859.32 271.27,867.88z"/>
   <path class="fil4" d="M21870.95 36592.02c-371.63,143.93 -656.38,374.36 -759.48,786.67 134.38,2.05 230.66,-102.72 433.9,-81.35 685.02,71.28 609.95,1459.65 -325.73,1274.59 -911.44,-427.91 -359.37,-2239.96 651.31,-1979.91zm-406.86 1844.39c507.53,-37.27 176.2,-1361.47 -379.67,-840.84 -15.38,395.8 46.81,865.08 379.67,840.84z"/>
   <path class="fil4" d="M17694.04 38463.45c410.04,-87.11 710.39,-284.22 840.84,-650.93 -1059.83,364.97 -997.19,-1537.74 27.12,-1220.5 997.57,309.06 86.43,2369.34 -867.96,1871.43zm813.65 -1708.64c-414.06,-279.07 -593.36,577.3 -298.39,867.88 127.57,59.62 297.78,12.73 406.94,-27.27 60.52,-288.31 87.41,-708.65 -108.55,-840.61z"/>
   <path class="fil4" d="M4307.56 8740.54c700.93,-13.31 1474.92,533.13 2149.84,319.19 -39.42,184.43 -333.46,590.91 -474.59,661.44 -130.48,-60.23 92.44,-166.76 7.99,-232.78 -151.22,-120.72 -280.15,-72.15 -426.65,-157.13l-413.42 537.44c22.87,138.87 144.15,264.85 206.7,398.59 105.33,66.21 174.65,-142.81 277.78,-94.24 16.02,153.1 -273.73,447.91 -391.87,553.91 -121.19,-61.49 40.5,-159.99 8.27,-233.14 -286.12,-575.13 -656.58,-1139.27 -977.44,-1709.87l33.39 -43.41zm747.3 985.8c118.48,-129.91 161.35,-336.72 314.07,-408.28 -209.04,-90.81 -432.7,-146.81 -659.82,-165.38 110.85,191.61 214.85,384.29 345.85,573.55l-0.09 0.12z"/>
  </g>
 </g>
</svg>
