<?xml version="1.0" encoding="UTF-8"?>
<!DOCTYPE svg PUBLIC "-//W3C//DTD SVG 1.1//EN" "http://www.w3.org/Graphics/SVG/1.1/DTD/svg11.dtd">
<!-- Creator: CorelDRAW 2020 (64-Bit) -->
<svg xmlns="http://www.w3.org/2000/svg" xml:space="preserve" width="39.3701in" height="39.3701in" version="1.1" style="shape-rendering:geometricPrecision; text-rendering:geometricPrecision; image-rendering:optimizeQuality; fill-rule:evenodd; clip-rule:evenodd"
viewBox="0 0 39370.08 39370.08"
 xmlns:xlink="http://www.w3.org/1999/xlink"
 xmlns:xodm="http://www.corel.com/coreldraw/odm/2003">
 <defs>
  <style type="text/css">
   <![CDATA[
    .fil0 {fill:#023867}
   ]]>
  </style>
 </defs>
 <g id="Layer_x0020_1">
  <metadata id="CorelCorpID_0Corel-Layer"/>
  <path class="fil0" d="M-1.63 19686.67l19685.04 -19412.21 19685.04 19412.21 -25.82 25.46 0 -50.93 25.82 25.46 -19685.04 19412.21 -19685.04 -19412.21zm15457.62 -2209.31c270.84,-301.39 678.11,-553.38 1028.12,-633.93 1041.66,-1455.56 2148.16,-2498.89 3231.49,-3779.44 727.78,-1327.78 -290.28,-3763.89 2404.17,-3208.33 1350,300 1716.67,2800 1000,4200 -200,361.11 -400,722.22 -600,1083.33 -133.33,150 -75,450 166.67,425 1138.89,-86.11 2311.11,-13.89 3450,116.67 1258.33,144.44 1900,2522.22 891.67,3616.66 297.22,775 236.11,1991.67 -325,2541.67 233.33,636.11 241.67,1505.56 -450,2233.33 272.22,1005.56 -322.59,3126.51 -2600.38,3082.07 -2444.56,-76.23 -4772.45,-652.46 -6883.67,-1428.69 -461.11,-183.33 -938.19,-370.05 -1399.3,-553.38l86.23 -7694.96zm-4652.85 -477.94l3033.35 0c430.83,0 783.33,352.5 783.33,783.33l0 7200.01c0,430.83 -352.5,783.33 -783.33,783.33l-3033.35 0c-430.83,0 -783.33,-352.5 -783.33,-783.33l0 -7200.01c0,-430.83 352.5,-783.33 783.33,-783.33zm1391.65 5631.24c469.44,0 850,380.56 850,850 0,469.44 -380.56,850 -850,850 -469.44,0 -850,-380.56 -850,-850 0,-469.44 380.56,-850 850,-850z"/>
 </g>
</svg>
