<?xml version="1.0" encoding="UTF-8"?>
<!DOCTYPE svg PUBLIC "-//W3C//DTD SVG 1.1//EN" "http://www.w3.org/Graphics/SVG/1.1/DTD/svg11.dtd">
<!-- Creator: CorelDRAW 2020 (64-Bit) -->
<svg xmlns="http://www.w3.org/2000/svg" xml:space="preserve" width="39.3701in" height="39.3701in" version="1.1" style="shape-rendering:geometricPrecision; text-rendering:geometricPrecision; image-rendering:optimizeQuality; fill-rule:evenodd; clip-rule:evenodd"
viewBox="0 0 39370.08 39370.08"
 xmlns:xlink="http://www.w3.org/1999/xlink"
 xmlns:xodm="http://www.corel.com/coreldraw/odm/2003">
 <defs>
  <style type="text/css">
   <![CDATA[
    .str0 {stroke:#959597;stroke-width:7.87;stroke-miterlimit:2.61313;stroke-opacity:0.501961}
    .str1 {stroke:#0E3458;stroke-width:69.44;stroke-miterlimit:22.9256}
    .fil2 {fill:none}
    .fil8 {fill:none;fill-rule:nonzero}
    .fil1 {fill:none}
    .fil4 {fill:#085188}
    .fil3 {fill:#E6EEF7}
    .fil0 {fill:white}
    .fil6 {fill:#085188;fill-rule:nonzero}
    .fil9 {fill:#0E3458;fill-rule:nonzero}
    .fil7 {fill:#AAC4DB;fill-rule:nonzero}
    .fil5 {fill:white;fill-rule:nonzero}
   ]]>
  </style>
   <clipPath id="id0">
    <path d="M33300.1 28484.14c-2914.91,4569.23 -8028.61,7599.54 -13850.26,7599.54 -5850.38,0 -10985.21,-3060.71 -13892.78,-7667.66l13534.69 -1877.14 14208.36 1945.25z"/>
   </clipPath>
 </defs>
 <g id="Layer_x0020_1">
  <metadata id="CorelCorpID_0Corel-Layer"/>
  <path class="fil0" d="M19449.83 3249.04c9067.04,0 16417.32,7350.28 16417.32,16417.32 0,9067.04 -7350.29,16417.32 -16417.32,16417.32 -9067.04,0 -16417.32,-7350.28 -16417.32,-16417.32 0,-9067.04 7350.29,-16417.32 16417.32,-16417.32z"/>
  <g>
  </g>
  <g style="clip-path:url(#id0)">
   <g>
    <g id="_2629347570752">
     <polyline class="fil1 str0" points="19210.25,36081.97 19210.25,26514.76 19211.3,26522.35 "/>
     <polyline class="fil1 str0" points="9883.5,33010.07 9989.13,32939.16 19210.25,26514.76 11774,34182.48 "/>
     <polyline class="fil1 str0" points="7930.8,31214.15 19211.3,26522.35 8614.5,32000.5 "/>
     <polyline class="fil1 str0" points="7289.13,30572.48 19210.25,26514.76 6736.64,30054.8 "/>
     <polyline class="fil1 str0" points="6416.83,29651.18 19210.25,26514.76 6050,29193.71 "/>
     <polyline class="fil1 str0" points="5857.19,28876.23 19194.44,26531.06 5696.18,28634.5 "/>
     <line class="fil1 str0" x1="19157.27" y1="26529.8" x2="5555.97" y2= "28416.17" />
     <polyline class="fil1 str0" points="28881.43,33256.76 28771.91,33183.24 19211.33,26522.35 26921.33,34472.34 "/>
     <polyline class="fil1 str0" points="30906.01,31394.73 19210.25,26530.22 30197.13,32210.03 "/>
     <polyline class="fil1 str0" points="31571.3,30729.44 19211.33,26522.35 32144.13,30192.7 "/>
     <polyline class="fil1 str0" points="32475.71,29774.23 19211.33,26522.35 32856.05,29299.91 "/>
     <polyline class="fil1 str0" points="33055.95,28970.75 19227.72,26539.25 33222.89,28720.12 "/>
     <line class="fil1 str0" x1="19266.26" y1="26537.94" x2="33368.26" y2= "28493.76" />
     <line class="fil1 str0" x1="23841.4" y1="36008.95" x2="19227.72" y2= "26539.25" />
     <line class="fil1 str0" x1="14868.56" y1="35435.96" x2="19211.3" y2= "26522.35" />
    </g>
    <g id="_2629347571040">
     <line class="fil1 str0" x1="2693.58" y1="35039.03" x2="35726.91" y2= "35039.03" />
     <line class="fil1 str0" x1="2693.58" y1="33068.19" x2="35726.91" y2= "33068.19" />
     <line class="fil1 str0" x1="2693.58" y1="31830.69" x2="35726.91" y2= "31830.69" />
     <line class="fil1 str0" x1="2647.43" y1="30989.02" x2="35680.76" y2= "30989.02" />
     <line class="fil1 str0" x1="2693.58" y1="30405.69" x2="35726.91" y2= "30405.69" />
     <line class="fil1 str0" x1="2668.27" y1="29934.85" x2="35701.6" y2= "29934.85" />
     <line class="fil1 str0" x1="2827.51" y1="29601.5" x2="35860.83" y2= "29601.5" />
     <line class="fil1 str0" x1="2827.51" y1="29249.16" x2="35860.83" y2= "29249.16" />
     <line class="fil1 str0" x1="2827.51" y1="29027.93" x2="35860.83" y2= "29027.93" />
     <line class="fil1 str0" x1="2614.42" y1="28755.64" x2="35647.74" y2= "28755.64" />
     <line class="fil1 str0" x1="2614.42" y1="28507.33" x2="35647.74" y2= "28507.33" />
     <line class="fil1 str0" x1="2614.42" y1="28351.41" x2="35647.74" y2= "28351.41" />
     <line class="fil1 str0" x1="2568.27" y1="28245.37" x2="35601.59" y2= "28245.37" />
     <line class="fil1 str0" x1="2748.34" y1="27998.29" x2="35781.67" y2= "27998.29" />
     <line class="fil1 str0" x1="2693.58" y1="27876.38" x2="35726.91" y2= "27876.38" />
     <line class="fil1 str0" x1="2693.58" y1="27502.07" x2="35726.91" y2= "27502.07" />
     <line class="fil1 str0" x1="2693.58" y1="27267.04" x2="35726.91" y2= "27267.04" />
     <line class="fil1 str0" x1="2647.43" y1="27107.19" x2="35680.76" y2= "27107.19" />
     <line class="fil1 str0" x1="2693.58" y1="26996.4" x2="35726.91" y2= "26996.4" />
     <line class="fil1 str0" x1="2668.27" y1="26906.97" x2="35701.6" y2= "26906.97" />
     <line class="fil1 str0" x1="2827.51" y1="26843.66" x2="35860.83" y2= "26843.66" />
     <line class="fil1 str0" x1="2827.51" y1="26776.74" x2="35860.83" y2= "26776.74" />
     <line class="fil1 str0" x1="2827.51" y1="26734.73" x2="35860.83" y2= "26734.73" />
     <line class="fil1 str0" x1="2614.42" y1="26683.02" x2="35647.74" y2= "26683.02" />
     <line class="fil1 str0" x1="2614.42" y1="26635.85" x2="35647.74" y2= "26635.85" />
     <line class="fil1 str0" x1="2614.42" y1="26606.24" x2="35647.74" y2= "26606.24" />
     <line class="fil1 str0" x1="2568.27" y1="26586.1" x2="35601.59" y2= "26586.1" />
     <line class="fil1 str0" x1="2614.42" y1="26572.14" x2="35647.74" y2= "26572.14" />
     <line class="fil1 str0" x1="2589.11" y1="26560.88" x2="35622.43" y2= "26560.88" />
     <line class="fil1 str0" x1="2748.34" y1="26552.9" x2="35781.67" y2= "26552.9" />
     <line class="fil1 str0" x1="2748.34" y1="26544.47" x2="35781.67" y2= "26544.47" />
     <line class="fil1 str0" x1="2748.34" y1="26539.17" x2="35781.67" y2= "26539.17" />
     <line class="fil1 str0" x1="2702.19" y1="26535.57" x2="35735.52" y2= "26535.57" />
     <line class="fil1 str0" x1="2748.34" y1="26533.08" x2="35781.67" y2= "26533.08" />
     <line class="fil1 str0" x1="2723.03" y1="26531.06" x2="35756.36" y2= "26531.06" />
    </g>
   </g>
  </g>
  <path class="fil2" d="M33300.1 28484.14c-2914.91,4569.23 -8028.61,7599.54 -13850.26,7599.54 -5850.38,0 -10985.21,-3060.71 -13892.78,-7667.66l13534.69 -1877.14 14208.36 1945.25z"/>
  <path class="fil3" d="M19449.83 886.83c10371.65,0 18779.53,8407.88 18779.53,18779.53 0,10371.65 -8407.88,18779.53 -18779.53,18779.53 -10371.65,0 -18779.53,-8407.88 -18779.53,-18779.53 0,-10371.65 8407.88,-18779.53 18779.53,-18779.53zm0 1240.16c9686.72,0 17539.37,7852.65 17539.37,17539.37 0,9686.72 -7852.65,17539.37 -17539.37,17539.37 -9686.72,0 -17539.37,-7852.65 -17539.37,-17539.37 0,-9686.72 7852.65,-17539.37 17539.37,-17539.37z"/>
  <path class="fil4" d="M19449.83 2126.99c9686.72,0 17539.37,7852.64 17539.37,17539.37 0,9686.73 -7852.65,17539.37 -17539.37,17539.37 -9686.72,0 -17539.37,-7852.64 -17539.37,-17539.37 0,-9686.73 7852.65,-17539.37 17539.37,-17539.37zm0 1122.05c9067.04,0 16417.32,7350.28 16417.32,16417.32 0,9067.04 -7350.29,16417.32 -16417.32,16417.32 -9067.04,0 -16417.32,-7350.28 -16417.32,-16417.32 0,-9067.04 7350.29,-16417.32 16417.32,-16417.32z"/>
  <path class="fil5" d="M18083.54 27274.39c-95.5,-160.48 -233.23,-383.6 -395.59,-643.62 -168.22,-269.41 -342.39,-545.77 -522.9,-832.17 -6.26,-6.89 -8.29,-10.99 -12.09,-19.17 -1210.56,-1920.66 -2706.05,-4294.03 -3183.82,-6052.82 -22.9,-84.33 -43.4,-172.79 -61.54,-265.15 -17.83,-90.81 -33.46,-186.93 -46.92,-288.1 -12.28,-92.3 -21.44,-184.83 -27.54,-277.47 -6.11,-92.78 -9.26,-188.16 -9.52,-285.91 -0.79,-286.61 26.34,-567.63 78.65,-841.02 54.04,-282.4 134.73,-556.8 239.09,-820.94 104.98,-265.7 234.93,-523.44 386.64,-770.65 154.29,-251.41 331.04,-491.57 526.83,-717.73 183.76,-212.26 384.56,-411.81 599.4,-596.23 215.15,-184.69 444.63,-354.41 685.43,-506.73 240.12,-151.89 491.45,-286.67 751.01,-401.96 256.36,-113.87 518.91,-208.06 784.72,-280.26 103.63,-28.15 211.17,-53.41 322.49,-75.65 108.2,-21.61 222,-40.58 341.35,-56.78 109.28,-14.83 220.06,-26.11 332.18,-33.68 109.95,-7.42 223.6,-11.36 340.85,-11.69 117.35,0.32 231.07,4.27 341.11,11.7 112.22,7.57 223.09,18.87 332.46,33.72 119.44,16.22 233.33,35.21 341.6,56.84 111.42,22.26 219.04,47.55 322.74,75.72 265.86,72.24 528.44,166.46 784.83,280.35 259.59,115.3 510.94,250.09 751.08,401.99 240.81,152.31 470.31,322.03 685.48,506.71 214.86,184.42 415.69,383.96 599.47,596.22 195.8,226.13 372.56,466.25 526.86,717.64 151.72,247.19 281.69,504.93 386.69,770.62 104.37,264.1 185.07,538.46 239.11,820.85 52.32,273.37 79.45,554.38 78.66,840.98 -0.27,97.77 -3.42,193.16 -9.53,285.96 -6.1,92.64 -15.26,185.15 -27.54,277.44 -13.47,101.19 -29.1,197.31 -46.94,288.13 -18.14,92.35 -38.64,180.79 -61.54,265.1 -121.08,445.55 -308.43,932.43 -540.84,1442.98 -231.45,508.43 -507.44,1039.67 -807.02,1576.46 -291.23,521.85 -602.24,1045.08 -914.42,1555.16 -298.29,487.4 -599.62,965.94 -885.69,1419.67l0.61 0.37 -36.92 59.22 -5.8 7.21c-182.2,288.98 -357.92,567.68 -527.91,839.8 -163.33,261.46 -301.88,485.8 -397.8,646.93l-1128.94 1896.39 -1128.55 -1896.39zm-277.86 -716.87c155.52,249.06 291.93,470.33 396.68,646.34l1009.75 1696.77 1010.1 -1696.77c105.17,-176.66 242.39,-399.13 398.89,-649.64 140.2,-224.43 314.29,-500.66 496.15,-789.11l37.21 -59.02c295.6,-468.83 608.61,-965.3 921.81,-1477.06 312.28,-510.26 622.65,-1032.33 911.71,-1550.28 298.11,-534.15 572.5,-1062.22 802.14,-1566.69 228.68,-502.35 413.18,-982 532.7,-1421.81 22.31,-82.1 42.09,-167.28 59.38,-255.33 17.98,-91.54 33.24,-184.74 45.85,-279.45 11.65,-87.52 20.44,-176.98 26.46,-268.22 6.13,-93.05 9.28,-185.51 9.53,-277.28 0.76,-276.81 -25.62,-549.15 -76.49,-814.94 -52.26,-273.06 -130.59,-539.1 -232.06,-795.89 -102.4,-259.12 -228.72,-509.76 -375.84,-749.46 -150.37,-244.99 -322.57,-478.93 -513.29,-699.19 -179.12,-206.86 -375.04,-401.5 -584.83,-581.57 -210.33,-180.54 -434.39,-346.25 -669.2,-494.77 -235.69,-149.08 -481.06,-280.78 -733.18,-392.77 -247.63,-110 -503.64,-201.65 -765.3,-272.75 -100.72,-27.36 -205.26,-51.93 -313.52,-73.56 -109.22,-21.82 -220.26,-40.45 -332.93,-55.75 -104.87,-14.24 -212.65,-25.17 -323.23,-32.63 -110.29,-7.45 -220.98,-11.39 -331.89,-11.7 -110.81,0.3 -221.43,4.24 -331.63,11.69 -110.49,7.46 -218.18,18.37 -322.95,32.59 -112.57,15.28 -223.52,33.89 -332.67,55.69 -108.17,21.6 -212.63,46.15 -313.27,73.48 -261.61,71.06 -517.58,162.69 -765.19,272.67 -252.09,111.97 -497.43,243.67 -733.11,392.74 -234.8,148.53 -458.84,314.25 -669.16,494.79 -209.77,180.07 -405.66,374.72 -584.76,581.59 -190.71,220.29 -362.9,454.27 -513.27,699.28 -147.11,239.71 -273.41,490.37 -375.79,749.5 -101.47,256.82 -179.8,522.9 -232.05,795.98 -50.86,265.81 -77.24,538.16 -76.48,814.98 0.25,91.74 3.4,184.19 9.52,277.23 6.01,91.24 14.8,180.72 26.45,268.24 12.6,94.69 27.86,187.89 45.83,279.42 17.29,88.07 37.07,173.27 59.37,255.39 472.95,1741.05 1963.65,4106.18 3169.42,6019.22 1.31,1.31 2.22,3.86 3.08,5.59l2.35 3.02c193.26,306.63 379.35,601.89 527.69,839.45zm1406.79 -2445.14c247.47,-392.96 504.89,-803.74 761.63,-1224.28 275.22,-450.83 548.63,-911.41 805.96,-1370.23 259.08,-461.94 495.71,-912.32 690.61,-1332.53 194.22,-418.72 347.25,-807.97 440.03,-1149.39 11.56,-42.53 21.07,-81.43 28.59,-116.78 7.85,-36.94 13.93,-71.05 18.25,-102.35 5.22,-37.81 9.19,-74.35 11.92,-109.6 2.82,-36.38 4.26,-68.78 4.33,-97.25 0.32,-116.93 -11.9,-234.08 -35.44,-350.34 -24.22,-119.69 -60.68,-238.96 -108,-356.6 -50.79,-126.27 -114.19,-249.93 -188.59,-369.62 -76.15,-122.51 -163.44,-240.33 -260.19,-352.06 -98.81,-114.12 -207.21,-221.69 -323.54,-321.39 -116.65,-99.98 -241.07,-191.88 -371.62,-274.38 -127.42,-80.52 -261.84,-152.28 -401.72,-214.02 -137.06,-60.5 -279.28,-111.17 -425.16,-150.81 -61.74,-16.78 -120.2,-31.05 -175.13,-42.69 -55.63,-11.79 -108.52,-21.24 -158.46,-28.24 -56.19,-7.88 -111.11,-13.94 -164.59,-18.09 -53.7,-4.17 -103.48,-6.37 -149.07,-6.49 -45.5,0.12 -95.19,2.31 -148.8,6.47 -53.42,4.15 -108.26,10.2 -164.35,18.06 -49.88,6.99 -102.69,16.42 -158.22,28.19 -54.85,11.62 -113.21,25.86 -174.85,42.6 -145.85,39.62 -288.04,90.27 -425.06,150.75 -139.84,61.72 -274.23,133.47 -401.62,213.98 -130.51,82.48 -254.91,174.38 -371.54,274.37 -116.31,99.7 -224.69,207.29 -323.51,321.44 -96.71,111.71 -183.99,229.53 -260.13,352.07 -74.39,119.71 -137.78,243.39 -188.57,369.71 -47.31,117.65 -83.77,236.95 -107.99,356.67 -23.53,116.29 -35.74,233.47 -35.43,350.44 0.07,28.48 1.51,60.88 4.33,97.26 2.73,35.26 6.7,71.8 11.91,109.59 4.33,31.33 10.39,65.45 18.25,102.4 7.51,35.35 17.02,74.24 28.56,116.73 183.75,676.43 599.18,1534.55 1104.63,2439.46 488.91,875.28 1062.46,1794.95 1592.58,2636.96zm879.91 -1152.12c-275.41,451.13 -554.51,895.56 -821.32,1318.93l-58.6 92.99 -58.59 -92.99c-546.88,-868.09 -1145.73,-1824.82 -1654.96,-2736.5 -510.74,-914.38 -930.88,-1782.81 -1117.66,-2470.39 -11.59,-42.68 -21.65,-84.13 -30.19,-124.32 -8.38,-39.41 -14.99,-76.8 -19.87,-112.17 -5.85,-42.36 -10.17,-81.78 -13,-118.27 -2.8,-36.13 -4.24,-72.01 -4.33,-107.57 -0.35,-126.13 12.81,-252.38 38.13,-377.57 26.11,-129.05 64.94,-256.49 115.04,-381.08 54.05,-134.41 121.08,-265.33 199.43,-391.41 79.57,-128.04 171.22,-251.68 273.16,-369.43 103.51,-119.56 216.8,-232.04 338.16,-336.08 121.5,-104.16 251.34,-200.05 387.81,-286.3 133.84,-84.59 274.24,-159.61 419.52,-223.74 143.81,-63.48 292.55,-116.5 444.6,-157.81 61.88,-16.81 122.75,-31.58 182.44,-44.23 57.88,-12.26 113.93,-22.23 167.98,-29.81 60.47,-8.47 118.22,-14.89 173.04,-19.15 53.37,-4.15 106.44,-6.33 159.11,-6.47 52.76,0.14 105.92,2.33 159.38,6.49 54.89,4.26 112.73,10.69 173.28,19.18 54.13,7.59 110.26,17.58 168.23,29.86 59.78,12.67 120.74,27.48 182.72,44.32 152.09,41.33 300.85,94.37 444.7,157.87 145.32,64.14 285.75,139.19 419.62,223.78 136.5,86.26 266.37,182.16 387.89,286.32 121.37,104.03 234.67,216.5 338.18,336.04 101.97,117.76 193.63,241.39 273.21,369.42 78.35,126.06 145.39,256.95 199.44,391.32 50.11,124.57 88.94,251.99 115.06,381.02 25.33,125.16 38.49,251.37 38.15,377.47 -0.09,35.56 -1.53,71.43 -4.33,107.56 -2.83,36.49 -7.15,75.91 -13.01,118.29 -4.88,35.35 -11.49,72.72 -19.87,112.12 -8.56,40.21 -18.62,81.68 -30.22,124.37 -94.7,348.49 -250.54,745.02 -448.17,1171.1 -196.94,424.61 -435.15,878.11 -695.5,1342.29 -256.82,457.92 -531.42,920.43 -808.67,1374.57z"/>
  <path class="fil6" d="M18142.94 27239.12c-200.25,-336.51 -548.25,-888.72 -923.55,-1484.16 -3.39,-3.39 -2.97,-3.71 -5.36,-8.5 -1208.39,-1917.21 -2702.36,-4287.5 -3177.89,-6038.04 -45.46,-167.35 -80.9,-349.2 -106.83,-544.03 -24.06,-180.79 -36,-365.91 -36.52,-554.43 -1.57,-571.94 110.31,-1123.13 313.14,-1636.46 209.39,-529.95 518.45,-1026.4 901.27,-1468.58 363.22,-419.56 794.23,-789.11 1269.37,-1089.67 472.23,-298.71 985.55,-529.45 1517.01,-673.81 203.28,-55.22 421.82,-99.16 654.89,-130.8 212.88,-28.9 434.45,-44.19 663.81,-44.82 229.55,0.63 451.3,15.94 664.34,44.87 233.28,31.68 451.98,75.67 655.39,130.94 531.54,144.44 1044.93,375.21 1517.2,673.93 475.16,300.54 906.21,670.09 1269.49,1089.63 382.83,442.12 691.91,938.52 901.34,1468.46 202.84,513.26 314.73,1064.41 313.16,1636.32 -0.52,188.54 -12.46,373.67 -36.53,554.45 -25.94,194.86 -61.39,376.69 -106.85,544.01 -240.61,885.37 -743.67,1933.02 -1341.35,3003.97 -580.3,1039.8 -1242.74,2090.59 -1835.42,3030.59l0.83 0.52 -0.21 0.33 -3.12 3.12c-377.42,598.6 -727.84,1154.38 -928.93,1492.17l-1069.52 1796.58 -1069.15 -1796.58zm1069.52 -2996.83c532.11,-844.37 1113.93,-1773.78 1628.09,-2690.52 519.43,-926.13 949.67,-1807.74 1137.16,-2497.66 23.28,-85.68 39.3,-161.49 48.46,-227.81 11.13,-80.61 16.63,-152.64 16.8,-216.35 0.68,-246.71 -52.32,-494.05 -148.32,-732.72 -105.87,-263.19 -263.9,-513.91 -460.72,-741.2 -202.53,-233.89 -443.82,-440.46 -710.61,-609.07 -259.33,-163.89 -545.35,-291.65 -845.6,-373.24 -123.13,-33.46 -237.69,-57.89 -342.28,-72.56 -116.09,-16.28 -224.25,-24.85 -323.16,-25.13 -98.75,0.27 -206.74,8.83 -322.65,25.08 -104.45,14.64 -218.83,39.02 -341.75,72.41 -300.17,81.54 -586.13,209.27 -845.4,373.14 -266.72,168.57 -507.98,375.15 -710.51,609.09 -196.76,227.27 -354.77,478.03 -460.65,741.31 -95.99,238.69 -148.98,486.08 -148.3,732.88 0.17,63.72 5.66,135.76 16.79,216.35 9.16,66.35 25.17,142.17 48.44,227.81 370.53,1364.02 1671.13,3453.07 2764.21,5188.17z"/>
  <path class="fil7" d="M18826.13 26833.58c-242.42,-407.37 -577.43,-938.88 -938.24,-1511.32 -1178.35,-1869.55 -2635.19,-4180.92 -3081.22,-5822.85 -79.64,-293.17 -117.57,-591.11 -118.39,-889.44 -2.63,-952.69 391.63,-1857.11 1020.99,-2584.07 619.87,-715.99 1470.73,-1263.3 2393.32,-1513.92 356.83,-96.93 729.62,-149.61 1109.69,-150.66 380.43,1.05 753.57,53.8 1110.72,150.85 922.72,250.74 1773.69,798.06 2393.62,1513.99 629.43,726.9 1023.71,1631.21 1021.09,2583.81 -0.82,298.35 -38.77,596.3 -118.43,889.44 -446.23,1642 -1903.61,3953.43 -3082.35,5822.94 -360.93,572.45 -696.06,1103.98 -938.5,1511.22l-386.22 648.77 -386.08 -648.77zm-176.52 -1990.92c195.86,310.75 383.7,608.78 562.74,897.91 179.08,-289.11 366.96,-587.09 562.87,-897.81 1144.8,-1815.67 2560.2,-4060.54 2973.03,-5579.62 60.73,-223.48 89.63,-441.94 90.22,-653.17 2,-724.44 -307.85,-1423.7 -802.45,-1994.89 -504.08,-582.15 -1197.06,-1027.47 -1949.28,-1231.87 -290.54,-78.95 -584.71,-121.84 -874.45,-122.64 -289.39,0.8 -583.21,43.62 -873.41,122.45 -752.07,204.3 -1444.95,649.61 -1948.98,1231.8 -494.53,571.22 -804.35,1270.59 -802.35,1995.15 0.58,211.24 29.48,429.7 90.18,653.17 412.67,1519.13 1827.51,3763.87 2971.89,5579.52z"/>
  <path class="fil4" d="M19212.28 26588.07c-1143.61,-1921.73 -3410.8,-5164.22 -3970.08,-7223.09 -621.34,-2287.33 1639.39,-4563.91 3970.09,-4570.33 2331.5,6.43 4593.04,2283.01 3971.48,4570.33 -559.52,2058.87 -2827.53,5301.46 -3971.48,7223.09z"/>
  <path class="fil7" d="M17492.76 21799.56l0 -5050.82 1829.58 0c693.16,0 1144.31,25.07 1354.76,76.39 323.56,77.59 594.52,244.7 812.85,502.52 218.34,257.83 327.51,590.85 327.51,999.08 0,315.12 -58.48,679.2 -183.93,893.78 -125.77,215.13 -272.65,372.14 -466.26,494.65 -193.07,122.17 -400.7,191.31 -600.99,228.77 -271.9,50.85 -475.98,32.34 -991.55,32.34l-741.83 0 0 1823.29 -1340.14 0zm1340.13 -4042.57l0 1394.36 622.14 0c533.54,0 1036.55,26.28 1032.38,-671.6 -4.79,-802.8 -526.44,-722.76 -1106.04,-722.76l-548.48 0z"/>
  <g>
   <polygon class="fil8 str1" points="12951.72,21646.64 12792.56,21728.9 13063.26,22252.67 13222.43,22170.41 "/>
   <polygon id="1" class="fil9" points="12951.72,21646.64 12792.56,21728.9 13063.26,22252.67 13222.43,22170.41 "/>
  </g>
  <g>
   <path class="fil8 str1" d="M13454.47 22518.23l-45.8 32.66c-22.62,16.13 -50.08,37.42 -82.4,63.87 -22.94,18.06 -45.4,39.19 -67.38,63.4 -44.76,47.27 -77.73,95.52 -98.93,144.74 -26.37,68.28 -29.81,130.43 -10.32,186.48l16.67 52.08 26.11 58.15c10.8,24.71 38.37,68.17 82.72,130.36 41.13,57.67 107.94,98.74 200.43,123.19 77.97,16.04 161.93,8.2 251.89,-23.53 74.3,-27.39 156.11,-72.94 245.44,-136.64 93.86,-66.93 164.46,-125.8 211.81,-176.62 79.5,-82.28 126.63,-164.5 141.39,-246.67 17.52,-104.61 -12.42,-211.19 -89.83,-319.76 -78.22,-109.69 -174.16,-170.07 -287.81,-181.14 -100.1,-8.8 -199.33,21.88 -297.72,92.03l112.49 157.76c12.44,-8.87 27.38,-17.83 44.83,-26.85 9.85,-5.32 25.44,-12.17 46.76,-20.55 36.98,-12.73 66.61,-20.21 88.89,-22.45 75.57,-11.24 126.26,1.22 152.06,37.41 20.16,28.27 37.49,58.56 52,90.86l22.23 63.48c11.9,59.74 -9.46,121.89 -64.09,186.43 -19.24,25.65 -37.09,46.06 -53.57,61.22 -18.74,16.78 -36.03,30.81 -51.86,42.1l-75.85 51.52 -37.31 26.61 -385.85 -541.1 -47.01 30.96zm49.24 205.41l273.36 383.35c-88.21,62.9 -166.7,97.55 -235.48,103.95 -86.7,0.42 -154.65,-33.86 -203.84,-102.85 -50.8,-71.24 -54.21,-143.01 -10.24,-215.31 30.39,-50.68 78.95,-99.8 145.67,-147.37l30.53 -21.77z"/>
   <path id="1" class="fil9" d="M13454.47 22518.23l-45.8 32.66c-22.62,16.13 -50.08,37.42 -82.4,63.87 -22.94,18.06 -45.4,39.19 -67.38,63.4 -44.76,47.27 -77.73,95.52 -98.93,144.74 -26.37,68.28 -29.81,130.43 -10.32,186.48l16.67 52.08 26.11 58.15c10.8,24.71 38.37,68.17 82.72,130.36 41.13,57.67 107.94,98.74 200.43,123.19 77.97,16.04 161.93,8.2 251.89,-23.53 74.3,-27.39 156.11,-72.94 245.44,-136.64 93.86,-66.93 164.46,-125.8 211.81,-176.62 79.5,-82.28 126.63,-164.5 141.39,-246.67 17.52,-104.61 -12.42,-211.19 -89.83,-319.76 -78.22,-109.69 -174.16,-170.07 -287.81,-181.14 -100.1,-8.8 -199.33,21.88 -297.72,92.03l112.49 157.76c12.44,-8.87 27.38,-17.83 44.83,-26.85 9.85,-5.32 25.44,-12.17 46.76,-20.55 36.98,-12.73 66.61,-20.21 88.89,-22.45 75.57,-11.24 126.26,1.22 152.06,37.41 20.16,28.27 37.49,58.56 52,90.86l22.23 63.48c11.9,59.74 -9.46,121.89 -64.09,186.43 -19.24,25.65 -37.09,46.06 -53.57,61.22 -18.74,16.78 -36.03,30.81 -51.86,42.1l-75.85 51.52 -37.31 26.61 -385.85 -541.1 -47.01 30.96zm49.24 205.41l273.36 383.35c-88.21,62.9 -166.7,97.55 -235.48,103.95 -86.7,0.42 -154.65,-33.86 -203.84,-102.85 -50.8,-71.24 -54.21,-143.01 -10.24,-215.31 30.39,-50.68 78.95,-99.8 145.67,-147.37l30.53 -21.77z"/>
  </g>
  <g>
   <path class="fil8 str1" d="M11963.89 20242.13c-155.27,47.59 -252.15,133.66 -290.63,258.19 -31.81,111.97 -19.3,260.7 37.56,446.2l144.68 471.98 1549.92 -475.1 -62.54 -204.04 -651.3 199.64c-93.5,-305.03 -178.04,-502.34 -253.59,-591.92 -89.39,-100.37 -183.75,-145.85 -283.08,-136.44l-107.31 10.34 -83.7 21.15zm71.88 212.45c203.36,-62.33 341.26,24.67 413.7,261l83.39 272.06 -593.59 181.95c-90.97,-296.79 -122.37,-482.58 -94.18,-557.35 26.81,-74.36 90.37,-126.91 190.67,-157.66zm904.81 -1795.83l-1560.28 689 26.6 265.98 1664.97 357.77 -21.24 -212.36 -479.2 -90.73 -60.5 -604.89 451.31 -188.13 -21.67 -216.65zm-587.52 472.56l50.41 504.08 -872.38 -166.23 821.97 -337.85zm695.73 -1896.99c-36.14,31.24 -81.49,52.96 -136.05,65.14 -55.99,12.05 -120.47,14.64 -193.44,7.77 -71.54,-6.74 -133.47,-8.24 -185.79,-4.5 -52.32,3.74 -91.76,8.68 -118.32,14.84 -109.92,32.96 -181.15,130.19 -213.67,291.68 -18.33,-127.31 -55.56,-222.48 -111.69,-285.5 -57.7,-61.73 -150.22,-98.59 -277.57,-110.58 -127.34,-11.99 -231.19,33.09 -311.54,135.22 -69.12,90.21 -112.37,227.6 -129.75,412.17l-50.31 534.41 1613.96 151.96 19.6 -208.19 -716.83 -67.5c29.23,-310.48 64.05,-496.31 104.45,-557.46 35.17,-51.54 78.19,-79.25 129.08,-83.12l35.15 -5.35 34.74 -1.06 60.91 -2.93 155.74 1.67 127.23 5.48 70.09 -8.56 69.16 -21.63 24.85 -263.99zm-1220.45 199.05c111.6,10.51 191.53,58.45 239.79,143.83 40.35,77.42 54.19,183.37 41.52,317.87l-24.65 261.84 -585.92 -55.17 11.87 -172.1 21.22 -225.35c7,-74.4 35.58,-140.28 85.73,-197.63 50.15,-57.35 120.29,-81.78 210.44,-73.29zm1669.26 -1591.8l-1705.4 -28.2 -87.3 252.66 1361.83 1022.5 69.7 -201.71 -397.09 -283.17 198.54 -574.58 488.61 18.3 71.11 -205.78zm-731.46 182.88l-165.44 478.82 -722.45 -516.48 887.89 37.66zm675.54 -1819.2c-123.13,-71.28 -236.68,-120.39 -340.63,-147.35 -129.61,-28.53 -242.66,-22.56 -339.15,17.9 -116.84,46.94 -218.46,145.05 -304.85,294.3l-271.06 468.3 1403.02 812.1 210.59 -363.82 119.38 -214.85 20.03 -43.2 11.48 -45.66c20.61,-84.38 20.48,-171.64 -0.41,-261.78 -20.89,-90.14 -59,-162.01 -114.31,-215.61 -46.42,-51.78 -105.92,-105.32 -178.52,-160.62 -65.33,-47.78 -137.18,-94.35 -215.54,-139.7zm-164.06 171.56l94.07 56.94 35.15 25.33 37.31 21.6 113.51 70.69 92.7 63.62 76.89 69.41c55.31,53.61 80.98,102.5 76.99,146.69 -2.09,23.69 -4.54,48.01 -7.36,72.95l-3.93 32.6c-6.21,27.95 -11.78,50.47 -16.69,67.56 -3.66,17.81 -23.13,57.18 -58.41,118.13l-14.04 24.26 -140.39 242.54 -1138.09 -658.75c111.59,-192.79 179.59,-304.54 204,-335.24 15.97,-18.98 30.5,-35.48 43.6,-49.49 4.12,-4.25 8.61,-9.13 13.45,-14.63 8.25,-8.51 12.73,-13.39 13.45,-14.63 60.87,-47.79 132.74,-70.12 215.62,-66.98 35.29,2.16 70.73,6.9 106.34,14.23 31.16,6.41 62.12,16.03 92.89,28.86 38.75,19.11 67.19,33.08 85.33,41.92 19.37,9.55 45.23,23.69 77.57,42.41zm1828.32 -792.74l-1568.26 -670.64 -176.31 200.92 874.39 1461.36 140.76 -160.41 -260.61 -412.24 400.96 -456.93 445.45 201.6 143.61 -163.65zm-746.33 -107.13l-334.14 380.78 -473.67 -751.21 807.81 370.44z"/>
   <path id="1" class="fil9" d="M11963.89 20242.13c-155.27,47.59 -252.15,133.66 -290.63,258.19 -31.81,111.97 -19.3,260.7 37.56,446.2l144.68 471.98 1549.92 -475.1 -62.54 -204.04 -651.3 199.64c-93.5,-305.03 -178.04,-502.34 -253.59,-591.92 -89.39,-100.37 -183.75,-145.85 -283.08,-136.44l-107.31 10.34 -83.7 21.15zm71.88 212.45c203.36,-62.33 341.26,24.67 413.7,261l83.39 272.06 -593.59 181.95c-90.97,-296.79 -122.37,-482.58 -94.18,-557.35 26.81,-74.36 90.37,-126.91 190.67,-157.66zm904.81 -1795.83l-1560.28 689 26.6 265.98 1664.97 357.77 -21.24 -212.36 -479.2 -90.73 -60.5 -604.89 451.31 -188.13 -21.67 -216.65zm-587.52 472.56l50.41 504.08 -872.38 -166.23 821.97 -337.85zm695.73 -1896.99c-36.14,31.24 -81.49,52.96 -136.05,65.14 -55.99,12.05 -120.47,14.64 -193.44,7.77 -71.54,-6.74 -133.47,-8.24 -185.79,-4.5 -52.32,3.74 -91.76,8.68 -118.32,14.84 -109.92,32.96 -181.15,130.19 -213.67,291.68 -18.33,-127.31 -55.56,-222.48 -111.69,-285.5 -57.7,-61.73 -150.22,-98.59 -277.57,-110.58 -127.34,-11.99 -231.19,33.09 -311.54,135.22 -69.12,90.21 -112.37,227.6 -129.75,412.17l-50.31 534.41 1613.96 151.96 19.6 -208.19 -716.83 -67.5c29.23,-310.48 64.05,-496.31 104.45,-557.46 35.17,-51.54 78.19,-79.25 129.08,-83.12l35.15 -5.35 34.74 -1.06 60.91 -2.93 155.74 1.67 127.23 5.48 70.09 -8.56 69.16 -21.63 24.85 -263.99zm-1220.45 199.05c111.6,10.51 191.53,58.45 239.79,143.83 40.35,77.42 54.19,183.37 41.52,317.87l-24.65 261.84 -585.92 -55.17 11.87 -172.1 21.22 -225.35c7,-74.4 35.58,-140.28 85.73,-197.63 50.15,-57.35 120.29,-81.78 210.44,-73.29zm1669.26 -1591.8l-1705.4 -28.2 -87.3 252.66 1361.83 1022.5 69.7 -201.71 -397.09 -283.17 198.54 -574.58 488.61 18.3 71.11 -205.78zm-731.46 182.88l-165.44 478.82 -722.45 -516.48 887.89 37.66zm675.54 -1819.2c-123.13,-71.28 -236.68,-120.39 -340.63,-147.35 -129.61,-28.53 -242.66,-22.56 -339.15,17.9 -116.84,46.94 -218.46,145.05 -304.85,294.3l-271.06 468.3 1403.02 812.1 210.59 -363.82 119.38 -214.85 20.03 -43.2 11.48 -45.66c20.61,-84.38 20.48,-171.64 -0.41,-261.78 -20.89,-90.14 -59,-162.01 -114.31,-215.61 -46.42,-51.78 -105.92,-105.32 -178.52,-160.62 -65.33,-47.78 -137.18,-94.35 -215.54,-139.7zm-164.06 171.56l94.07 56.94 35.15 25.33 37.31 21.6 113.51 70.69 92.7 63.62 76.89 69.41c55.31,53.61 80.98,102.5 76.99,146.69 -2.09,23.69 -4.54,48.01 -7.36,72.95l-3.93 32.6c-6.21,27.95 -11.78,50.47 -16.69,67.56 -3.66,17.81 -23.13,57.18 -58.41,118.13l-14.04 24.26 -140.39 242.54 -1138.09 -658.75c111.59,-192.79 179.59,-304.54 204,-335.24 15.97,-18.98 30.5,-35.48 43.6,-49.49 4.12,-4.25 8.61,-9.13 13.45,-14.63 8.25,-8.51 12.73,-13.39 13.45,-14.63 60.87,-47.79 132.74,-70.12 215.62,-66.98 35.29,2.16 70.73,6.9 106.34,14.23 31.16,6.41 62.12,16.03 92.89,28.86 38.75,19.11 67.19,33.08 85.33,41.92 19.37,9.55 45.23,23.69 77.57,42.41zm1828.32 -792.74l-1568.26 -670.64 -176.31 200.92 874.39 1461.36 140.76 -160.41 -260.61 -412.24 400.96 -456.93 445.45 201.6 143.61 -163.65zm-746.33 -107.13l-334.14 380.78 -473.67 -751.21 807.81 370.44z"/>
  </g>
  <g>
   <path class="fil8 str1" d="M17390.59 12036.51c-52.07,-167.42 -162.41,-263.29 -331.02,-287.61l-444.43 -6.26c-163.39,-12.39 -260.24,-67.31 -290.54,-164.74 -31.16,-100.18 -25.65,-181.66 16.54,-244.44 42.6,-61.41 111.94,-107.06 208,-136.94 98.8,-30.73 178.96,-27.06 240.46,11 59.8,32.57 104.21,95.52 133.23,188.83l187.31 -58.26c-44.81,-144.09 -121.97,-239.74 -231.47,-286.96 -110.45,-45.42 -239.09,-45.29 -385.93,0.38 -155.07,48.23 -263.03,126.96 -323.87,236.19 -60.85,109.23 -68.86,235.89 -24.05,379.98 44.81,144.09 149.47,228.94 313.96,254.54l442.37 6.89c161.17,10.07 257.54,65.89 289.13,167.44 31.16,100.18 27.35,187.15 -11.41,260.91 -40.14,74.19 -118.53,129.43 -235.17,165.7 -119.39,37.13 -217.16,27.66 -293.3,-28.43 -54.22,-38.83 -99.46,-116.56 -135.74,-233.2l-3.84 -12.35 -195.56 60.82 4.98 23.28 40.33 129.68c23.9,76.85 88.45,144.07 193.66,201.65 114.62,63.69 259.07,68.42 433.36,14.22 174.28,-54.21 296.22,-138.79 365.82,-253.75 70.03,-113.59 82.42,-243.12 37.18,-388.58zm1556.19 -568.11l-10.28 -81.3 -27.22 -164.1c-0.71,-7.15 -8.36,-40.33 -22.94,-99.53 0,0 -2.43,-9.87 -7.29,-29.6 -9.86,-40.9 -15.72,-63.43 -17.58,-67.57 -20.3,-73.08 -66.48,-145.02 -138.54,-215.81 -82.93,-78.38 -167.94,-119.72 -255.03,-124.02l-121.83 -5.16c-43.33,-0.01 -113.62,4.85 -210.86,14.56 -98.67,9.85 -191.92,66.83 -279.74,170.93 -69.5,84.93 -112.21,199.69 -128.1,344.26 -9.44,50.05 -13.88,77.93 -13.31,83.65 -1.72,26.17 -1.01,54.99 2.13,86.44l17.13 214.94 26.14 218.36 41.81 158.31c44.31,140.01 110.87,242.41 199.66,307.2 104.95,81.95 246.8,114 425.56,96.15 177.32,-17.71 310.04,-77.18 398.14,-178.41 74.94,-88.37 118.43,-202.48 130.46,-342.33 5.59,-59.78 7.74,-117.76 6.46,-173.96 -1.71,-60.49 -6.63,-131.49 -14.78,-213zm-230.36 -93.98l7.5 96.74 6 81.72 11.76 269.63c-3.44,110.11 -26.62,196.2 -69.53,258.25 -55.78,77.79 -128,121.11 -216.67,129.96 -95.81,9.57 -165.88,9.34 -210.21,-0.67 -59.06,-12.87 -101.24,-37.55 -126.55,-74.02 -26.74,-36.33 -46.25,-65.43 -58.55,-87.31 -15.73,-27.31 -29.59,-57.7 -41.6,-91.17l-21.87 -67.15c-10.29,-30.75 -17.22,-64 -20.79,-99.74l-29.78 -254.83c-3.85,-38.61 -7.64,-90.95 -11.35,-157.02 -1.85,-33.03 -2.93,-79.87 -3.2,-140.5 3.73,-92.81 27.48,-173.17 71.25,-241.09 56.07,-89.37 117.71,-137.41 184.92,-144.12 70.07,-7 118.91,-9.71 146.51,-8.13l71.64 1.52c71.36,5.87 131.34,42.49 179.95,109.85 21.73,29.6 39.39,61.78 52.97,96.53 17.59,31.46 30.95,71.29 40.09,119.48 14.58,44.76 23.59,84.3 27.01,118.62l10.5 83.44zm1624.13 1025.39l17.1 -171.61 -761.51 -75.88 143.64 -1441.5 -212.37 -21.16 -160.74 1613.11 973.87 97.04zm1507.97 -140.2l305.93 -1011.03 -200.14 -60.56c-226.02,746.93 -351.68,1147.33 -377,1201.23 -36.78,66.95 -92.28,110.21 -167.21,129.58 -75.42,22.22 -156.63,20.17 -242.94,-5.94 -89.07,-26.95 -154.15,-66.17 -195.6,-117.75 -33.48,-43.17 -48.44,-94.24 -45.54,-153.42 3.85,-57.39 18.47,-128.04 43.86,-211.95l315.93 -1044.04 -208.4 -63.06c-73.26,242.09 -130.63,434.19 -172.13,576.29 -25.68,89.83 -49.34,170.5 -70.99,242.03 -37.04,122.43 -60.5,202.42 -70.36,239.97l-23.54 85.22c-16.23,53.65 -24.07,82.06 -23.53,85.22l-9.04 67.08 -0.98 62.77c4.75,88.52 52.46,169.03 143.14,241.51 79.54,64.61 161.96,109.82 247.25,135.63l125.05 33.33 96.59 15.72c79.82,9.14 143.98,3.03 192.48,-18.33 83.09,-36.42 141.2,-72.14 174.32,-107.17 20,-16.47 40.08,-38.17 60.24,-65.1 17.12,-21.85 29.43,-45.15 36.92,-69.91l24.3 -57.96 23.29 -69.53 8.11 -26.82 9.99 -33.01zm1802.28 -14.91l83.24 -141.11 -1004.48 -592.58 -83.25 141.11 417.76 246.45 -740.45 1255.13 193.1 113.91 740.44 -1255.13 393.62 232.21zm-389.12 1544.31l1014.79 -1264.19 -169.79 -136.3 -1014.79 1264.19 169.79 136.3zm1644.51 473.67l58.49 -57.39 114.16 -120.99c5.26,-4.89 27.04,-31.06 65.35,-78.5 0,0 6.38,-7.91 19.15,-23.72 26.59,-32.61 40.98,-50.9 43.15,-54.89 45.89,-60.39 75.2,-140.69 87.94,-240.9 12.2,-113.45 -6.34,-206.14 -55.62,-278.07l-69.63 -100.11c-26.22,-34.49 -72.62,-87.51 -139.2,-159.04 -67.56,-72.59 -169.35,-112.33 -305.37,-119.24 -109.68,-3.93 -226.87,31.53 -351.58,106.38 -45.56,22.77 -70.44,36.12 -74.65,40.04 -21.88,14.47 -44.39,32.48 -67.52,54.02l-160.73 143.72 -158.01 152.97 -100.72 129.09c-84.64,120.01 -125.87,234.96 -123.7,344.86 -1.72,133.15 58.62,265.46 181.02,396.96 121.42,130.44 249.08,200.09 382.99,208.96 115.7,6.18 232.86,-28.27 351.47,-103.33 50.96,-31.73 98.43,-65.11 142.39,-100.14 47.12,-37.97 100.66,-84.87 160.62,-140.68zm-64.61 -240.26l-72.48 64.52 -61.43 54.24 -207.52 172.55c-89.74,63.9 -172.3,97.55 -247.67,100.95 -95.68,2.67 -173.88,-28.6 -234.59,-93.82 -65.61,-70.48 -107.83,-126.39 -126.69,-167.74 -25.5,-54.81 -31.38,-103.32 -17.67,-145.54 12.74,-43.27 24.09,-76.41 34.07,-99.44 12.22,-29.05 28.02,-58.48 47.39,-88.3l40.21 -58.05c18.25,-26.8 40.52,-52.44 66.82,-76.92l184.83 -177.94c28.41,-26.44 67.78,-61.13 118.13,-104.07 25.17,-21.47 61.81,-50.67 109.91,-87.58 76.14,-53.2 154.48,-82.93 235.04,-89.2 105.07,-9.46 180.63,10.54 226.65,59.98 47.98,51.55 79.7,88.78 95.15,111.7l42.15 57.95c38.52,60.36 45.67,130.27 21.47,209.73 -10.41,35.22 -25.34,68.75 -44.78,100.59 -14.41,33.04 -38.02,67.78 -70.85,104.24 -26.81,38.7 -52.83,69.8 -78.08,93.3l-60.07 58.86zm269.5 2037.62l1379.53 -851.39 -109.82 -177.94 -1174.18 744.92 836.8 -1291.59 -151.71 -245.82 -1379.53 851.39 109.82 177.94 1207.91 -768.27 -863.73 1325.95 144.92 234.81zm899.36 1230.39c167.43,-52.07 263.29,-162.41 287.61,-331.01l6.26 -444.43c12.4,-163.39 67.31,-260.24 164.74,-290.54 100.18,-31.15 181.66,-25.64 244.44,16.54 61.41,42.61 107.06,111.94 136.93,208 30.73,98.8 27.06,178.96 -11,240.47 -32.57,59.8 -95.52,104.2 -188.83,133.23l58.26 187.32c144.09,-44.81 239.74,-121.97 286.96,-231.47 45.41,-110.45 45.29,-239.09 -0.38,-385.93 -48.23,-155.07 -126.96,-263.03 -236.19,-323.88 -109.22,-60.85 -235.89,-68.86 -379.98,-24.05 -144.09,44.81 -228.93,149.46 -254.54,313.95l-6.9 442.37c-10.07,161.17 -65.89,257.54 -167.44,289.12 -100.18,31.16 -187.15,27.35 -260.91,-11.41 -74.19,-40.14 -129.43,-118.53 -165.7,-235.17 -37.13,-119.39 -27.65,-217.16 28.44,-293.3 38.82,-54.22 116.56,-99.46 233.2,-135.74l12.35 -3.84 -60.82 -195.56 -23.28 4.99 -129.68 40.33c-76.85,23.9 -144.07,88.45 -201.65,193.65 -63.68,114.63 -68.42,259.08 -14.22,433.36 54.2,174.28 138.79,296.23 253.74,365.83 113.59,70.03 243.12,82.42 388.58,37.18z"/>
   <path id="1" class="fil9" d="M17390.59 12036.51c-52.07,-167.42 -162.41,-263.29 -331.02,-287.61l-444.43 -6.26c-163.39,-12.39 -260.24,-67.31 -290.54,-164.74 -31.16,-100.18 -25.65,-181.66 16.54,-244.44 42.6,-61.41 111.94,-107.06 208,-136.94 98.8,-30.73 178.96,-27.06 240.46,11 59.8,32.57 104.21,95.52 133.23,188.83l187.31 -58.26c-44.81,-144.09 -121.97,-239.74 -231.47,-286.96 -110.45,-45.42 -239.09,-45.29 -385.93,0.38 -155.07,48.23 -263.03,126.96 -323.87,236.19 -60.85,109.23 -68.86,235.89 -24.05,379.98 44.81,144.09 149.47,228.94 313.96,254.54l442.37 6.89c161.17,10.07 257.54,65.89 289.13,167.44 31.16,100.18 27.35,187.15 -11.41,260.91 -40.14,74.19 -118.53,129.43 -235.17,165.7 -119.39,37.13 -217.16,27.66 -293.3,-28.43 -54.22,-38.83 -99.46,-116.56 -135.74,-233.2l-3.84 -12.35 -195.56 60.82 4.98 23.28 40.33 129.68c23.9,76.85 88.45,144.07 193.66,201.65 114.62,63.69 259.07,68.42 433.36,14.22 174.28,-54.21 296.22,-138.79 365.82,-253.75 70.03,-113.59 82.42,-243.12 37.18,-388.58zm1556.19 -568.11l-10.28 -81.3 -27.22 -164.1c-0.71,-7.15 -8.36,-40.33 -22.94,-99.53 0,0 -2.43,-9.87 -7.29,-29.6 -9.86,-40.9 -15.72,-63.43 -17.58,-67.57 -20.3,-73.08 -66.48,-145.02 -138.54,-215.81 -82.93,-78.38 -167.94,-119.72 -255.03,-124.02l-121.83 -5.16c-43.33,-0.01 -113.62,4.85 -210.86,14.56 -98.67,9.85 -191.92,66.83 -279.74,170.93 -69.5,84.93 -112.21,199.69 -128.1,344.26 -9.44,50.05 -13.88,77.93 -13.31,83.65 -1.72,26.17 -1.01,54.99 2.13,86.44l17.13 214.94 26.14 218.36 41.81 158.31c44.31,140.01 110.87,242.41 199.66,307.2 104.95,81.95 246.8,114 425.56,96.15 177.32,-17.71 310.04,-77.18 398.14,-178.41 74.94,-88.37 118.43,-202.48 130.46,-342.33 5.59,-59.78 7.74,-117.76 6.46,-173.96 -1.71,-60.49 -6.63,-131.49 -14.78,-213zm-230.36 -93.98l7.5 96.74 6 81.72 11.76 269.63c-3.44,110.11 -26.62,196.2 -69.53,258.25 -55.78,77.79 -128,121.11 -216.67,129.96 -95.81,9.57 -165.88,9.34 -210.21,-0.67 -59.06,-12.87 -101.24,-37.55 -126.55,-74.02 -26.74,-36.33 -46.25,-65.43 -58.55,-87.31 -15.73,-27.31 -29.59,-57.7 -41.6,-91.17l-21.87 -67.15c-10.29,-30.75 -17.22,-64 -20.79,-99.74l-29.78 -254.83c-3.85,-38.61 -7.64,-90.95 -11.35,-157.02 -1.85,-33.03 -2.93,-79.87 -3.2,-140.5 3.73,-92.81 27.48,-173.17 71.25,-241.09 56.07,-89.37 117.71,-137.41 184.92,-144.12 70.07,-7 118.91,-9.71 146.51,-8.13l71.64 1.52c71.36,5.87 131.34,42.49 179.95,109.85 21.73,29.6 39.39,61.78 52.97,96.53 17.59,31.46 30.95,71.29 40.09,119.48 14.58,44.76 23.59,84.3 27.01,118.62l10.5 83.44zm1624.13 1025.39l17.1 -171.61 -761.51 -75.88 143.64 -1441.5 -212.37 -21.16 -160.74 1613.11 973.87 97.04zm1507.97 -140.2l305.93 -1011.03 -200.14 -60.56c-226.02,746.93 -351.68,1147.33 -377,1201.23 -36.78,66.95 -92.28,110.21 -167.21,129.58 -75.42,22.22 -156.63,20.17 -242.94,-5.94 -89.07,-26.95 -154.15,-66.17 -195.6,-117.75 -33.48,-43.17 -48.44,-94.24 -45.54,-153.42 3.85,-57.39 18.47,-128.04 43.86,-211.95l315.93 -1044.04 -208.4 -63.06c-73.26,242.09 -130.63,434.19 -172.13,576.29 -25.68,89.83 -49.34,170.5 -70.99,242.03 -37.04,122.43 -60.5,202.42 -70.36,239.97l-23.54 85.22c-16.23,53.65 -24.07,82.06 -23.53,85.22l-9.04 67.08 -0.98 62.77c4.75,88.52 52.46,169.03 143.14,241.51 79.54,64.61 161.96,109.82 247.25,135.63l125.05 33.33 96.59 15.72c79.82,9.14 143.98,3.03 192.48,-18.33 83.09,-36.42 141.2,-72.14 174.32,-107.17 20,-16.47 40.08,-38.17 60.24,-65.1 17.12,-21.85 29.43,-45.15 36.92,-69.91l24.3 -57.96 23.29 -69.53 8.11 -26.82 9.99 -33.01zm1802.28 -14.91l83.24 -141.11 -1004.48 -592.58 -83.25 141.11 417.76 246.45 -740.45 1255.13 193.1 113.91 740.44 -1255.13 393.62 232.21zm-389.12 1544.31l1014.79 -1264.19 -169.79 -136.3 -1014.79 1264.19 169.79 136.3zm1644.51 473.67l58.49 -57.39 114.16 -120.99c5.26,-4.89 27.04,-31.06 65.35,-78.5 0,0 6.38,-7.91 19.15,-23.72 26.59,-32.61 40.98,-50.9 43.15,-54.89 45.89,-60.39 75.2,-140.69 87.94,-240.9 12.2,-113.45 -6.34,-206.14 -55.62,-278.07l-69.63 -100.11c-26.22,-34.49 -72.62,-87.51 -139.2,-159.04 -67.56,-72.59 -169.35,-112.33 -305.37,-119.24 -109.68,-3.93 -226.87,31.53 -351.58,106.38 -45.56,22.77 -70.44,36.12 -74.65,40.04 -21.88,14.47 -44.39,32.48 -67.52,54.02l-160.73 143.72 -158.01 152.97 -100.72 129.09c-84.64,120.01 -125.87,234.96 -123.7,344.86 -1.72,133.15 58.62,265.46 181.02,396.96 121.42,130.44 249.08,200.09 382.99,208.96 115.7,6.18 232.86,-28.27 351.47,-103.33 50.96,-31.73 98.43,-65.11 142.39,-100.14 47.12,-37.97 100.66,-84.87 160.62,-140.68zm-64.61 -240.26l-72.48 64.52 -61.43 54.24 -207.52 172.55c-89.74,63.9 -172.3,97.55 -247.67,100.95 -95.68,2.67 -173.88,-28.6 -234.59,-93.82 -65.61,-70.48 -107.83,-126.39 -126.69,-167.74 -25.5,-54.81 -31.38,-103.32 -17.67,-145.54 12.74,-43.27 24.09,-76.41 34.07,-99.44 12.22,-29.05 28.02,-58.48 47.39,-88.3l40.21 -58.05c18.25,-26.8 40.52,-52.44 66.82,-76.92l184.83 -177.94c28.41,-26.44 67.78,-61.13 118.13,-104.07 25.17,-21.47 61.81,-50.67 109.91,-87.58 76.14,-53.2 154.48,-82.93 235.04,-89.2 105.07,-9.46 180.63,10.54 226.65,59.98 47.98,51.55 79.7,88.78 95.15,111.7l42.15 57.95c38.52,60.36 45.67,130.27 21.47,209.73 -10.41,35.22 -25.34,68.75 -44.78,100.59 -14.41,33.04 -38.02,67.78 -70.85,104.24 -26.81,38.7 -52.83,69.8 -78.08,93.3l-60.07 58.86zm269.5 2037.62l1379.53 -851.39 -109.82 -177.94 -1174.18 744.92 836.8 -1291.59 -151.71 -245.82 -1379.53 851.39 109.82 177.94 1207.91 -768.27 -863.73 1325.95 144.92 234.81zm899.36 1230.39c167.43,-52.07 263.29,-162.41 287.61,-331.01l6.26 -444.43c12.4,-163.39 67.31,-260.24 164.74,-290.54 100.18,-31.15 181.66,-25.64 244.44,16.54 61.41,42.61 107.06,111.94 136.93,208 30.73,98.8 27.06,178.96 -11,240.47 -32.57,59.8 -95.52,104.2 -188.83,133.23l58.26 187.32c144.09,-44.81 239.74,-121.97 286.96,-231.47 45.41,-110.45 45.29,-239.09 -0.38,-385.93 -48.23,-155.07 -126.96,-263.03 -236.19,-323.88 -109.22,-60.85 -235.89,-68.86 -379.98,-24.05 -144.09,44.81 -228.93,149.46 -254.54,313.95l-6.9 442.37c-10.07,161.17 -65.89,257.54 -167.44,289.12 -100.18,31.16 -187.15,27.35 -260.91,-11.41 -74.19,-40.14 -129.43,-118.53 -165.7,-235.17 -37.13,-119.39 -27.65,-217.16 28.44,-293.3 38.82,-54.22 116.56,-99.46 233.2,-135.74l12.35 -3.84 -60.82 -195.56 -23.28 4.99 -129.68 40.33c-76.85,23.9 -144.07,88.45 -201.65,193.65 -63.68,114.63 -68.42,259.08 -14.22,433.36 54.2,174.28 138.79,296.23 253.74,365.83 113.59,70.03 243.12,82.42 388.58,37.18z"/>
  </g>
  <g>
   <path class="fil8 str1" d="M25441.23 19589.28l1604.05 234.5 31.5 -215.44 -1604.05 -234.5 -31.5 215.44zm-375.37 1481.96l1553.42 463.51 59.79 -200.37 -1337.32 -381.03 1521 -234.56 82.59 -276.81 -1553.42 -463.51 -59.79 200.38 1377.19 390.68 -1564.56 237.3 -78.89 264.41zm-268.77 1729.87l105.49 -180.54c-68.25,-39.88 -124.55,-80.26 -168.89,-121.16 -56.44,-62.94 -90.28,-121.82 -101.51,-176.66 -15.88,-72.53 7.35,-162.15 69.71,-268.86 62.35,-106.71 162.06,-149.16 299.11,-127.34l110.46 24.6c23.99,7.36 46.39,14.62 67.17,21.77 8.17,3.11 22.91,9.22 44.21,18.34l118.2 54.09 122.07 68.83c74.45,43.5 145.85,89.38 214.2,137.63 104.94,79.63 172.49,154.88 202.65,225.76 47.21,95.83 41.81,193.38 -16.19,292.65 -58.73,100.51 -134.34,158.7 -226.83,174.56 -82.15,15.25 -166.65,-2.5 -253.51,-53.25l-104.41 178.68c143.94,84.1 279.03,106.44 405.26,67.02 126.24,-39.43 231.77,-131.73 316.6,-276.91 87,-148.9 115.08,-288.13 84.24,-417.66 -25.37,-104.71 -91.87,-205.98 -199.49,-303.81 -69.05,-66.98 -170.59,-139.62 -304.6,-217.93 -127.8,-74.68 -241.2,-128.45 -340.17,-161.31 -145.72,-46.86 -269.96,-57.86 -372.7,-33.01 -135.65,35.59 -228.85,96.82 -279.6,183.68 -55.1,94.3 -89.96,159.65 -104.57,196.06 -17,43.33 -27.47,75.5 -31.42,96.5 -19.64,133.33 7.27,253.92 80.74,361.76 64.17,92.43 152.1,171.27 263.78,236.52zm-891.02 144.06l175.37 139.67 143.7 -180.43 -175.37 -139.67 -143.69 180.43z"/>
   <path id="1" class="fil9" d="M25441.23 19589.28l1604.05 234.5 31.5 -215.44 -1604.05 -234.5 -31.5 215.44zm-375.37 1481.96l1553.42 463.51 59.79 -200.37 -1337.32 -381.03 1521 -234.56 82.59 -276.81 -1553.42 -463.51 -59.79 200.38 1377.19 390.68 -1564.56 237.3 -78.89 264.41zm-268.77 1729.87l105.49 -180.54c-68.25,-39.88 -124.55,-80.26 -168.89,-121.16 -56.44,-62.94 -90.28,-121.82 -101.51,-176.66 -15.88,-72.53 7.35,-162.15 69.71,-268.86 62.35,-106.71 162.06,-149.16 299.11,-127.34l110.46 24.6c23.99,7.36 46.39,14.62 67.17,21.77 8.17,3.11 22.91,9.22 44.21,18.34l118.2 54.09 122.07 68.83c74.45,43.5 145.85,89.38 214.2,137.63 104.94,79.63 172.49,154.88 202.65,225.76 47.21,95.83 41.81,193.38 -16.19,292.65 -58.73,100.51 -134.34,158.7 -226.83,174.56 -82.15,15.25 -166.65,-2.5 -253.51,-53.25l-104.41 178.68c143.94,84.1 279.03,106.44 405.26,67.02 126.24,-39.43 231.77,-131.73 316.6,-276.91 87,-148.9 115.08,-288.13 84.24,-417.66 -25.37,-104.71 -91.87,-205.98 -199.49,-303.81 -69.05,-66.98 -170.59,-139.62 -304.6,-217.93 -127.8,-74.68 -241.2,-128.45 -340.17,-161.31 -145.72,-46.86 -269.96,-57.86 -372.7,-33.01 -135.65,35.59 -228.85,96.82 -279.6,183.68 -55.1,94.3 -89.96,159.65 -104.57,196.06 -17,43.33 -27.47,75.5 -31.42,96.5 -19.64,133.33 7.27,253.92 80.74,361.76 64.17,92.43 152.1,171.27 263.78,236.52zm-891.02 144.06l175.37 139.67 143.7 -180.43 -175.37 -139.67 -143.69 180.43z"/>
  </g>
 </g>
</svg>
