<?xml version="1.0" encoding="UTF-8"?>
<!DOCTYPE svg PUBLIC "-//W3C//DTD SVG 1.1//EN" "http://www.w3.org/Graphics/SVG/1.1/DTD/svg11.dtd">
<!-- Creator: CorelDRAW 2020 (64-Bit) -->
<svg xmlns="http://www.w3.org/2000/svg" xml:space="preserve" width="39.3701in" height="6.39665in" version="1.1" style="shape-rendering:geometricPrecision; text-rendering:geometricPrecision; image-rendering:optimizeQuality; fill-rule:evenodd; clip-rule:evenodd"
viewBox="0 0 39370.08 6396.65"
 xmlns:xlink="http://www.w3.org/1999/xlink"
 xmlns:xodm="http://www.corel.com/coreldraw/odm/2003">
 <defs>
  <style type="text/css">
   <![CDATA[
    .fil0 {fill:#D12030}
    .fil7 {fill:#0B9444;fill-rule:nonzero}
    .fil4 {fill:#0B9445;fill-rule:nonzero}
    .fil5 {fill:#0C9446;fill-rule:nonzero}
    .fil9 {fill:#5C5E5D;fill-rule:nonzero}
    .fil8 {fill:#6E7A76;fill-rule:nonzero}
    .fil6 {fill:#989898;fill-rule:nonzero}
    .fil3 {fill:#9C9897;fill-rule:nonzero}
    .fil1 {fill:#B0B0B0;fill-rule:nonzero}
    .fil2 {fill:#B4B4B4;fill-rule:nonzero}
   ]]>
  </style>
 </defs>
 <g id="Layer_x0020_1">
  <metadata id="CorelCorpID_0Corel-Layer"/>
  <g id="_2341231437056">
   <path class="fil0" d="M9865.02 2076.37c-492.23,-429.3 -1223.79,-543.1 -1665.38,-543.1l-1514.21 0 0 4054.59 1514.21 0c441.57,0 1173.15,-113.7 1665.4,-543.15 605.51,-543.15 592.73,-1477.96 592.73,-1477.96 0,-12.37 12.78,-947.26 -592.73,-1490.36l-0.02 -0.02zm-631.05 2349.39c-252.07,252.63 -693.67,378.95 -1122.86,378.95l-491.82 0 0 -2488.33 491.81 0c429.2,0 870.79,126.19 1122.86,391.37 302.77,315.89 277.65,846.63 277.65,846.63 0,0 25.13,543 -277.65,871.39l0.01 0zm-6472.45 -2589.41c-416.02,-303.11 -1072.2,-303.11 -1450.76,-303.11l-1312.38 0 0 4054.62 921.04 0 0 -1124.22 391.32 -0.01c378.56,0 1034.76,0 1450.79,-315.76 530.14,-391.42 530.14,-1149.4 530.14,-1149.4 0,0 0,-757.98 -530.14,-1162.13l0 0.01zm-643.43 1692.45c-176.7,138.98 -453.91,138.98 -630.64,138.98l-568.04 0 0 -1351.4 568.05 0c176.73,0 453.94,12.81 630.64,151.35 239.74,176.91 214.61,530.77 214.61,530.77 0,0 25.13,341.04 -214.61,530.32l-0.01 -0.02zm8377.59 -2008.34l0 795.91 1173.56 0.01 0 3271.48 933.38 0 0 -3271.48 340.65 0c719.21,0 883.16,-795.91 883.16,-795.91l-3330.74 -0.01zm-5942.31 12.78l-908.7 0 0 4054.62 2687.76 0 0 -821.06 -1779.07 0 0 -3233.56z"/>
   <path class="fil1" d="M18583.99 34.77c28.76,-13.98 58.71,-24.77 89.46,-33.15l15.98 31.16c69.09,144.98 164.94,274.78 245.63,413.37 476.07,816.36 742.87,1762.13 716.12,2709.49 5.59,359.85 -73.49,712.52 -111.03,1068.38l-18.37 1.59c-227.65,-505.24 -520.41,-982.51 -869.47,-1413.05 -443.33,-577.52 -1000.89,-1059.99 -1608.76,-1457.78 443.7,-513.22 960.92,-965.35 1540.44,-1320z"/>
   <path class="fil2" d="M18018.04 3057.78c188.52,-79.48 369.04,-189.31 577.13,-207.69 -315.92,427.35 -618.26,873.08 -823.15,1365.52 -307.93,643.82 -484.86,1346.76 -553.96,2056.08 -609.47,-120.62 -1195.78,-338.69 -1748.94,-619.46 496.45,-1137.07 1434.62,-2060.48 2548.93,-2594.46l0 0.01z"/>
   <path class="fil3" d="M18689.43 32.78c1343.56,812.77 2362.42,2133.96 2842.89,3626.5 -628.64,292.76 -1302.82,487.26 -1992.17,564.74 37.55,-355.86 116.62,-708.52 111.03,-1068.38 26.76,-947.36 -240.04,-1893.12 -716.12,-2709.49 -80.68,-138.59 -176.53,-268.39 -245.63,-413.37z"/>
   <path class="fil4" d="M23153.85 1375.54c429.75,-271.99 969.33,-309.93 1458.99,-218.47 430.94,87.87 745.27,419.76 1036.83,724.5 -227.26,221.26 -444.53,451.71 -670.98,673.37 -186.91,-234.04 -414.96,-465.7 -716.12,-537.98 -200.09,-27.56 -435.34,-35.55 -593.89,111.83 -113.43,98.25 -212.47,256.41 -147.77,409.38 57.51,108.24 164.56,177.33 258.41,251.22 491.66,331.5 1050.41,580.71 1457.39,1023.65 197.7,206.89 326.31,489.26 308.73,779.21 -15.98,421.36 -270.39,808.38 -618.26,1034.83 -254.01,170.94 -569.14,222.46 -869.88,223.66 -349.87,7.19 -709.72,-61.5 -1009.27,-248.83 -237.24,-136.99 -432.94,-329.1 -632.63,-513.62 190.11,-228.06 412.97,-428.15 613.46,-647.43l25.56 -3.59c307.93,209.69 624.65,442.53 1003.68,495.25 211.68,34.35 441.33,-75.09 530.39,-273.19 37.15,-77.88 2.4,-164.55 -47.13,-227.26 -189.31,-258.41 -476.88,-414.57 -739.68,-586.71 -308.73,-205.69 -655.41,-367.44 -903.83,-651.41 -272.78,-275.98 -400.19,-696.14 -298.74,-1074.37 77.88,-308.73 291.16,-571.94 554.76,-744.07l-0.01 0.03zm2531.36 1027.24c296.74,0.8 593.1,0 889.85,0.4 2,22.76 5.59,68.3 7.59,90.67 489.26,-192.11 1090.34,-86.27 1466.18,288.36 270.39,-269.59 659,-406.18 1038.83,-377.43 477.28,9.98 915.41,311.92 1151.46,717.71 126.2,214.08 167.74,464.49 176.93,709.73 2,671.78 -2.8,1343.96 2.4,2016.14 -299.14,5.19 -598.69,1.19 -898.23,2 0,-686.17 2,-1372.32 -0.8,-2058.48 0.8,-201.3 -139.39,-386.62 -323.11,-460.5 -307.93,-141.38 -718.91,118.22 -698.54,462.11 -0.4,685.36 -2.4,1370.32 1.2,2055.28 -299.95,3.99 -599.49,2 -899.44,1.19 3.2,-684.96 1.19,-1369.92 1.19,-2054.88 9.19,-215.27 -154.96,-408.98 -352.66,-476.08 -306.33,-113.43 -683.36,144.98 -669.78,474.48 0,685.76 -1.2,1371.12 0.8,2056.48 -299.55,0.8 -599.5,2.8 -899.04,-1.19 7.19,-1148.66 -3.2,-2297.31 5.2,-3445.97l0 -0.01z"/>
   <path class="fil5" d="M37343.52 1143.89c299.15,-3.99 598.69,-2.8 897.83,-0.8 -2,425.36 0,850.31 -1.19,1275.67 375.83,-2.8 752.06,-2 1128.28,-0.8 -79.08,248.02 -205.69,494.85 -426.95,644.22 -203.3,145.39 -450.52,227.65 -699.74,240.04 -1.19,363.44 -3.59,727.29 0.4,1090.74 0.4,163.35 40.74,347.48 190.52,438.93 226.46,132.59 500.84,132.2 755.65,130.2 17.17,293.96 -19.97,589.5 0.4,884.26 -426.15,13.98 -879.47,-6.79 -1256.09,-228.06 -317.52,-189.31 -492.06,-546.77 -545.17,-902.23 -71.49,-465.69 -33.94,-938.57 -39.93,-1407.46 -148.98,-4.39 -297.95,-4.39 -446.53,1.19 -9.19,-297.55 -0.4,-595.1 -4.8,-892.65 150.17,0 300.35,0 450.92,0.4 -4.8,-424.56 1.59,-849.11 -3.59,-1273.67l-0.01 0z"/>
   <path class="fil6" d="M15774.26 3597.76c271.19,-821.15 706.93,-1586.39 1269.28,-2243 607.88,397.79 1165.43,880.26 1608.76,1457.78 -71.5,8.39 -142.59,-4.39 -213.68,-9.19l22.37 47.93c-240.83,48.33 -466.89,148.57 -692.15,244.43 -801.98,349.07 -1524.49,886.26 -2068.06,1573.62 -72.29,90.66 -134.6,189.31 -212.87,275.58 60.71,-455.31 142.58,-909.82 286.36,-1347.16z"/>
   <g>
    <path class="fil7" d="M35568.61 3085.34c187.31,-450.11 694.94,-736.08 1178.21,-669.78 3.59,290.76 -5.99,581.52 5.2,871.87 -471.68,-46.32 -966.53,254.82 -1105.93,714.91 -105.84,278.78 -77.88,579.92 -80.68,871.08 1.2,324.7 -2.4,649.81 2.4,974.52 -314.32,5.2 -628.64,3.2 -942.57,1.19 3.59,-1142.67 3.59,-2285.73 0,-3428.4 295.96,-5.99 591.9,0.4 887.85,-3.59 -2,261.61 15.58,524.41 -15.58,785.21 36.74,-29.56 51.92,-75.49 71.09,-117.03l0.01 0zm-4984.43 744.48c135.8,-794.79 892.25,-1423.84 1699.03,-1410.26 407.38,-3.99 806.38,153.37 1119.11,410.97 3.2,-136.6 3.2,-272.78 1.59,-409.38 308.73,-0.4 617.86,-3.59 927,2 -2,1141.46 -3.59,2282.94 0.8,3424.41 -309.93,5.99 -619.47,3.2 -929.39,1.59l4.8 -373.44c-252.42,178.93 -531.59,333.89 -842.32,377.43 -585.91,103.84 -1215.35,-129 -1596.78,-584.31 -333.89,-389.81 -489.26,-934.18 -383.82,-1439.02l-0.01 0.01zm1518.09 -528c-229.26,50.72 -440.54,192.11 -560.35,395.8 -173.34,271.59 -170.94,642.23 5.59,911.42 159.76,260.41 466.89,423.36 772.82,401.8 457.71,-7.19 857.1,-439.33 822.35,-897.44 -2.8,-516.02 -540.38,-928.59 -1040.42,-811.57l0.01 0z"/>
   </g>
   <path class="fil8" d="M19540.14 4224.02c689.35,-77.48 1363.53,-271.99 1992.17,-564.74 188.52,604.68 285.17,1236.52 283.97,1869.96 -1367.52,21.17 -2728.26,-420.16 -3848.56,-1198.98 -50.33,-36.74 -94.25,-81.07 -138.59,-124.21 561.15,59.51 1130.28,84.67 1692.63,19.57l18.37 -1.59 0.02 0z"/>
   <path class="fil9" d="M17218.07 6271.71c69.09,-709.33 246.03,-1412.26 553.96,-2056.08l32.75 -33.55 24.37 23.97c44.33,43.13 88.26,87.46 138.59,124.2 1120.3,778.82 2481.04,1220.15 3848.56,1198.98 -828.74,507.63 -1787.3,790.4 -2754.22,860.3 -616.67,19.57 -1238.52,16.37 -1844,-117.82l-0.01 -0.01z"/>
  </g>
 </g>
</svg>
