<?xml version="1.0" encoding="UTF-8"?>
<!DOCTYPE svg PUBLIC "-//W3C//DTD SVG 1.1//EN" "http://www.w3.org/Graphics/SVG/1.1/DTD/svg11.dtd">
<!-- Creator: CorelDRAW 2020 (64-Bit) -->
<svg xmlns="http://www.w3.org/2000/svg" xml:space="preserve" width="39.3701in" height="39.3701in" version="1.1" style="shape-rendering:geometricPrecision; text-rendering:geometricPrecision; image-rendering:optimizeQuality; fill-rule:evenodd; clip-rule:evenodd"
viewBox="0 0 39370.08 39370.08"
 xmlns:xlink="http://www.w3.org/1999/xlink"
 xmlns:xodm="http://www.corel.com/coreldraw/odm/2003">
 <defs>
  <style type="text/css">
   <![CDATA[
    .fil0 {fill:black}
   ]]>
  </style>
 </defs>
 <g id="Layer_x0020_1">
  <metadata id="CorelCorpID_0Corel-Layer"/>
  <path class="fil0" d="M21736.45 13947c188.86,67.58 373.41,144.24 553.14,229.41l1448.72 -831.88c296.9,-171.41 847.63,-543.47 1030.06,-361.03l1618.81 1618.81c182.44,182.43 -189.62,733.16 -361.03,1030.06l-831.9 1448.76c85.15,179.71 161.8,364.24 229.36,553.09l1612.36 436.1c331.15,88.73 983.66,215.07 983.66,473.07l0 2289.34c0,258 -652.51,384.34 -983.66,473.07l-1612.36 436.1c-67.57,188.85 -144.21,373.37 -229.36,553.09l831.9 1448.76c171.41,296.9 543.47,847.63 361.03,1030.06l-1618.81 1618.81c-182.43,182.44 -733.16,-189.62 -1030.06,-361.03l-1448.72 -831.88c-179.73,85.17 -364.28,161.83 -553.14,229.41l-436.08 1612.3c-88.73,331.15 -215.07,983.66 -473.07,983.66l-2289.34 0c-258,0 -384.34,-652.51 -473.07,-983.66l-436.08 -1612.3c-188.86,-67.58 -373.41,-144.24 -553.14,-229.41l-1448.72 831.88c-296.9,171.41 -847.63,543.47 -1030.06,361.03l-1618.81 -1618.81c-182.44,-182.43 189.62,-733.16 361.03,-1030.06l831.9 -1448.76c-85.15,-179.71 -161.8,-364.24 -229.36,-553.09l-1612.36 -436.1c-331.15,-88.73 -983.66,-215.07 -983.66,-473.07l0 -2289.34c0,-258 652.51,-384.34 983.66,-473.07l1612.36 -436.1c67.57,-188.85 144.21,-373.37 229.36,-553.09l-831.9 -1448.76c-171.41,-296.9 -543.47,-847.63 -361.03,-1030.06l1618.81 -1618.81c182.43,-182.44 733.16,189.62 1030.06,361.03l1448.72 831.88c179.72,-85.17 364.28,-161.83 553.14,-229.41l436.08 -1612.3c88.73,-331.15 215.07,-983.66 473.07,-983.66l2289.34 0c258,0 384.34,652.51 473.07,983.66l436.08 1612.3zm-2053.83 2927.5c1553.88,0 2813.56,1259.67 2813.56,2813.56 0,1553.89 -1259.68,2813.56 -2813.56,2813.56 -1553.88,0 -2813.56,-1259.67 -2813.56,-2813.56 0,-1553.89 1259.68,-2813.56 2813.56,-2813.56z"/>
  <path class="fil0" d="M20466.28 7196.63c2866.41,177.15 5471.59,1318.86 7494.91,3104.62l2067.29 -2067.29c-364.69,-811.74 -213.87,-1798.7 452.75,-2465.33 861.8,-861.8 2259.04,-861.8 3120.83,0 861.8,861.79 861.8,2259.04 0,3120.83 -666.62,666.62 -1653.58,817.44 -2465.32,452.75l-2067.29 2067.29c1785.77,2023.29 2927.48,4628.46 3104.62,7494.9l2923.45 0c316.11,-831.86 1120.65,-1423.11 2063.39,-1423.11 1218.76,0 2206.76,988 2206.76,2206.76 0,1218.76 -988,2206.76 -2206.76,2206.76 -942.75,0 -1747.28,-591.25 -2063.39,-1423.11l-2923.45 0c-177.14,2866.44 -1318.85,5471.6 -3104.62,7494.9l2067.28 2067.28c811.74,-364.69 1798.7,-213.87 2465.33,452.75 861.8,861.8 861.8,2259.04 0,3120.83 -861.79,861.8 -2259.04,861.8 -3120.83,0 -666.62,-666.62 -817.44,-1653.59 -452.75,-2465.33l-2067.28 -2067.28c-2023.3,1785.76 -4628.5,2927.47 -7494.91,3104.62l0 2923.45c831.86,316.11 1423.11,1120.65 1423.11,2063.39 0,1218.76 -988,2206.76 -2206.76,2206.76 -1218.76,0 -2206.76,-988 -2206.76,-2206.76 0,-942.75 591.25,-1747.28 1423.11,-2063.39l0 -2923.45c-2866.41,-177.15 -5471.59,-1318.86 -7494.9,-3104.62l-2067.28 2067.28c364.69,811.74 213.87,1798.7 -452.75,2465.33 -861.8,861.8 -2259.04,861.8 -3120.83,0 -861.8,-861.79 -861.8,-2259.04 0,-3120.83 666.63,-666.62 1653.59,-817.44 2465.33,-452.75l2067.28 -2067.28c-1785.77,-2023.29 -2927.48,-4628.46 -3104.62,-7494.91l-2923.45 0c-316.11,831.86 -1120.65,1423.11 -2063.39,1423.11 -1218.76,0 -2206.76,-988 -2206.76,-2206.76 0,-1218.76 988,-2206.76 2206.76,-2206.76 942.75,0 1747.28,591.25 2063.39,1423.11l2923.45 0c177.14,-2866.44 1318.88,-5471.51 3104.62,-7494.91l-2067.29 -2067.29c-811.74,364.69 -1798.7,213.87 -2465.32,-452.75 -861.8,-861.8 -861.8,-2259.04 0,-3120.83 861.79,-861.8 2259.04,-861.8 3120.83,0 666.62,666.62 817.44,1653.59 452.75,2465.32l2067.29 2067.29c2023.24,-1785.98 4628.51,-2927.4 7494.9,-3104.61l0 -2923.46c-831.86,-316.11 -1423.11,-1120.65 -1423.11,-2063.39 0,-1218.76 988,-2206.76 2206.76,-2206.76 1218.76,0 2206.76,988 2206.76,2206.76 0,942.75 -591.25,1747.28 -1423.11,2063.39l0 2923.46zm-783.65 1675.49c5973.48,0 10815.94,4842.46 10815.94,10815.94 0,5973.48 -4842.46,10815.94 -10815.94,10815.94 -5973.48,0 -10815.94,-4842.46 -10815.94,-10815.94 0,-5973.48 4842.46,-10815.94 10815.94,-10815.94z"/>
 </g>
</svg>
