<?xml version="1.0" encoding="UTF-8"?>
<!DOCTYPE svg PUBLIC "-//W3C//DTD SVG 1.1//EN" "http://www.w3.org/Graphics/SVG/1.1/DTD/svg11.dtd">
<!-- Creator: CorelDRAW 2020 (64-Bit) -->
<svg xmlns="http://www.w3.org/2000/svg" xml:space="preserve" width="39.3701in" height="39.3701in" version="1.1" style="shape-rendering:geometricPrecision; text-rendering:geometricPrecision; image-rendering:optimizeQuality; fill-rule:evenodd; clip-rule:evenodd"
viewBox="0 0 39370.08 39370.08"
 xmlns:xlink="http://www.w3.org/1999/xlink"
 xmlns:xodm="http://www.corel.com/coreldraw/odm/2003">
 <defs>
  <style type="text/css">
   <![CDATA[
    .fil1 {fill:none}
    .fil0 {fill:black}
   ]]>
  </style>
 </defs>
 <g id="Layer_x0020_1">
  <metadata id="CorelCorpID_0Corel-Layer"/>
  <g id="_2229513254208">
   <path class="fil0" d="M16143.81 18466.85c-41.44,145.56 56.48,412.59 199.06,480.54l1311.59 625.01c18.8,198.22 52.81,397.52 102.83,596.55 50.03,199.04 114.31,390.73 191.47,574.28l-860.15 1170.92c-93.5,127.3 -53.52,408.88 51.82,517.55l1093.65 1128.17c105.34,108.67 385.56,157.38 515.69,67.87l1197.74 -823.82c364.67,167.59 755.76,280.57 1160.6,331.34l583.82 1330.02c63.49,144.63 327.35,250.79 474.12,213.89l1523.85 -383.04c146.78,-36.9 329.07,-255.21 316.63,-412.66l-114.49 -1448c332.77,-236.12 623.89,-520.66 865.98,-840.76l1444.92 159.54c156.99,17.33 380.86,-158.09 422.3,-303.65l430.2 -1511.22c41.44,-145.56 -56.48,-412.58 -199.06,-480.54l-1311.59 -625.01c-18.79,-198.21 -52.81,-397.52 -102.84,-596.56 -50.03,-199.04 -114.31,-390.73 -191.47,-574.27l860.15 -1170.92c93.5,-127.3 53.52,-408.88 -51.82,-517.55l-1093.65 -1128.17c-105.34,-108.67 -385.56,-157.38 -515.69,-67.88l-1197.74 823.82c-364.67,-167.59 -755.76,-280.57 -1160.6,-331.34l-583.82 -1330.02c-63.49,-144.62 -327.35,-250.78 -474.12,-213.89l-1523.85 383.05c-146.78,36.89 -329.07,255.2 -316.63,412.66l114.49 1448c-332.77,236.13 -623.89,520.66 -865.98,840.76l-1444.92 -159.54c-156.99,-17.33 -380.86,158.1 -422.3,303.66l-430.2 1511.21zm5187.31 -331.92c589.94,-148.29 1188.39,209.74 1336.69,799.67 148.3,589.94 -209.73,1188.4 -799.67,1336.69 -589.94,148.3 -1188.4,-209.73 -1336.69,-799.67 -148.29,-589.94 209.73,-1188.4 799.68,-1336.69zm-211.38 -840.92c1054.37,-265.03 2123.95,374.85 2388.99,1429.21 265.04,1054.37 -374.85,2123.95 -1429.21,2388.99 -1054.37,265.04 -2123.95,-374.85 -2388.99,-1429.21 -265.04,-1054.37 374.85,-2123.95 1429.21,-2388.99z"/>
   <path class="fil0" d="M14324.74 25956.27c-24.56,86.28 33.48,244.56 118,284.84l777.44 370.48c11.15,117.49 31.3,235.63 60.96,353.61 29.66,117.98 67.76,231.61 113.5,340.41l-509.85 694.06c-55.43,75.46 -31.72,242.37 30.72,306.78l648.27 668.72c62.44,64.41 228.54,93.29 305.68,40.24l709.96 -488.32c216.16,99.34 447.98,166.31 687.95,196.4l346.06 788.37c37.63,85.73 194.04,148.65 281.04,126.78l903.26 -227.05c87,-21.87 195.06,-151.27 187.68,-244.61l-67.86 -858.3c197.25,-139.96 369.81,-308.62 513.31,-498.36l856.48 94.57c93.06,10.27 225.76,-93.71 250.32,-179.99l255 -895.78c24.56,-86.28 -33.48,-244.56 -118,-284.84l-777.44 -370.48c-11.14,-117.49 -31.3,-235.63 -60.96,-353.61 -29.65,-117.98 -67.76,-231.6 -113.49,-340.4l509.85 -694.06c55.43,-75.46 31.72,-242.37 -30.72,-306.78l-648.26 -668.72c-62.44,-64.41 -228.54,-93.29 -305.68,-40.23l-709.96 488.32c-216.16,-99.35 -447.98,-166.31 -687.95,-196.41l-346.06 -788.37c-37.63,-85.73 -194.04,-148.65 -281.04,-126.78l-903.26 227.05c-87,21.87 -195.06,151.27 -187.68,244.61l67.86 858.3c-197.25,139.96 -369.81,308.63 -513.31,498.36l-856.48 -94.57c-93.06,-10.27 -225.76,93.71 -250.32,179.99l-255 895.78zm3074.8 -196.74c349.69,-87.9 704.43,124.32 792.32,474.01 87.9,349.69 -124.32,704.43 -474.01,792.33 -349.69,87.9 -704.43,-124.32 -792.33,-474.01 -87.9,-349.69 124.32,-704.43 474.01,-792.33zm-125.3 -498.46c624.98,-157.1 1258.98,222.19 1416.08,847.17 157.1,624.98 -222.19,1258.98 -847.17,1416.08 -624.98,157.1 -1258.98,-222.19 -1416.08,-847.17 -157.1,-624.98 222.19,-1258.98 847.17,-1416.08z"/>
   <ellipse class="fil0" cx="8411.4" cy="25602.88" rx="4457.78" ry="4457.79"/>
   <path class="fil0" d="M8279.28 32479.34l-1288.79 -1460.92 754.74 -441.37 0.85 -8.57c-1117.19,-148.28 -2118.16,-664.67 -2876.88,-1423.4 -18.48,-18.48 -36.77,-37.16 -54.96,-55.93 -2293.98,-72.03 -3796.39,1571.43 -3877.07,3460.79l0 6902.12 7443.66 0 7443.65 0 0 -6902.12c-79.94,-1872.12 -1555.79,-3502.77 -3814.46,-3462.31 -18.67,19.28 -37.45,38.46 -56.43,57.44 -772.37,772.37 -1795.78,1293.62 -2937.26,1431.04l0.09 0.93 754.73 441.37 -1288.79 1460.92 933.49 4126.74 -1035.04 2087.66 -1035.04 -2087.66 933.49 -4126.74z"/>
   <line class="fil1" x1="8334.45" y1="38693.74" x2="8427.2" y2= "38693.74" />
   <path class="fil0" d="M21906.31 6133.95c-836.65,696.19 144.1,2136.32 1227,1244.65l2075.7 -1620.65c282.48,-264.82 441.36,-723.83 158.89,-1138.72l-1783.11 -2321.58c-767.98,-712.07 -2012.63,182.42 -1324.09,1094.58l500.21 651.79c-802.61,-118.11 -1623.64,-179.57 -2459.09,-179.57 -9277.48,0 -16798.35,7520.88 -16798.35,16798.36 0,184.65 4.06,368.32 9.97,551.54l1731.94 0c-7.02,-188.96 -11.77,-378.5 -11.77,-569.18 0,-8321.94 6746.27,-15068.2 15068.21,-15068.2 717.27,0 1422.75,50.31 2113.24,147.39l-508.74 409.59zm-1344.81 28860.09c747.89,-790.78 -397.23,-2104 -1366.35,-1089.83l-1868.16 1856.08c-248.96,296.55 -352.12,771.2 -22.29,1149.54l2046.65 2092.95c847.24,615.65 1976.63,-420.57 1184.47,-1244.33l-290.56 -297.37c18.85,0.06 37.7,0.1 56.57,0.1 9277.47,0 16798.35,-7520.89 16798.35,-16798.36 0,-48.66 -1.43,-96.98 -1.84,-145.53l-1729.92 0c0.35,42.67 1.62,85.13 1.62,127.89 0,8321.94 -6746.27,15068.21 -15068.21,15068.21 -146.11,0 -291.73,-2.15 -436.82,-6.35l696.5 -712.99z"/>
   <ellipse class="fil0" cx="30770.18" cy="4539.78" rx="4457.78" ry="4457.79"/>
   <path class="fil0" d="M30638.06 11416.24l-1288.79 -1460.92 754.73 -441.37 0.85 -8.57c-1117.19,-148.27 -2118.16,-664.67 -2876.88,-1423.4 -18.48,-18.48 -36.76,-37.16 -54.96,-55.93 -2293.98,-72.03 -3796.39,1571.43 -3877.07,3460.79l0 3417.54 841.03 -578.46c182.76,-125.7 423.68,-163 642,-134.27 215.56,28.37 440.96,127.09 580.56,271.1l1093.65 1128.17c140.57,145 232.77,373.94 254.43,590.31 21.94,219.24 -22.47,458.5 -153.05,636.26l-684.33 931.59 8.22 24.45c40.3,120.88 73.06,231.11 97.95,330.11 23.83,94.81 44.51,189.96 62.09,285.32l4701.09 0 7443.65 0 0 -6902.13c-79.94,-1872.12 -1555.79,-3502.77 -3814.46,-3462.31 -18.67,19.28 -37.45,38.47 -56.43,57.44 -772.37,772.37 -1795.78,1293.62 -2937.26,1431.04l0.09 0.93 754.73 441.37 -1288.79 1460.92 933.49 4126.74 -1035.04 2087.65 -1035.04 -2087.65 933.49 -4126.74zm-7342.11 4811.37l0 1113.57c306.35,278.33 547.07,634.44 687.92,1047.8l928.12 0c-1.48,-6.03 -2.98,-12.06 -4.5,-18.09 -24.86,-98.91 -48.9,-182.96 -72.09,-252.53 -26.65,-79.92 -57.17,-160.66 -91.36,-242l-121.31 -288.56 962.96 -1310.87 -937.8 -967.4 -1341.66 922.81 -10.28 -4.72z"/>
  </g>
 </g>
</svg>
