<?xml version="1.0" encoding="UTF-8"?>
<!DOCTYPE svg PUBLIC "-//W3C//DTD SVG 1.1//EN" "http://www.w3.org/Graphics/SVG/1.1/DTD/svg11.dtd">
<!-- Creator: CorelDRAW 2020 (64-Bit) -->
<svg xmlns="http://www.w3.org/2000/svg" xml:space="preserve" width="39.3701in" height="6.60736in" version="1.1" style="shape-rendering:geometricPrecision; text-rendering:geometricPrecision; image-rendering:optimizeQuality; fill-rule:evenodd; clip-rule:evenodd"
viewBox="0 0 39370.08 6607.36"
 xmlns:xlink="http://www.w3.org/1999/xlink"
 xmlns:xodm="http://www.corel.com/coreldraw/odm/2003">
 <defs>
  <style type="text/css">
   <![CDATA[
    .fil0 {fill:black}
    .fil3 {fill:#284298}
    .fil2 {fill:#3362AD}
    .fil1 {fill:#C6C7C9}
   ]]>
  </style>
 </defs>
 <g id="Layer_x0020_1">
  <metadata id="CorelCorpID_0Corel-Layer"/>
  <g id="_2377386244688">
   <path class="fil0" d="M9336.81 3297.26c0,-475.27 147.83,-796.03 409.74,-1135.19 177.59,-229.97 617.35,-520.09 1024.84,-520.09l173.41 0c575.57,0 1120.88,486.74 1306.35,979.52 163.61,434.7 178.2,888.72 6.86,1326.86 -49.85,127.46 -196.48,406.57 -288.5,468.2 -16.34,-61.2 -219.17,-280.17 -270.04,-344.79 -106.24,-135 -81.09,-113.4 -265.91,-112.44 -330.89,1.72 -662.28,0.06 -993.23,0.06 15.9,59.54 133.67,192.07 178.37,247.28l520.78 645.81c33.02,41.04 27.02,13.2 41.8,68.56 -182.02,15.14 -126.69,31.52 -394.12,31.52 -583.26,0 -1111.38,-455.11 -1324.43,-992.96 -73.44,-185.41 -125.91,-403.14 -125.91,-662.32zm-1119.3 -157.65c0,514.04 24.23,837.03 262.75,1313.72 77.82,155.53 134.22,261.99 234.95,395.64 276.83,367.28 620.16,675.91 1058.39,864.9 554.57,239.15 1054.15,288.65 1645.64,170.28 83.61,-16.73 143.13,-34.76 224.9,-58.86 73.85,-21.77 159.52,-67.16 230.78,-68.75 8.29,31.04 99.53,180.26 188.69,189.67l1167.07 -0.5c-42.27,-63.13 -91.44,-114.34 -139.84,-175.46 -78.65,-99.31 -388.9,-460.65 -427.69,-533.95 75.33,-112.5 263.19,-238.91 452.27,-556.67 141.03,-237.02 220.24,-417.81 302.79,-706.15 164.76,-575.48 85.72,-1229.33 -120.04,-1705.36 -203.44,-470.66 -496.33,-819.8 -896.24,-1121.63 -997.31,-752.73 -2496.75,-632.63 -3376.47,247.19 -337.9,337.93 -596.24,717.19 -716.74,1190.78 -38.28,150.44 -91.2,364.46 -91.2,555.15z"/>
   <path class="fil0" d="M35285.41 1547.38l0 4351.04c0,36.32 10.97,47.29 47.3,47.29l898.58 0c77.93,0 47.29,-211.7 47.29,-362.59l14.57 -2883.73 345.06 522c28.7,42.38 46.2,70.35 77.35,111.82l735.96 1076.98c199.76,301.53 676.57,1028.21 911.94,1263.58 159.61,159.6 289.89,271.94 532.06,271.94 423.55,0 472.94,-455.32 472.94,-882.81l0 -4303.74c0,-36.33 -10.97,-47.3 -47.29,-47.3l-930.11 0 0 3200.22c-2.45,-2.81 -6.2,-10.99 -7.22,-8.54l-1817.83 -2785.45c-216.3,-245.03 -349.94,-406.23 -744.59,-406.23 -396.55,0 -536,459.94 -536,835.52z"/>
   <path class="fil0" d="M30603.31 3297.26c0,-585.66 321.76,-1208.57 824.87,-1476.76 306.14,-163.18 455.34,-178.52 783.11,-178.52 407.11,0 742.82,227.48 1005.31,492.33 117.16,118.22 214.48,302.26 292.91,463.79 181.65,374.11 182.13,1010.33 5.19,1387.76 -160.5,342.35 -372.58,629.27 -714.8,798.61 -313.65,155.2 -388.07,168.09 -746.25,168.09 -481.51,0 -953.22,-336.3 -1191.71,-731.57 -156.69,-259.71 -258.64,-594.39 -258.64,-923.71zm-1119.29 -110.35c0,482.93 54.36,850.48 257.3,1256.11 155.54,310.89 310.59,517.4 542.76,749.94 411.15,411.82 1058.68,752.76 1864.17,752.76 718.56,0 1270.01,-262.96 1761.82,-697.46 38.25,-33.8 56.83,-40.08 95.08,-78.33l298.55 -363.56c286.92,-381.23 477.24,-1002.6 477.24,-1509.11 0,-401.13 -108.56,-790.72 -231.85,-1076.61 -111.54,-258.64 -332.27,-579.94 -528.45,-780.02 -1006.19,-1026.15 -2712.37,-1064.93 -3736.56,-39.07 -51.78,51.87 -112.28,104.8 -156.09,159.21l-146.1 184.95c-269.57,387.71 -497.87,916.67 -497.87,1441.18z"/>
   <path class="fil1" d="M2778.72 3423.38c0,-278.08 23.27,-522.5 100.23,-751.06 32.69,-97.07 88.78,-181.05 135.31,-258.81 107.31,-179.35 204.81,-302.33 368.41,-435.57 76.61,-62.39 160,-117.33 247.13,-162.75 476.99,-248.68 1090.51,-226.52 1538.57,38.32 275.86,163.05 576.19,488.69 721.3,776.34 70.85,140.46 99.06,178.47 163.74,340.73 258.24,647.75 253.21,1309.22 -85.22,1923.94 -26.22,47.61 -45.16,69.86 -77.06,112.12 -155.51,206.03 -282.62,321.53 -521.94,455.47 -483.61,270.67 -1069.59,197.55 -1539.41,-62.96 -608.15,-337.23 -1051.06,-1197.57 -1051.06,-1975.75zm-977.41 -31.53c0,1149.9 585.78,2285.67 1547.8,2866.3 580.68,350.47 1372.84,481.39 2014.95,191.98 348.99,-157.3 577.48,-332.11 839.44,-626.67l241.56 -341.73c220.14,-366.07 400.94,-902.43 400.94,-1364.7 0,-584.43 -40.93,-895.23 -254.25,-1416.81 -132.28,-323.43 -312.52,-605.13 -529.02,-874.03 -422.54,-524.83 -1112.9,-1003.97 -1817.9,-1003.97 -495.01,0 -763.73,18.53 -1208.7,257.41 -169.37,90.92 -205.56,132.97 -342.96,240.33 -577.7,451.42 -891.86,1313.28 -891.86,2071.89z"/>
   <path class="fil0" d="M13987.38 3880.55c0,662.06 134.36,1184.72 468.99,1517.36 86.74,86.23 154.8,161.62 259.02,229.68 91.53,59.76 220.76,132.56 333.91,170.56 716.49,240.67 1738.76,225.7 2292.01,-329.31 357.81,-358.95 524.17,-817.32 524.17,-1351.82l0 -3405.16 -1024.7 0 0 3326.34c0,251.15 -73.32,561.79 -192.51,690.3 -265.99,286.79 -1157.15,331.08 -1387.47,-40.43 -113.76,-183.5 -169.89,-421.88 -169.89,-712.93l0 -3263.28 -1103.53 0 0 3168.69z"/>
   <path class="fil0" d="M20324.76 2304.09c65.55,281.34 154.1,548.71 223.84,832.39 32.46,132.04 72.22,269.46 110.46,409.77 22.85,83.85 105.59,361.11 107.11,428.89l-977.41 0c20.06,-41.82 47.13,-149.4 65.07,-202.93l454.13 -1437.63c14.67,-31.83 5.21,-13.81 16.8,-30.49zm-2159.75 3641.63l961.64 0 268 -1008.93 1812.94 0c38.84,166.7 84.65,327.78 132.78,497.81l135.22 511.13 977.41 0c-5.84,-70.15 -186.74,-583.69 -222.71,-691.64 -75.48,-226.52 -150.31,-451.31 -228.51,-685.83l-1036.6 -3109.5c-34.63,-103.93 -78.69,-233.64 -130.76,-326.43 -338.19,-602.7 -695.18,-546.26 -1005.44,-33.44 -60.39,99.81 -88.97,208.75 -128.85,328.33l-1418.81 4161.87c-30.33,91.13 -110.31,284.63 -116.3,356.63z"/>
   <path class="fil0" d="M26173.45 1484.33l0 4524.45 1119.29 0 0 -2238.58 1608 0c36.32,0 47.29,-10.97 47.29,-47.29l0 -961.65 -1655.29 0 0 -977.41 1828.7 0 0 -1008.94 -2191.28 0c-400.96,0 -756.7,358.8 -756.7,709.41z"/>
   <path class="fil0" d="M22894.4 743.39l0 4382.57c0,248.87 88.89,444.4 216.52,571.72 129.82,129.5 304.25,248.04 555.95,248.04l1844.46 0 0 -1008.93 -1623.76 0 0 -4240.69 -945.87 0c-36.33,0 -47.3,10.97 -47.3,47.3z"/>
   <path class="fil2" d="M3129.21 301.98l0.22 -236.47c-131.69,2.67 -400.53,108.33 -512.9,153.11 -159.57,63.59 -301.06,139.22 -433.76,228.36l-376.81 285.3c-108.26,90.53 -237.87,237.23 -326.81,351.07 -206.29,264.02 -352.38,501.88 -486.38,837.85 -115.87,290.51 -233.05,711.15 -263.46,1076.54 -553.46,0 -1024.72,817.54 -508.48,1328.24 82.57,81.69 101.63,107.94 213.98,164.37 768.57,385.99 1502.76,-479.07 1048.39,-1142.98 -89.61,-130.94 -295.42,-314.56 -454.37,-318.1 0,-392.33 244.25,-1030.17 420.16,-1377.01 69.5,-137.03 261.22,-426.01 372.02,-542.32 184.51,-193.69 161.11,-211.85 469.03,-429.56 193.21,-136.61 368.26,-226.94 592.91,-305.69 78.09,-27.37 181.8,-45.43 246.25,-72.71z"/>
   <path class="fil3" d="M3129.43 65.51l-0.22 236.47c80.74,-7.45 163.89,-36.69 249.7,-46.16 825.39,-91.17 1448.34,67.24 2136.54,525.41l262.62 194.56c94.85,84.71 224.06,180.69 315.04,284.01 960.58,1090.84 1397.32,2604.35 924.29,4021.8 -17.12,51.31 -72.69,188.89 -76.81,238.47 -71.48,-1.59 -186.2,-48.12 -326.89,67.23 -82.52,67.65 -132.53,140.88 -170.67,254.98 -183.86,550.06 419.02,1014.78 721.91,532.72 116.35,-185.17 125.15,-500.73 -8.66,-676.94 -76.88,-101.24 -28.7,-93.33 42.65,-298.01 38.59,-110.69 68.5,-208.99 98.14,-327.5 97.89,-391.26 113.66,-775.04 101.21,-1192.52 -3.68,-123.36 -31.3,-279.15 -46.85,-394.56 -90.21,-669.92 -371.56,-1333.82 -722.99,-1862.41 -149.17,-224.38 -392.63,-519.8 -590.19,-702.52l-239.37 -202.03c-477.44,-372.74 -1209.82,-720.04 -1869.13,-716.27 -160.7,0.92 -661.87,-14.13 -800.31,63.27z"/>
   <path class="fil0" d="M3472.37 3360.32c304.5,-146.11 659.71,216.3 457.18,599.06 117.04,-9.74 236.46,-170.19 236.46,-299.53 0,-228.89 -204.76,-504.47 -425.65,-504.47 -124.8,0 -244.99,106.18 -268,204.94z"/>
   <path class="fil0" d="M4418.24 3407.61c240.46,-115.37 425.65,76.92 425.65,409.88 0,79.23 -14.18,70.59 -15.76,141.88 268.81,-62.63 247.57,-508.09 -47.47,-693.47 -210.28,-132.13 -350.05,-6.89 -362.42,141.7z"/>
   <path class="fil0" d="M5206.48 3439.14c300.24,-144.06 529.17,237.44 378.35,551.76 356.26,-83 166.08,-726.5 -145.9,-749.41 -117.26,-8.61 -208.56,95.07 -232.45,197.65z"/>
  </g>
 </g>
</svg>
