<?xml version="1.0" encoding="UTF-8"?>
<!DOCTYPE svg PUBLIC "-//W3C//DTD SVG 1.1//EN" "http://www.w3.org/Graphics/SVG/1.1/DTD/svg11.dtd">
<!-- Creator: CorelDRAW 2020 (64-Bit) -->
<svg xmlns="http://www.w3.org/2000/svg" xml:space="preserve" width="39.3701in" height="23.1431in" version="1.1" style="shape-rendering:geometricPrecision; text-rendering:geometricPrecision; image-rendering:optimizeQuality; fill-rule:evenodd; clip-rule:evenodd"
viewBox="0 0 39370.08 23143.11"
 xmlns:xlink="http://www.w3.org/1999/xlink"
 xmlns:xodm="http://www.corel.com/coreldraw/odm/2003">
 <defs>
  <style type="text/css">
   <![CDATA[
    .fil0 {fill:#282829}
   ]]>
  </style>
 </defs>
 <g id="Layer_x0020_1">
  <metadata id="CorelCorpID_0Corel-Layer"/>
  <path class="fil0" d="M34311.82 1.97c2792.63,0 5056.52,2263.88 5056.52,5056.52 0,1995.3 -1155.84,3720.42 -2834.36,4543l-4491.37 -9599.52 2268.91 0 0.31 -0zm524.78 10086.04c-172.5,17.81 -347.57,27 -524.78,27l-0.31 -0 -3599.21 0 -4606.45 -10113.02 4011.75 0 4719 10086.03zm-6049.31 26.99l-4664.46 0 -5279.43 -10113.02 5337.44 0 4606.45 10113.02zm-6589.46 0l-5742.78 0 -5103.39 -10113.02 5566.73 0 5279.43 10113.02zm-7667.78 0l-4890.2 0 -5076.2 -10089.22c161.63,-15.58 325.41,-23.81 491.12,-23.81l0.31 0 4371.59 0 5103.39 10113.02zm-6815.21 0l-2659.77 0 -0.31 0c-2792.63,0 -5056.52,-2263.88 -5056.52,-5056.52 0,-2011.96 1175.13,-3749.42 2876.44,-4563.55l4840.16 9620.06z"/>
  <path class="fil0" d="M9706.8 10494.72l1937.5 0 0 11612.47 1443.22 0 0.31 -0c286.6,0 518.94,232.34 518.94,518.94 0,286.6 -232.34,518.94 -518.94,518.94l-0.31 -0 -1443.22 0 -1937.5 0 -1443.23 0 -0.31 0c-286.6,0 -518.94,-232.34 -518.94,-518.94 0,-286.6 232.34,-518.94 518.94,-518.94l0.31 0 1443.23 0 0 -11612.47z"/>
  <path class="fil0" d="M29752.65 10483.23l1937.5 0 0 11612.47 1443.22 0 0.31 -0c286.6,0 518.94,232.34 518.94,518.94 0,286.6 -232.34,518.94 -518.94,518.94l-0.31 -0 -1443.22 0 -1937.5 0 -1443.23 0 -0.31 0c-286.6,0 -518.94,-232.34 -518.94,-518.94 0,-286.6 232.34,-518.94 518.94,-518.94l0.31 0 1443.23 0 0 -11612.47z"/>
 </g>
</svg>
