<?xml version="1.0" encoding="UTF-8"?>
<!DOCTYPE svg PUBLIC "-//W3C//DTD SVG 1.1//EN" "http://www.w3.org/Graphics/SVG/1.1/DTD/svg11.dtd">
<!-- Creator: CorelDRAW 2020 (64-Bit) -->
<svg xmlns="http://www.w3.org/2000/svg" xml:space="preserve" width="39.3701in" height="16.6289in" version="1.1" style="shape-rendering:geometricPrecision; text-rendering:geometricPrecision; image-rendering:optimizeQuality; fill-rule:evenodd; clip-rule:evenodd"
viewBox="0 0 39370.08 16628.94"
 xmlns:xlink="http://www.w3.org/1999/xlink"
 xmlns:xodm="http://www.corel.com/coreldraw/odm/2003">
 <defs>
  <style type="text/css">
   <![CDATA[
    .fil1 {fill:#FEFEFE}
    .fil2 {fill:#555A62}
    .fil0 {fill:#00245E}
   ]]>
  </style>
 </defs>
 <g id="Layer_x0020_1">
  <metadata id="CorelCorpID_0Corel-Layer"/>
  <g id="_2342254918752">
   <polygon class="fil0" points="-1.63,16590.8 16471.31,16601.59 16472.27,37.98 3.29,26.68 "/>
   <path class="fil1" d="M11126.13 10079.21c-20.09,-219.51 -30.82,-1682.43 12.39,-1822.79 929.17,-8.75 2340.19,-254.8 2340.79,906.02 0.26,496.98 -298.3,807.35 -726.3,894.16 -321.84,65.28 -1245.67,28.59 -1626.88,22.61zm-2.17 -4028.58c928.75,-15.17 2286.37,-240.43 2276.72,867.24 -9.58,1097.16 -1324.59,870.76 -2280.3,857.98l3.57 -1725.22zm2110.39 1961.88c96.45,-119.09 223.18,-79.75 454.83,-374.12 410.5,-521.67 295.52,-1324.24 -205.39,-1749.43 -337.04,-286.07 -767.81,-312.45 -1299.36,-312.42 -521.39,0 -1067.56,-15.71 -1594.85,2.02l11.4 4976.14c549.07,21.62 1138.1,2.2 1691.62,2.27 516.47,0.03 1031.05,-67.9 1314.08,-351.09 604.36,-604.78 598.68,-1789.16 -372.33,-2193.37z"/>
   <path class="fil2" d="M18225.59 16100.74l-5.11 -1787.3c309.09,-20.63 1268,-32.8 1532.92,14.85 984.45,177.16 962.41,1569.84 26.51,1753.07 -254.83,49.89 -1262.47,42.7 -1554.32,19.39zm7.5 -3971.28c343.84,-13.83 1180.97,-35.48 1485.69,19.52 938.53,169.37 927,1502.04 -22.77,1660.64 -286.9,47.91 -1152.19,38.39 -1475.85,16.83l12.93 -1696.99zm-531.83 4453.7c541.38,22.61 1115.52,2.24 1648.95,2.43 539.02,0.19 975.13,-57.58 1272.34,-364.35 271.44,-280.16 447,-721.7 355.91,-1253.63 -86.13,-502.96 -354.73,-722.08 -729.65,-914.92 154.48,-130.63 582.19,-273.52 662.61,-895.16 63.2,-488.43 -129,-968.74 -383.41,-1170.65 -343.85,-272.87 -674.98,-338 -1231.91,-338 -507.81,0 -1093.2,-26.7 -1591.5,4.28l-3.35 4929.99z"/>
   <path class="fil1" d="M2852.82 6051.91c345.79,-11.72 1311.94,-38.78 1603.09,22.77 979.57,207.02 961.52,1602.77 -13.83,1779.03 -335.47,60.62 -1219.19,33.7 -1593.09,20.44l3.83 -1822.24zm1787.88 2245.2c297.5,-110.41 399.03,-122.54 622.63,-296.35 542.97,-422 578.84,-1479.07 134.87,-1948.94 -336.88,-356.52 -643.01,-476.09 -1298.88,-475.3 -590.56,0.7 -1186.78,-8.56 -1786.48,0.86l12.26 4979.78 523.46 -4.79 1.25 -2207.54 1205.78 0.67c58.29,165.89 188.69,397.98 273.87,559.39 97.85,185.53 189.42,365.05 285.87,551.98 167.48,324.65 378.37,812.88 573.41,1100.32l599.89 -3.42c-43.63,-209.48 -1121.11,-2071.91 -1147.94,-2256.67z"/>
   <path class="fil2" d="M18218.95 506.99c240.94,-29 1328.61,-27.66 1549.33,18.17 420.62,87.32 677.34,394.5 677.02,876.6 -0.32,498.68 -272.43,791.07 -708.48,872.89 -234.74,44.07 -1258.35,45.07 -1516.76,16.1l-1.12 -1783.76zm-517.71 4450.44l505.22 3.42 14.76 -2190.49 1129 -2.87c84,92.59 686.83,1352.28 832.14,1642.37 82.3,164.32 189.52,418.8 280.99,550.83l582.26 -0.19c-25.77,-150.2 -451.22,-915.59 -547.86,-1110.32l-563 -1137.31c1433.53,-294.21 1495.11,-2690.38 -476.35,-2697.79 -549.26,-2.07 -1221.17,-32.48 -1756.77,5.62l-0.38 4936.73z"/>
   <path class="fil2" d="M24895.15 3673.15c-38.01,335.38 -125.71,567.66 -326.12,730.32 -349.66,283.77 -1534.33,378.72 -1280.93,-1601.78 40.37,-315.55 151.32,-598.87 339.88,-718.73 218.26,-138.74 569.58,-177.39 829.52,-56.15 465.52,217.15 507.91,1026.58 437.65,1646.33zm18.2 -1766.17c-177.22,-164.86 -290.06,-322.67 -647.41,-385.49 -1100.32,-193.45 -1495.43,620.33 -1495.24,1719.02 0.16,1077.2 356.65,1909.24 1459.21,1741.6 453.23,-68.89 545.82,-317.27 690.31,-395.78l3.57 371.5 474.18 2.68 12.2 -4940.91 -496.38 -4.63 -0.45 1892z"/>
   <path class="fil2" d="M27503.57 16578.15l482.93 7.44c64.77,-342.72 -95.02,-872.09 97.67,-1096.3 111.3,-129.51 475.36,-575.36 575.07,-631.38 57.33,159.5 962.86,1635.63 1031.56,1726.94l576.45 0.86c-5.24,-105.78 -843.03,-1384.09 -965.13,-1583.86 -83.84,-137.11 -278.5,-405.16 -322.29,-542.65l827.67 -950.73c92.27,-120.79 201.5,-206.54 270.52,-334.77 -830.35,-29.41 -494.02,-67.42 -1183.74,692.44 -146.31,161.19 -282.75,349.05 -432.6,513.81l-464.89 527.58 0.54 -3250.95 -492.26 -4.6 -1.5 4926.16z"/>
   <path class="fil2" d="M35637.44 15021.59c43.91,401.07 38.17,868.39 -330.59,1066.72 -211.75,113.89 -1431.13,333.62 -1314.53,-587.63 26.83,-211.91 144.68,-345.44 312.67,-415.67 221.43,-92.52 1055.8,-92.43 1332.45,-63.43zm-1998.64 -1392.04c22.87,34.75 260.2,275.21 307.27,315.96 62.5,-31.62 132.74,-126.83 195.84,-185.75 224.94,-210.06 664.82,-223.41 956.31,-166.46 536.72,104.89 545.59,474.22 545.59,1039.61 -431.06,-2.59 -1208.53,-49.6 -1560.32,96.36 -855.14,354.76 -788.22,1736.81 286.96,1879.7 217.69,28.91 550.07,26.89 757.12,-26.54 325.39,-83.93 384.72,-237.84 513.31,-296.19l9.93 300.57 474.12 -2.52c55.8,-322.57 9.68,-1202.94 9.55,-1581.11 -0.26,-920.45 155.7,-1886.67 -1371.15,-1873.06 -436.11,3.87 -884.71,125.93 -1124.53,499.44z"/>
   <path class="fil2" d="M28264.52 2993.51l-1731.74 9.23c15.01,-593.15 268.47,-1079.18 875.61,-1071.64 590.66,7.31 852.2,481.56 856.13,1062.41zm429.05 1471.31c-79.52,-83.17 -214.52,-211.94 -311.78,-285.24 -121.94,57.39 -557.28,579.74 -1271.64,306.86 -364,-139.02 -620.74,-574.34 -574.15,-1091.31l2225.46 -7.79c5.94,-928.59 -218.42,-1642.41 -982.6,-1840.52 -1963.16,-508.96 -2174.39,2518.04 -1136.64,3216.78 701.83,472.55 1662.65,202.26 2051.33,-298.78z"/>
   <path class="fil2" d="M21336.37 8819.36c22.58,-599.79 263.68,-1082.44 880.46,-1074.07 590.41,8.02 843.67,478.08 852.52,1073.4l-1732.98 0.67zm2153.54 1478.76c-39.22,-86.74 -239.06,-263.01 -326.95,-304.66 -138.74,121.84 -274.09,263.58 -514.26,331.74 -233.85,66.4 -536.49,60.3 -750.16,-32.9 -347,-151.39 -603.31,-557.22 -558.43,-1087.58l2224.31 -6.9c9.96,-926.48 -215.68,-1631.7 -979.21,-1836.56 -918.44,-246.43 -1504.18,334.84 -1673.99,1059.83 -297.24,1269.08 186.93,2573.33 1673.89,2373.49 456.26,-61.32 640.1,-258.54 904.8,-496.47z"/>
   <path class="fil2" d="M26884.55 8819.36c11.79,-1301.59 1183.14,-1249.15 1532.54,-746.67 153.4,220.59 183.48,428.89 202.2,745.24l-1734.74 1.44zm2160.21 1460.68c-88.47,-83.36 -223.88,-240.3 -338.48,-286.16 -140.24,125.26 -270,263.87 -513.21,331.39 -237.3,65.89 -535.66,56.15 -752.14,-31.3 -378.05,-152.72 -563.38,-570.35 -555.17,-1087.2l2226.93 -8.81c12.43,-933.61 -229.09,-1630.71 -983.88,-1836.43 -423.72,-115.49 -851.5,-19.9 -1144.33,187.41 -852.77,603.72 -767.69,2484.19 9.58,3028.09 569.2,398.3 1609.64,294.28 2050.7,-296.99z"/>
   <path class="fil2" d="M21521.39 13175.14c-46.47,395.96 -6.71,1052.13 -7.15,1476.52 -0.48,437.9 -49.73,988.51 129.83,1356.98 360.51,739.97 1319.06,747.89 1785.58,396.76 98.37,-74.03 111.11,-112.01 203.51,-161.54 10.99,310.34 -132.19,393.63 493.44,336.4l-4.66 -3407.64 -485.33 5.56c-123.35,1441.39 381.91,2994.56 -824.99,2998.04 -321.2,0.93 -545.88,-134.04 -661.08,-323.18 -300.92,-493.89 -50.84,-2031.34 -152.09,-2681.66l-477.06 3.77z"/>
   <path class="fil2" d="M31041.74 13510.55l-1.92 -339.28 -484.15 1.18 -6.74 3406.81 495.39 7.09c-7.19,-635.98 -0.7,-1273.27 -1.06,-1907.71 -0.32,-624.19 149.89,-1087.96 799.53,-1096.65 1000.39,-13.38 823.52,1059.31 823.07,2043.13 -0.13,260.1 -26.44,718.25 7.73,954.18l476.39 5.65c52.15,-308.23 9.74,-1116.93 9.52,-1473.61 -0.32,-454.41 50.49,-970.88 -127.66,-1351.8 -277.51,-593.31 -1000.13,-763.57 -1542.47,-541.92 -307.05,125.48 -341.35,247.07 -447.64,292.93z"/>
   <polygon class="fil1" points="6740.9,10556.11 9823.39,10557.19 9820.67,10080.46 7272.8,10070.78 7273.02,5576.61 6741.13,5577.19 "/>
   <polygon class="fil2" points="17700.82,10765.49 20670.28,10772.33 20668.26,10287.22 18226.78,10287.83 18219.85,5834.7 17703.54,5833.78 "/>
   <path class="fil2" d="M24768.32 10771.05l413.05 0.64c109.26,-199.45 224.4,-605.96 311.81,-845.65 115.01,-315.35 888.19,-2423.95 909.3,-2568.34l-524.42 -0.93 -896.46 2693.29 -904.29 -2691.21 -525.89 -2.91c27.37,156.91 1157.84,3322.91 1216.9,3415.11z"/>
   <path class="fil2" d="M26813.43 15798.35c-134.07,96.26 -543.65,630.96 -1221.97,264.8 -418.8,-226.06 -512.22,-712.24 -514.23,-1168.13 -4.18,-954.14 511.3,-1477.8 1238.13,-1282.98 246.46,66.08 362.78,218.78 498.07,339.79 111.24,-56.88 223.41,-184.85 322.67,-300.69 -89.36,-183.42 -427.97,-429.89 -725.63,-490.02 -343.72,-69.43 -740.89,-25.17 -1025.94,115.52 -1057.85,522.15 -1103.45,2661.89 23.89,3212.41 665.04,324.74 1568.18,24.88 1731.64,-378.37l-326.63 -312.32z"/>
   <path class="fil2" d="M31554.31 7374.43l-413.89 0.26 4.35 390.67 411.13 1.06c-3.26,693.91 -22.93,1434.96 0.42,2124.67 23.6,698.29 481.49,938.69 1188.18,875.77l9.23 -426.59c-643.42,-61.26 -705.89,59.59 -705.09,-934.47 0.44,-546.49 -0.8,-1092.98 0.29,-1639.44l693.15 -0.29 14.15 -382.96 -701.32 -9.87 -7.67 -1058.55 -483.7 -5.88 -9.23 1065.64z"/>
   <path class="fil2" d="M29769.18 7374.49l-413.76 0.09 4.25 391.43 411.1 0.74c-2.43,703.08 -14.37,1424.39 -0.61,2125.91 13.83,704.42 487.24,933.83 1189.52,874.39l9.04 -426.21c-288.91,-29.61 -514.71,23 -634.51,-184.15 -111.94,-193.61 -74.35,-509.54 -74.35,-750.92 -0.03,-495.84 -37.37,-1157.97 4.98,-1633.37l703.33 -7.76 1.72 -392.32 -703.88 1.98 -7.28 -1057.91 -480 -7.83 -9.58 1065.93z"/>
   <path class="fil2" d="M39368.45 16583.07l-0.67 -429.53c-851.02,-29.09 -702.44,-26.93 -701.51,-1880.47 0.29,-580.31 27.15,-2166.85 -5.33,-2624.08l-486.96 1.06c-37.4,598.1 -3.8,2331.94 -4.37,3055.69 -0.99,1288.76 -163.01,1923.91 1198.85,1877.34z"/>
   <path class="fil2" d="M37932.11 16583.83l-4.76 -432.73c-866.54,-8.65 -702.57,-141.26 -701.67,-1905.06 0.38,-826.36 44.3,-1782.93 -3.9,-2593.39l-484.94 -3.83c-37.11,537.64 -5.18,2379.53 -5.14,3056.9 0.09,1290.42 -168.89,1916.37 1200.41,1878.11z"/>
   <path class="fil2" d="M29882.72 1907.02l-0.73 -354.44 -485.14 -11.05 -3.35 3412.02 483.15 5.69c79.56,-685.13 -78.5,-1618.29 23,-2284.7 48.51,-318.32 237.33,-577.66 491.04,-671.97 512.92,-190.67 775.23,151.42 857.41,188.56 64.8,-52.92 323.5,-320.56 350.65,-390.83 -236.72,-183.54 -434.8,-334.8 -892.7,-296.83 -511.71,42.48 -615.41,275.97 -823.33,403.56z"/>
   <polygon class="fil2" points="21633.46,4952.77 22118.82,4960.05 22126.48,1548.61 21636.52,1542.22 "/>
   <polygon class="fil2" points="21607.49,572.21 22151.75,581.02 22146.16,12.43 21616.05,12.56 "/>
  </g>
 </g>
</svg>
