<?xml version="1.0" encoding="UTF-8"?>
<!DOCTYPE svg PUBLIC "-//W3C//DTD SVG 1.1//EN" "http://www.w3.org/Graphics/SVG/1.1/DTD/svg11.dtd">
<!-- Creator: CorelDRAW 2020 (64-Bit) -->
<svg xmlns="http://www.w3.org/2000/svg" xml:space="preserve" width="39.3701in" height="39.3701in" version="1.1" style="shape-rendering:geometricPrecision; text-rendering:geometricPrecision; image-rendering:optimizeQuality; fill-rule:evenodd; clip-rule:evenodd"
viewBox="0 0 39370.08 39370.08"
 xmlns:xlink="http://www.w3.org/1999/xlink"
 xmlns:xodm="http://www.corel.com/coreldraw/odm/2003">
 <defs>
  <style type="text/css">
   <![CDATA[
     .fil0 {fill:#162747}
     .fil1 {fill:#162747;fill-rule:nonzero}
   ]]>
  </style>
 </defs>
 <g id="Layer_x0020_1">
  <metadata id="CorelCorpID_0Corel-Layer"/>
  <g>
   <path class="fil0" d="M19754.64 8054.38l-111.74 -215.97c-1688.89,345.83 -2752.78,1579.17 -3516.67,3025 86.11,866.67 197.22,1741.67 370.84,2537.5l-2604.17 1558.34 2962.64 2685.34c145.05,-15.23 290.06,-29.07 435.11,-41.5l-2795.73 -2531.47 1225 -683.33 3042.73 3132.88c224.29,-5.72 448.35,-8.59 672.18,-8.67l-2124.55 -2218.5 2444.36 1279.17 0 941.13c104.43,1.2 208.79,2.99 313.05,5.33l2131.31 -2225.64 -2444.36 1166.67 0 -1261.48 2939.58 -1392.72 356.25 -2843.75 -2787.5 962.5 2491.67 -1927.73c-363.89,-502.09 -875.69,-988.93 -1333.33,-1343.1l-1466.67 1179.17 904.17 -1491.67c-316.67,-244.44 -741.67,-288.89 -1104.17,-287.5zm0 0c-362.5,-1.39 -708.33,88.89 -1025,333.33l891.67 1466.67 -1400 -1225c-457.64,354.17 -856.94,753.52 -1220.83,1255.6l2354.17 2036.07 -2858.33 -866.67 468.75 2802.08 2789.58 1342.72 0 -7144.8zm2482.09 9594.23l2869.29 -2577 -1316.67 -683.33 -3063.08 3153.82c506.14,23.26 1007.84,59.11 1510.46,106.52zm-5628.42 23.39c-152.59,17.87 -305.16,37.17 -457.75,58.08l-879.16 -676.49 31.47 -491.22 1305.44 1109.63zm2726.01 -3012.37l0 -2126.57 -2383.34 -933.33 0 470.83 197.52 77.35 0 1575.67 448.17 175.51 0 -1575.67 393.35 154.04 0 1575.67 515.09 251.41 0 -1625.37 285.43 111.78 0 1575.67 543.79 293.02zm142.63 1159.39l-2670.83 -1741.67 -504.17 437.5 3175 1304.17zm-3923.7 -985.05c223.29,0 404.3,181.01 404.3,404.3 0,223.29 -181.01,404.3 -404.3,404.3 -223.29,0 -404.3,-181.01 -404.3,-404.3 0,-223.29 181.01,-404.3 404.3,-404.3zm864.58 1040.58c176.14,0 318.93,142.79 318.93,318.93 0,176.14 -142.79,318.93 -318.93,318.93 -176.14,0 -318.93,-142.79 -318.93,-318.93 0,-176.14 142.79,-318.93 318.93,-318.93zm4735.02 -7848.42c-481.54,-269.31 -968.02,-424.02 -1398.2,-409.63 -1349.74,-45.14 -3253.65,1574.3 -3849.22,3191.66 22.22,697.22 181.94,1619.44 325,2456.25l-2825 1685.43 996.81 847.14 -704.55 157.51 -1715.32 -1839.58 -1483.33 -25 191.67 1583.33 1916.67 1425 -1.01 1429.11c-619.57,197.78 -1238.3,428.07 -1855.2,694.3l1537.46 4537.45 7625.01 3704.16 1691.66 -2162.49 -2463.89 -1171.43 485.35 -517.2c1087.82,527.11 2186.11,1033.45 3288.94,1544.74 -840.28,1112.5 -1788.89,2554.17 -3308.33,3700 -811.11,-630.56 -1472.21,-1344.45 -2208.32,-2016.68 -1485.31,-615.62 -2929.17,-1253.47 -4350,-1983.33 980.56,2744.44 3394.44,5088.88 6491.67,7433.32 3466.67,-1863.89 6493.43,-5959.17 6910.1,-8364.73l-4694.91 -2341.78 1342.82 -1219.64c563.22,73.71 1127.99,161.8 1698.25,261.76l-312.49 1529.17 2579.17 1279.17 1200 -4758.34c-114.64,-26.52 -794.5,-176.59 -997.66,-222.43l2.84 -1443.18 1916.67 -1425 191.67 -1583.33 -1483.33 25 -1715.32 1839.58 -913.04 -204.13 838.37 -712.48 -2825 -1685.43c143.06,-836.81 302.78,-1759.03 325,-2456.25 -371.99,-1010.19 -1254.38,-2021.2 -2193.1,-2626.74 168.51,-211.79 272.35,-278.64 348.78,-566.07 -422.22,-670.14 -911.11,-861.11 -1516.67,-1129.17 257.63,300 417.35,577.08 535.41,906.25 -886.47,-715.19 -1558.11,-936.93 -2218.77,-1106.24l354.17 491.67c-1998.61,-62.5 -2713.89,2500 -4295.83,1962.5 107.64,240.28 316.31,471.18 734.37,598.96 -642.36,389.58 -1542.17,805.28 -2459.37,651.04 449.3,418.06 990.27,765.28 1991.66,550 -650.69,545.83 -163.89,1629.17 -718.75,2525 677.78,-264.58 1488.89,-627.08 1585.42,-1214.58l-191.67 -252.09c2.09,391.67 -483.33,825 -950,1000 13.89,-983.33 365.28,-1800 916.67,-2425 -638.89,176.39 -1561.11,259.03 -1825,-12.5 797.22,-45.83 1719.44,-379.17 2149.99,-945.83 -164.58,-15.98 -375,-60.07 -443.75,-154.17 1318.75,-287.5 2392.71,-2665.62 4028.13,-1794.79 -47.22,-190.28 -96.53,-369.1 -163.54,-542.71 614.24,275.7 1167.02,620.14 1730.21,973.96 32.64,-235.42 -3.47,-415.62 -67.71,-603.13 253.82,146.18 424.31,342.36 545.83,566.67 -68.65,164.34 -162.71,295.06 -327.48,364.93l0 0zm-1271.76 12212.07l78.89 -67.04 169.32 -9.82 -139.13 244 -109.09 -167.13zm3682.94 -2438.8c-236.29,-31.25 -473.25,-60.33 -710.73,-87.04l1706.45 -1450.27 45.06 703.47 -1040.78 833.85zm3378.46 584.88c-454.82,-95.15 -912.61,-185.17 -1373.01,-268.69l300.41 -273.25 767.8 26.24 -20.83 -1283.33 -1316.81 -176.64 -458.57 367.35 -56.23 -705.52 291.27 -247.54 1867.33 370.62 -1.35 2190.75zm-8571.4 4606.32c308.42,156.43 616.13,309.37 929.06,462.53l-451.67 536.94 -1065.96 -506.8 588.57 -492.68zm-836.91 -2215.05l-580.17 -509.72c334.21,-39.06 664.54,-69.81 992.28,-92.88l520.19 428.93 -932.3 173.68 0 0zm-331.69 61.79l-2028.45 377.88c647.39,400.91 1317.21,783.22 2008.15,1155l-214.75 725.52 -2232.98 -1061.65 -479.16 -1281.24c806.77,-197.02 1590.62,-343.04 2364.59,-445.41l582.6 529.89zm4364.95 655.3l-843.98 -420.99 1039.94 -854.06c361.94,31.58 724.18,70.12 1087.43,114.92l-1283.39 1160.14zm2388.58 -6658.68c-223.29,0 -404.3,181.01 -404.3,404.3 0,223.29 181.01,404.3 404.3,404.3 223.29,0 404.3,-181.01 404.3,-404.3 0,-223.29 -181.01,-404.3 -404.3,-404.3zm-864.58 1040.58c-176.14,0 -318.93,142.79 -318.93,318.93 0,176.14 142.79,318.93 318.93,318.93 176.14,0 318.93,-142.79 318.93,-318.93 0,-176.14 -142.79,-318.93 -318.93,-318.93zm-3221.62 34.06l2854.17 -1952.09 525 550 -3379.17 1402.08zm361.36 -1366.82l0 -1991.15 2280.21 -892.95 0 400 -202.55 79.32 0 1511.08 -396.25 155.17 2.08 -1521.5 -441.98 177.78 -2.08 1521.5 -345.88 168.82 0 -1529.53 -463.66 202.67 0 1479.83 -429.89 238.95zm5115.86 3533.94c-269.37,-47.5 -539.61,-92.75 -810.66,-135.43l1509.33 -1239.59 412.74 76.2 -2.08 295.83 -1109.34 1002.98zm2540.69 -3532.05l670.7 12.35 -124.76 1277.97 393.49 -298.8 133.33 -1108.33 -916.67 -31.25 -156.11 148.06zm-516.1 489.47l530.96 35.43 -60.15 1214.38 426.59 -323.93 38.89 -1207.22 -580.64 -55.96 -355.65 337.31zm-567.63 538.34l469.03 6.43 -4.19 532.29 0 608.33 445.85 -338.56 7.5 -1170.41 -565.23 27.18 -352.95 334.74zm-371 351.85l248.14 -235.34 415.92 10.1 10.8 376.11 -674.87 -150.87zm-399.54 1770.22l372.94 14.6 9.82 -362.73 -382.76 348.13zm-10867.03 193.88c-249.08,45.81 -498.3,96.31 -747.35,151.41l-999.27 -878.07 -2.08 -295.83 412.74 -76.2 1335.95 1098.69zm-981.51 204.75c-417.41,97.35 -835.2,208.36 -1252.57,333.91l0 -2144.52 1653.85 -328.24 488.05 414.77 -39.53 495.92 -458.57 -367.35 -1316.81 176.64 -20.83 1283.33 767.8 -26.24 178.61 161.8zm-2196.46 -3460.47l-670.7 12.35 124.76 1277.97 -393.49 -298.8 -133.33 -1108.33 916.67 -31.25 156.11 148.06zm516.1 489.47l-530.96 35.43 60.15 1214.38 -426.59 -323.93 -38.89 -1207.22 580.64 -55.96 355.65 337.31zm567.63 538.34l-469.03 6.43 4.19 532.29 0 608.33 -445.85 -338.56 -7.5 -1170.41 565.23 27.18 352.95 334.74zm371 351.85l-248.14 -235.34 -415.92 10.1 -10.8 376.11 674.87 -150.87zm399.54 1770.22l-372.94 14.6 -9.82 -362.73 382.76 348.13zm-2429.12 1627.46l1150.01 3916.66 7220.83 3604.16 1229.17 -1391.67 -6616.67 -3166.67 -591.67 -1652.09 -893.76 -54.18c4545.72,-1371.23 8349.44,-1089.58 12475,-383.35l-395.83 1729.16 1795.84 779.17 941.68 -3691.67c-4361,-1141.63 -10259.72,-2159.69 -16314.59,310.47zm2661.5 6488.33l3114.58 1344.27 2358.33 2250c1416.67,-1050 2560.42,-2385.94 3668.76,-3835.94l1391.67 -166.67 -8387.51 -3987.52 3108.34 -579.17 6662.5 3304.16c-986.11,2459.72 -3724.27,5938.42 -6458.33,7612.49 -2336.11,-1930.54 -4188.89,-3773.59 -5458.33,-5941.63z"/>
  </g>
  <path class="fil1" d="M13337.06 19955.63l-241.22 -921.4c-213.75,57.59 -349.06,7.96 -329.78,319.39l-19.89 3.24 -70.11 -302.94 1016.09 -238.61 93.51 304.17 -18.92 6.93c-122.59,-257.13 -261,-201.18 -482.13,-141.58l241.22 921.4c25.78,98.48 55.37,161.1 88.77,187.87 39.72,31.69 93.57,40.61 161.58,26.76l5.31 20.31 -552.17 144.56 -5.32 -20.31c66.07,-21.24 108.65,-55.41 127.74,-102.5 16,-39.7 11.11,-108.8 -14.68,-207.27zm974.97 -615.26l648.12 -128.75 -66.52 -308.56c-21.45,-99.51 -45.48,-164.2 -77.22,-192.91 -37.69,-34.07 -90.94,-46.21 -159.65,-36.5l-4.07 -20.6 506.8 -79.57 4.07 20.6c-67.23,17.2 -127.48,52.87 -149.34,98.73 -18.41,38.64 -17.68,107.92 2.08,207.78l133.78 675.94c19.76,99.85 45.47,164.2 77.22,192.91 37.69,34.07 90.94,46.21 159.66,36.5l4.08 20.6 -482.84 89.98 -4.07 -20.59c67.24,-17.2 111.85,-48.7 133.72,-94.56 18.42,-38.64 17.68,-107.93 -2.08,-207.78l-67.07 -338.91 -648.12 128.74 67.07 338.91c19.76,99.85 45.47,164.2 77.22,192.91 37.69,34.08 90.94,46.21 159.66,36.5l4.07 20.6 -497.41 85.81 -4.07 -20.6c67.23,-17.2 111.85,-48.7 133.71,-94.56 18.42,-38.64 13.5,-107.19 -2.08,-207.78l-106.69 -688.44c-15.59,-100.6 -45.47,-164.2 -77.22,-192.91 -37.69,-34.08 -90.94,-46.21 -159.66,-36.5l-4.07 -20.59 470.06 -105.54 4.07 20.59c-67.24,17.2 -111.86,48.7 -133.72,94.56 -18.41,38.63 -15.87,107.59 2.08,207.78l58.45 326.19zm1966.87 -958.41l27.4 302.81 -21.5 4.52c-74.42,-267.26 -173.96,-203.22 -434.29,-171.76l-202.76 24.5 67.33 557.11 294.17 -50.1c172.91,-29.44 210.54,-80.93 208.77,-240.52l21.95 -0.73 56.66 463.45 -21.72 2.63c-43.06,-177.83 -86.3,-226.5 -264.04,-196.19l-292.35 49.88 25.65 212.23 64.67 364.22 272.93 -26.99c169.36,-16.75 406.47,-111.05 422.28,-314.13l21.96 -0.73 -47.41 325.4 -1005.46 110.9 -2.52 -20.84c68.33,-12.11 115.2,-40.17 140.44,-84.26 21.27,-37.15 25.72,-106.29 13.51,-207.35l-82.68 -684.07c-12.21,-101.06 -33.02,-167.15 -62.52,-198.16 -35.02,-36.81 -87.22,-52.91 -156.47,-48.38l-2.52 -20.85 958.52 -152.59zm930.38 1238.13l-22.64 -384.91 20.02 -1.37c83.19,254.51 233.66,343.13 388.91,332.52 69.13,-4.72 163.79,-44.9 204.81,-95.53 41.02,-50.63 59.01,-112.76 53.98,-186.39 -5.46,-79.98 -24.85,-155.95 -84.61,-195.1 -36.44,-23.87 -144.35,-62.93 -248.1,-110.05 -103.75,-47.12 -248.91,-86.48 -285.47,-122.24 -54.84,-53.65 -85.17,-123.01 -90.98,-208.06 -18.16,-265.81 144.59,-347.55 380.74,-363.67 47.3,-3.23 105.91,7.45 175.83,31.99 48.68,17.09 83.27,0.2 95.39,-0.62 20.62,-1.41 33.49,-18.23 38.59,-50.47l20.01 -1.37 32.51 368.93 -21.83 1.49c-33.62,-99.74 -70.04,-147.22 -101.26,-192.21 -63.4,-91.39 -138.94,-120.44 -226.26,-114.49 -122.12,8.33 -266.79,45.67 -283.98,226.17 -6.87,72.19 33.31,110 116.61,143.81 36.72,14.91 187.17,59.55 315.03,113.53 194.59,82.15 297.26,204.17 308.28,365.4 7.8,114.26 -22.19,210.37 -89.98,288.33 -67.79,77.97 -146.19,139.61 -260.19,147.39 -76.41,5.22 -215.25,1.41 -329,-40.55 -8.75,-3.23 -19.19,-4.42 -31.32,-3.59 -27.89,1.91 -46.26,18.46 -55.1,49.68l-20.01 1.37zm1920.22 -1384.25l20.78 306.95 -21.84 2.35c-13.98,-90.08 -48.19,-158.76 -102.65,-206.02 -54.46,-47.27 -202.01,-69.65 -325.99,-67.15l-204.2 4.12 10.98 544.47 274.04 -3.24c102.11,-1.21 168.53,-24.4 199.28,-67.02 21.26,-30.97 35.36,-85.35 42.31,-163.13l21.91 1.47 6.44 500.06 -21.88 0.44c-12.81,-92.65 -37.21,-156.76 -73.19,-192.3 -35.97,-35.54 -94.68,-51.81 -176.12,-50.86l-272.22 3.2 4.64 230.31c2.87,142.48 -7.81,334.34 13.77,379.72l294.06 7.91c239.05,6.43 387.36,-84.03 424.91,-292.89l21.92 1.47 -65.72 330.89 -1062.92 21.44 -0.43 -20.99c69.2,-5.22 118.59,-28.48 148.15,-69.8 24.83,-34.87 36.22,-103.19 34.17,-204.96l-13.89 -688.91c-2.05,-101.78 -16.19,-169.58 -42.41,-203.42 -31.21,-40.1 -81.49,-61.36 -150.85,-63.77l-0.42 -20.99 1017.34 -19.34zm482.15 159.38l-19.15 810.98c-2.4,101.76 8.75,170.13 33.46,205.08 29.43,41.42 78.73,64.86 147.91,70.31l-0.5 20.99 -412.01 -9.73 0.5 -20.99c69.36,-2.18 119.72,-23.27 151.07,-63.26 26.33,-33.74 40.7,-101.5 43.1,-203.27l16.27 -688.85c2.4,-101.77 -8.75,-170.13 -33.46,-205.08 -29.43,-41.43 -78.73,-64.87 -147.91,-70.31l0.5 -20.99 342.73 8.09 726.22 991.96 17.99 -717.33c2.55,-101.77 -8.75,-170.13 -33.46,-205.08 -29.43,-41.43 -78.73,-64.86 -147.91,-70.31l0.5 -20.99 434.93 14.94 -0.5 20.99c-69.37,2.18 -119.72,23.26 -151.07,63.26 -26.33,33.75 -40.6,101.51 -43.1,203.27l-25.24 1024.56 -40.11 -0.95 -860.75 -1137.27zm1611.87 839.46l41.54 -967.21c-250.61,-14.11 -345.17,-13.68 -419.36,267.97l-19.9 -3.17 23.66 -327.08 1107.13 51.3 -29.19 333.35 -20.14 0.64c-41.37,-328.06 -181.23,-295.7 -447.48,-310.66l-41.54 967.21c-4.36,101.69 1.99,170.34 25.29,206.25 27.76,42.56 76.09,67.93 145.01,76.13l-1.33 20.95 -569.63 -36.13 1.33 -20.95c69.4,0.57 120.55,-18.49 153.46,-57.2 27.65,-32.67 46.77,-99.7 51.14,-201.4zm1197.56 -633.13l-81.14 721.82c-11.37,101.15 -2.15,170.34 20.27,206.8 26.71,43.22 74.42,69.76 143.11,79.63l-1.84 20.92 -568.59 -49.96 1.84 -20.91c69.36,2.26 120.96,-15.56 154.8,-53.46 28.44,-31.99 44.65,-98.94 56.02,-200.09l81.14 -721.82c11.37,-101.16 2.16,-170.34 -20.27,-206.8 -26.71,-43.22 -74.42,-69.77 -143.11,-79.63l1.83 -20.92 568.59 49.96 -1.84 20.92c-69.36,-2.27 -120.96,15.55 -154.81,53.46 -28.44,31.99 -44.66,98.95 -56.02,200.09zm538.9 -47.97l-97.84 805.28c-12.27,101.05 -7.82,170.17 13.39,207.36 25.26,44.09 72.05,72.2 140.38,84.35l-2.53 20.84 -409.12 -49.7 2.53 -20.84c69.25,4.57 121.42,-11.53 156.5,-48.28 29.49,-31.03 50.37,-97.07 62.65,-198.13l83.1 -684.02c12.28,-101.06 7.82,-170.17 -13.38,-207.36 -25.26,-44.09 -109.56,-76.37 -177.88,-88.52l2.53 -20.85 377.83 45.52 637.88 1107.31 81.26 -668.86c12.28,-101.06 7.82,-250.38 -13.38,-287.57 -25.26,-44.09 -72.06,-72.21 -140.38,-84.35l2.53 -20.84 409.12 49.7 -2.54 20.84c-69.25,-4.57 -121.41,11.52 -156.5,48.28 -29.49,31.03 -50.37,177.28 -62.65,278.33l-118.33 973.91 -39.83 -4.84 -735.35 -1257.59zm2208.62 125.02l-31.65 306.02 -21.92 -1.4c1.53,-91.15 -20.53,-164.64 -66.17,-220.46 -45.63,-55.83 -129.76,-93.04 -252.36,-111.63l-201.93 -30.62 -99.32 578.17 207.05 31.45c100.96,15.33 170.22,4.58 207.77,-32.2 26.21,-26.91 49.34,-78.1 69.4,-153.57l21.34 5.17 -78.58 493.88 -21.63 -3.28c3.11,-93.48 -10.05,-160.8 -39.47,-201.94 -29.41,-41.14 -84.41,-67.8 -164.93,-80.03l-205.26 -31.18 -37.7 244.26 -53.37 331.86 251.43 66.88c228.02,60.65 366.54,5.81 444.72,-209.35l21.35 5.17 -147.31 316.28 -963.62 -156.28 3.15 -20.76c69.08,6.61 123.79,16.03 159.94,-19.67 30.4,-30.14 51.59,-95.8 68.48,-196.19l124.15 -737.51c16.9,-100.39 12.85,-169.87 -7.24,-207.67 -23.94,-44.82 -69.89,-74.31 -137.83,-88.47l3.15 -20.76 948.36 143.82zm1122.37 1214.18l19.46 5.24 -170.28 305.46 -1008.54 -182.26 3.84 -22.58c67.33,10.15 120.09,-2.83 158.29,-38.93 30.93,-29.6 50.55,-95.41 71.96,-194.93l152.92 -710.56c23.29,-108.23 13.54,-184.85 -15.04,-227.14 -23.86,-33.74 -65.44,-57.59 -124.72,-71.53l3.52 -20.7 562.71 95.61 -3.52 20.7c-65.36,-7.24 -115.66,3.9 -150.88,33.41 -35.22,29.51 -56.04,98.1 -79.7,202.33l-127.98 563.79c-31.83,140.22 -29.67,236.32 -16.76,283.69 25.06,92.02 102.31,149.04 231.75,171.03 160.82,27.33 432.11,-55.51 492.97,-212.63z"/>
 </g>
</svg>
