<?xml version="1.0" encoding="UTF-8"?>
<!DOCTYPE svg PUBLIC "-//W3C//DTD SVG 1.1//EN" "http://www.w3.org/Graphics/SVG/1.1/DTD/svg11.dtd">
<!-- Creator: CorelDRAW 2020 (64-Bit) -->
<svg xmlns="http://www.w3.org/2000/svg" xml:space="preserve" width="39.3701in" height="29.5276in" version="1.1" style="shape-rendering:geometricPrecision; text-rendering:geometricPrecision; image-rendering:optimizeQuality; fill-rule:evenodd; clip-rule:evenodd"
viewBox="0 0 39370.08 29527.56"
 xmlns:xlink="http://www.w3.org/1999/xlink"
 xmlns:xodm="http://www.corel.com/coreldraw/odm/2003">
 <defs>
  <style type="text/css">
   <![CDATA[
    .fil0 {fill:#282829}
   ]]>
  </style>
 </defs>
 <g id="Layer_x0020_1">
  <metadata id="CorelCorpID_0Corel-Layer"/>
  <g id="_2051166462112">
   <rect class="fil0" x="6337.62" y="11122.05" width="877.17" height="4087.6" rx="438.59" ry="438.59"/>
   <path class="fil0" d="M2340.41 8348.48c137.5,0 272.19,11.95 403.19,34.69 -1.48,-34.21 -2.39,-68.56 -2.39,-103.13 0,-1293.47 1048.57,-2342.04 2342.04,-2342.04 1113.91,0 2046.13,777.67 2283.5,1819.7 245.87,-87.66 510.62,-135.54 786.59,-135.54 931.67,0 1736.17,544.06 2113.36,1331.78 108.78,93.54 207.31,198.63 293.75,313.36 299.73,-175.93 648.81,-276.83 1021.47,-276.83 1116.19,0 2021.04,904.85 2021.04,2021.05 0,1116.19 -904.85,2021.04 -2021.04,2021.04l-3435.74 0 0 -1463.59c0,-740.55 -605.9,-1346.45 -1346.45,-1346.45l-0 0c-740.55,0 -1346.45,605.9 -1346.45,1346.45l0 1463.59 -3112.86 0c-1293.47,0 -2342.04,-1048.57 -2342.04,-2342.04 0,-1293.47 1048.57,-2342.04 2342.04,-2342.04z"/>
   <path class="fil0" d="M32465.86 12070.31l0 0c173.39,173.87 172.99,457.98 -0.88,631.37l-2895.74 2887.66 1315.25 1088.07 0 12838.43 -9389.29 0 0 -3104.97 5244.46 0c395.57,0 719.21,-323.64 719.21,-719.21l0 -0.01c0,-395.56 -323.64,-719.2 -719.21,-719.2l-5244.46 0 0 -447.48 0 -911.08 5244.46 0c395.57,0 719.21,-323.64 719.21,-719.21l0 -0.01c0,-395.57 -323.64,-719.21 -719.21,-719.21l-5244.46 0 0 -1352.39 5244.46 0c395.57,0 719.21,-323.64 719.21,-719.21l0 -0.01c0,-395.57 -323.64,-719.21 -719.21,-719.21l-5244.46 0 0 -1358.56 5244.46 0c395.57,0 719.21,-323.64 719.21,-719.21l0 -0.01c0,-395.57 -323.64,-719.21 -719.21,-719.21l-5244.46 0 0 -3777.44c0,-344.29 -140.19,-656.62 -366.04,-882.48 -225.86,-225.86 -538.2,-366.04 -882.48,-366.04l-878.32 0 0 -3772.2c0,-171.88 140.63,-312.51 312.5,-312.51l9197.25 7540.61 2956.39 -2948.15c173.87,-173.38 457.98,-172.98 631.37,0.88z"/>
   <path class="fil0" d="M14137.81 12468.08l6108.87 0c188.17,0 342.12,153.94 342.12,342.12l0 16376.67c0,188.18 -153.95,342.12 -342.12,342.12l-10929.47 0c-188.17,0 -342.12,-153.94 -342.12,-342.12l0 -15211.27 2602.2 0c808.3,0 1540.15,-327.7 2069.95,-857.5 192.1,-192.1 357.6,-410.78 490.57,-650.02zm-2461.15 2811.33l1485.7 0c180.92,0 328.94,148.02 328.94,328.94l0 2028.45c0,180.92 -148.02,328.94 -328.94,328.94l-1485.7 0c-180.93,0 -328.94,-148.02 -328.94,-328.94l0 -2028.45c0,-180.92 148.02,-328.94 328.94,-328.94zm4777.83 8800.18l1485.7 0c180.93,0 328.94,148.02 328.94,328.94l0 2028.45c0,180.92 -148.01,328.94 -328.94,328.94l-1485.7 0c-180.93,0 -328.94,-148.02 -328.94,-328.94l0 -2028.45c0,-180.92 148.01,-328.94 328.94,-328.94zm-4777.83 0l1485.7 0c180.92,0 328.94,148.02 328.94,328.94l0 2028.45c0,180.92 -148.02,328.94 -328.94,328.94l-1485.7 0c-180.93,0 -328.94,-148.02 -328.94,-328.94l0 -2028.45c0,-180.92 148.02,-328.94 328.94,-328.94zm4777.83 -4396.81l1485.7 0c180.93,0 328.94,148.02 328.94,328.94l0 2028.45c0,180.92 -148.01,328.94 -328.94,328.94l-1485.7 0c-180.93,0 -328.94,-148.02 -328.94,-328.94l0 -2028.45c0,-180.92 148.01,-328.94 328.94,-328.94zm-4777.83 0l1485.7 0c180.92,0 328.94,148.02 328.94,328.94l0 2028.45c0,180.92 -148.02,328.94 -328.94,328.94l-1485.7 0c-180.93,0 -328.94,-148.02 -328.94,-328.94l0 -2028.45c0,-180.92 148.02,-328.94 328.94,-328.94zm4777.83 -4403.37l1485.7 0c180.93,0 328.94,148.02 328.94,328.94l0 2028.45c0,180.92 -148.01,328.94 -328.94,328.94l-1485.7 0c-180.93,0 -328.94,-148.02 -328.94,-328.94l0 -2028.45c0,-180.92 148.01,-328.94 328.94,-328.94z"/>
   <circle class="fil0" cx="32219.1" cy="9728.77" r="423.84"/>
   <path class="fil0" d="M35136.48 13304.12c-92.16,85.95 -213.21,150.03 -349.23,150.03 -234.08,0 -423.84,-189.76 -423.84,-423.84 0,-39.37 5.39,-77.47 15.43,-113.64l-0.69 -0.17c31.29,-151.24 47.79,-307.88 47.79,-468.39 0,-1270.19 -1029.69,-2299.88 -2299.88,-2299.88 -164,0 -323.93,17.3 -478.22,49.93l-0.02 -0.85c-37.26,10.71 -76.62,16.46 -117.32,16.46 -234.08,0 -423.84,-189.76 -423.84,-423.84 0,-194.65 131.21,-358.62 310.01,-408.36l-0 -0 0.18 -0.04c13.77,-3.82 27.82,-6.96 42.11,-9.39 215.02,-46.42 438.21,-70.87 667.11,-70.87 1737.95,0 3146.84,1408.89 3146.84,3146.85 0,222.39 -23.12,439.37 -67.02,648.71 -2.57,16.32 -6.07,32.33 -10.46,47.97 -13.18,58.29 -27.97,115.98 -58.95,159.32z"/>
   <path class="fil0" d="M37119.53 12536.44c-2.17,22.88 -6.07,45.26 -11.63,66.98 -5.08,28.03 -10.44,55.96 -16.05,83.8l-10.33 -9.68c-69.15,149.8 -220.67,253.77 -396.48,253.77 -241.06,0 -436.48,-195.42 -436.48,-436.48 0,-16.27 0.92,-32.31 2.65,-48.11l-0.94 -0.09c1.5,-8.28 2.97,-16.57 4.42,-24.86 0.34,-2.02 0.68,-4.04 1.05,-6.06 34.19,-198.32 52.09,-402.22 52.09,-610.3 0,-1971.06 -1597.86,-3568.93 -3568.93,-3568.93 -168.71,0 -334.6,11.98 -497.07,34.63l-4.58 -11.02c-51.54,21.41 -108.05,33.25 -167.33,33.25 -241.06,0 -436.48,-195.42 -436.48,-436.48 0,-222.46 166.44,-406.05 381.58,-433.05 235.61,-38.65 477.35,-59.06 723.89,-59.06 2452.51,0 4440.67,1988.15 4440.67,4440.67 0,249.01 -20.59,493.2 -60.02,731.03z"/>
   <path class="fil0" d="M38386.52 12097.69c823.92,-3372.52 -2836.09,-6828.04 -5809.73,-5995.41 -333.98,108.19 -688.07,26.8 -688.07,-331.42 0,-182.43 115.26,-337.94 277.12,-397.76 3152.15,-1221.15 8177.17,2590.06 7037.62,6951.41 -47.52,176.38 -212.31,309.16 -408.12,309.16 -234.08,0 -423.84,-189.76 -423.84,-423.84 0,-38.52 5.17,-75.83 15.02,-112.13z"/>
   <path class="fil0" d="M21414.25 229.91l0 -0c105.07,-205.35 359.05,-287.38 564.41,-182.3l3682.1 1884.19c205.35,105.09 287.39,359.06 182.31,564.41l0 0c-105.08,205.35 -359.06,287.39 -564.41,182.3l-1212.67 -620.54 0 1571.71 2380.17 0c168.83,0 306.97,138.14 306.97,306.97l0 8091.2 -3319.01 -2745.73 1657.17 0c180.52,0 328.22,-147.69 328.22,-328.22l0 -374.24c0,-180.52 -147.7,-328.22 -328.22,-328.22l-2903.04 0 -1820.13 -1505.74c-181,-119.01 -355.49,-200.79 -554.72,-200.79l5277.89 0c180.52,0 328.22,-147.7 328.22,-328.22l0 -374.24c0,-180.52 -147.7,-328.22 -328.22,-328.22l-9990.2 0c-180.52,0 -328.22,147.7 -328.22,328.22l0 374.24c0,180.52 147.7,328.22 328.22,328.22l4365.47 0c-262.59,45.07 -497.76,171.45 -678.28,351.97 -228.41,228.41 -370.2,544.33 -370.2,892.58l0 461.97 -3317 0c-180.52,0 -328.22,147.7 -328.22,328.22l0 374.24c0,180.52 147.7,328.22 328.22,328.22l3317 0 0 2279.56 -3958.28 0c29.51,-166.74 44.93,-338.33 44.93,-513.52 0,-808.3 -327.7,-1540.15 -857.5,-2069.95 -66.63,-66.63 -136.46,-130.06 -209.23,-190.05l0 -4851.51c0,-168.83 138.13,-306.97 306.97,-306.97l9482.22 0 0 -2000.94 -1630.64 -834.43c-205.36,-105.08 -287.39,-359.06 -182.31,-564.41z"/>
  </g>
 </g>
</svg>
