<?xml version="1.0" encoding="UTF-8"?>
<!DOCTYPE svg PUBLIC "-//W3C//DTD SVG 1.1//EN" "http://www.w3.org/Graphics/SVG/1.1/DTD/svg11.dtd">
<!-- Creator: CorelDRAW 2020 (64-Bit) -->
<svg xmlns="http://www.w3.org/2000/svg" xml:space="preserve" width="29.4022in" height="39.3701in" version="1.1" style="shape-rendering:geometricPrecision; text-rendering:geometricPrecision; image-rendering:optimizeQuality; fill-rule:evenodd; clip-rule:evenodd"
viewBox="0 0 29402.2 39370.08"
 xmlns:xlink="http://www.w3.org/1999/xlink"
 xmlns:xodm="http://www.corel.com/coreldraw/odm/2003">
 <defs>
  <style type="text/css">
   <![CDATA[
    .str0 {stroke:#373435;stroke-width:7.87;stroke-miterlimit:2.61313}
    .fil0 {fill:#282829}
   ]]>
  </style>
 </defs>
 <g id="Layer_x0020_1">
  <metadata id="CorelCorpID_0Corel-Layer"/>
  <g id="_2474797589760">
   <path class="fil0 str0" d="M20169.73 23646.45l2736.41 0 0 1703.54c728.38,161.09 1409.5,447.82 2019.28,836.67l1204.77 -1204.77 1934.94 1934.94 -1204.77 1204.77c388.91,609.74 675.55,1290.92 836.68,2019.28l1703.54 0 0 2736.41 -1703.54 0c-161.09,728.38 -447.83,1409.5 -836.68,2019.28l1204.77 1204.76 -1934.94 1934.94 -1204.77 -1204.76c-609.74,388.91 -1290.92,675.55 -2019.28,836.67l0 1703.54 -2736.41 0 0 -1703.54c-728.37,-161.09 -1409.5,-447.82 -2019.27,-836.67l-1204.77 1204.76 -1934.94 -1934.94 1204.77 -1204.76c-388.91,-609.74 -675.55,-1290.92 -836.68,-2019.28l-1703.54 0 0 -2736.41 1703.54 0c161.09,-728.38 447.83,-1409.5 836.68,-2019.28l-1204.77 -1204.77 1934.94 -1934.94 1204.77 1204.77c609.74,-388.91 1290.92,-675.55 2019.27,-836.67l0 -1703.54zm1368.21 4692.91c1750.59,0 3169.72,1419.13 3169.72,3169.72 0,1750.59 -1419.13,3169.72 -3169.72,3169.72 -1750.59,0 -3169.72,-1419.13 -3169.72,-3169.72 0,-1750.59 1419.13,-3169.72 3169.72,-3169.72z"/>
   <path class="fil0 str0" d="M-1.62 22443.92l9103.52 -9103.52c452.06,1627.57 1944.43,2822.19 3716.02,2822.19 1770.44,0 3262.05,-1193.07 3715.16,-2819.02l9100.35 9100.35 -957.74 0 0 -578.59 -6275.51 0 0 1399.83 -626.31 42.4 -836.37 -836.37 -2359.17 2359.17 0 -1054.02c0,-285.96 -233.96,-519.92 -519.93,-519.92l-2380.67 0c-285.96,0 -519.93,233.96 -519.93,519.92l0 2307.7c0,285.96 233.96,519.93 519.93,519.93l1126.99 0 -304.68 304.68 1462.68 1462.68 -2068.54 0 0 6275.51 2068.54 0 -613.34 613.34 -9831.93 0c-307.88,0 -559.78,-251.91 -559.78,-559.78l0 -12256.47 -2959.3 0zm5216.86 812.5l2380.68 0c285.96,0 519.92,233.96 519.92,519.92l0 2307.7c0,285.96 -233.96,519.93 -519.92,519.93l-2380.68 0c-285.96,0 -519.92,-233.96 -519.92,-519.93l0 -2307.7c0,-285.96 233.96,-519.92 519.92,-519.92zm0 5568.59l2380.68 0c285.96,0 519.92,233.96 519.92,519.93l0 2307.7c0,285.96 -233.96,519.92 -519.92,519.92l-2380.68 0c-285.96,0 -519.92,-233.96 -519.92,-519.92l0 -2307.7c0,-285.96 233.96,-519.93 519.92,-519.93z"/>
   <circle class="fil0 str0" cx="12817.92" cy="12306.08" r="2754.65"/>
   <path class="fil0 str0" d="M13413.89 8141.77c-85.55,-216.67 -296.61,-372.2 -544.04,-372.2 -322.96,0 -411.4,171.78 -565.46,395.11 -167.29,242.52 -499.5,303.5 -742.01,136.21 -238.95,-164.83 -301.65,-489.77 -143.43,-731.26l-3.83 -3.44c278.63,-517.76 825.55,-869.75 1454.73,-869.75 658.56,0 1226.97,385.62 1491.96,943.34l-5.07 -1.81 -0.04 0.02c76.28,165.49 65.8,365.82 -45.17,526.69 -167.29,242.52 -499.5,303.5 -742.01,136.21 -63.6,-43.87 -114.69,-99.09 -155.64,-159.12z"/>
   <path class="fil0 str0" d="M10679.12 5669.33c-11.68,24.28 -25.36,47.96 -41.13,70.83 -164.02,237.78 -489.74,297.57 -727.52,133.55 -228.54,-157.64 -292.61,-464.64 -151.63,-699.39l-4.27 -2.63c635.01,-1035.89 1777.55,-1727.03 3081.61,-1727.03 1326.54,0 2485.83,715.23 3113.89,1780.95l-3.91 1.98c72.87,161.51 61.88,356.08 -46.07,512.57 -164.02,237.78 -489.74,297.57 -727.52,133.55 -67.32,-46.44 -120.36,-105.84 -158.11,-172.54l-0.81 0.41c-452.86,-726.13 -1258.66,-1209.42 -2177.47,-1209.42 -905.14,0 -1700.64,469 -2157.06,1177.17z"/>
   <path class="fil0 str0" d="M9101.81 3524.33c-6.35,11.29 -14.75,20.97 -22.1,31.63 -187.7,272.11 -560.44,340.53 -832.54,152.83 -268.33,-185.09 -338.57,-550.11 -160.48,-821.14l-4.46 -2.8c920.69,-1716.08 2731.63,-2883.22 4815.39,-2883.22 2107.16,0 3935.31,1193.54 4846.03,2941.3l-2.07 1.03c96.53,189.53 88.74,424.63 -40.52,612 -187.7,272.1 -560.44,340.53 -832.54,152.83 -88.87,-61.3 -155.99,-142.34 -199.59,-233.17l-2.27 1.13c-713.95,-1352.01 -2133.76,-2273.62 -3769.04,-2273.62 -1654.78,0 -3089.17,943.57 -3795.8,2321.22z"/>
  </g>
 </g>
</svg>
