<?xml version="1.0" encoding="UTF-8"?>
<!DOCTYPE svg PUBLIC "-//W3C//DTD SVG 1.1//EN" "http://www.w3.org/Graphics/SVG/1.1/DTD/svg11.dtd">
<!-- Creator: CorelDRAW 2020 (64-Bit) -->
<svg xmlns="http://www.w3.org/2000/svg" xml:space="preserve" width="39.3701in" height="39.3701in" version="1.1" style="shape-rendering:geometricPrecision; text-rendering:geometricPrecision; image-rendering:optimizeQuality; fill-rule:evenodd; clip-rule:evenodd"
viewBox="0 0 39370.08 39370.08"
 xmlns:xlink="http://www.w3.org/1999/xlink"
 xmlns:xodm="http://www.corel.com/coreldraw/odm/2003">
 <defs>
  <style type="text/css">
   <![CDATA[
    .str0 {stroke:#373435;stroke-width:7.87;stroke-miterlimit:2.61313}
    .fil0 {fill:black}
   ]]>
  </style>
 </defs>
 <g id="Layer_x0020_1">
  <metadata id="CorelCorpID_0Corel-Layer"/>
  <path class="fil0 str0" d="M5007.28 985.92l29352.83 0c2213.41,0 4024.37,1810.97 4024.37,4024.38l0 29352.82c0,2213.41 -1810.96,4024.38 -4024.37,4024.38l-29352.83 0c-2213.41,0 -4024.37,-1810.97 -4024.37,-4024.38l0 -29352.82c0,-2213.41 1810.96,-4024.38 4024.37,-4024.38zm111.36 2771.65l29130.11 0c781.59,0 1421.09,639.49 1421.09,1421.09l0 29130.13c0,781.6 -639.49,1421.09 -1421.09,1421.09l-29130.11 0c-781.6,0 -1421.09,-639.49 -1421.09,-1421.09l0 -29130.13c0,-781.59 639.49,-1421.09 1421.09,-1421.09z"/>
  <path class="fil0 str0" d="M19805.8 11903.25c276.47,-1206.72 2988.3,-887.38 2624.38,703.2 -987.07,4307.44 -1974.13,8614.88 -2961.2,12922.33 -340.79,1487.42 -2936.21,660.05 -2608.97,-768.22 981.93,-4285.77 1963.86,-8571.54 2945.79,-12857.3z"/>
  <path class="fil0 str0" d="M10574.07 13035.88c1057.84,-1330.25 3160.48,387.15 2073.58,1753.95 -1236.65,1555.11 -2304.9,2898.46 -3541.56,4453.57 -73.75,92.75 -60.91,180.57 8.31,267.62 1243.65,1563.91 2197.67,2763.61 3441.31,4327.52 1226.35,1542.17 -898.38,3231.8 -2081.47,1744.03 -1469.15,-1847.48 -2580.18,-3244.63 -4049.33,-5092.11 -432.63,-544.04 -572.15,-1517.43 -52.12,-2171.38 1439.51,-1810.21 2761.77,-3472.98 4201.28,-5283.19z"/>
  <path class="fil0 str0" d="M28770.13 13035.88c-1057.84,-1330.25 -3160.48,387.15 -2073.58,1753.95 1236.65,1555.11 2304.9,2898.46 3541.55,4453.57 73.75,92.75 60.91,180.57 -8.3,267.62 -1243.65,1563.91 -2197.67,2763.61 -3441.31,4327.52 -1226.35,1542.17 898.37,3231.8 2081.47,1744.03 1469.15,-1847.48 2580.18,-3244.63 4049.33,-5092.11 432.63,-544.04 572.15,-1517.43 52.12,-2171.38 -1439.51,-1810.21 -2761.76,-3472.98 -4201.27,-5283.19z"/>
 </g>
</svg>
