<?xml version="1.0" encoding="UTF-8"?>
<!DOCTYPE svg PUBLIC "-//W3C//DTD SVG 1.1//EN" "http://www.w3.org/Graphics/SVG/1.1/DTD/svg11.dtd">
<!-- Creator: CorelDRAW 2020 (64-Bit) -->
<svg xmlns="http://www.w3.org/2000/svg" xml:space="preserve" width="39.3701in" height="39.3701in" version="1.1" style="shape-rendering:geometricPrecision; text-rendering:geometricPrecision; image-rendering:optimizeQuality; fill-rule:evenodd; clip-rule:evenodd"
viewBox="0 0 39370.08 39370.08"
 xmlns:xlink="http://www.w3.org/1999/xlink"
 xmlns:xodm="http://www.corel.com/coreldraw/odm/2003">
 <defs>
  <style type="text/css">
   <![CDATA[
    .fil0 {fill:#023867}
   ]]>
  </style>
 </defs>
 <g id="Layer_x0020_1">
  <metadata id="CorelCorpID_0Corel-Layer"/>
  <g id="_2051166414112">
   <path class="fil0" d="M-1.63 19686.66l19685.04 -19412.21 19685.04 19412.21 -19685.04 19412.21 -19685.04 -19412.21zm8863.68 0c2005.77,3938.71 6098.37,6636.71 10821.36,6636.71 4722.99,0 8815.59,-2698 10821.37,-6636.71 -2005.78,-3938.71 -6098.38,-6636.71 -10821.37,-6636.71 -4722.98,0 -8815.59,2698 -10821.36,6636.71z"/>
   <path class="fil0" d="M19683.41 14479.84c2875.65,0 5206.83,2331.18 5206.83,5206.82 0,2875.65 -2331.18,5206.83 -5206.83,5206.83 -2875.65,0 -5206.83,-2331.18 -5206.83,-5206.83 0,-2875.65 2331.18,-5206.82 5206.83,-5206.82zm0 1626.25c358.63,0 704.87,52.96 1031.53,151.09l-926.43 3457.57 3443.54 -506.8c20.93,156.61 31.94,316.37 31.94,478.71 0,1977.5 -1603.07,3580.57 -3580.57,3580.57 -1977.5,0 -3580.57,-1603.08 -3580.57,-3580.57 0,-1977.49 1603.07,-3580.57 3580.57,-3580.57z"/>
  </g>
 </g>
</svg>
